<?xml version="1.0" encoding="utf-8"?>
<!-- Generator: Adobe Illustrator 23.0.3, SVG Export Plug-In . SVG Version: 6.00 Build 0)  -->
<svg version="1.1" id="Icons" xmlns="http://www.w3.org/2000/svg" xmlns:xlink="http://www.w3.org/1999/xlink" x="0px" y="0px"
	 viewBox="0 0 32 32" style="enable-background:new 0 0 32 32;" xml:space="preserve">
<path d="M28.3,19.9c-0.2-0.3-0.5-0.6-0.9-0.6c-0.4,0-0.7,0.2-0.9,0.5l-0.2,0.3c0,0,0,0,0,0c-0.3,0.6-0.8,0.9-1.6,1l0-0.5
	c-0.1-0.9-0.1-1.9-0.3-2.8c-0.2-1.2-0.8-2.4-1.9-3.6c-0.3-0.4-0.9-0.4-1.3-0.1c-0.2,0.1-0.4,0.3-0.4,0.5c-0.4,1.1-1.1,2-1.9,3
	l-0.3,0.3c-1.2,1.6-1.8,3.5-1.8,5.4c0.1,2.9,2.9,5.5,5.9,5.5c0,0,0,0,0,0c2.9,0,5.3-2,5.9-4.7C29.2,22.9,29,21.2,28.3,19.9z"/>
<path d="M15,23.6c-0.1-2.4,0.6-4.7,2.2-6.7l0.3-0.3c0.7-0.9,1.3-1.7,1.6-2.5c0.2-0.6,0.7-1.2,1.2-1.5c1.2-0.8,2.9-0.6,3.9,0.5
	c1.3,1.4,2.1,2.9,2.4,4.5c0.3-0.1,0.7-0.2,1.1-0.2c0.5,0,1,0.2,1.5,0.4V9c0-2.8-2.2-5-5-5H8C5.2,4,3,6.2,3,9v19
	c0,0.4,0.2,0.7,0.6,0.9C3.7,29,3.9,29,4,29c0.2,0,0.5-0.1,0.7-0.2C7.6,26.2,11.2,24.4,15,23.6C15,23.6,15,23.6,15,23.6z M11,11h6
	c0.6,0,1,0.4,1,1s-0.4,1-1,1h-6c-0.6,0-1-0.4-1-1S10.4,11,11,11z M14,17h-3c-0.6,0-1-0.4-1-1s0.4-1,1-1h3c0.6,0,1,0.4,1,1
	S14.6,17,14,17z"/>
</svg>
