<?xml version="1.0" encoding="utf-8"?>
<!-- Generator: Adobe Illustrator 23.0.3, SVG Export Plug-In . SVG Version: 6.00 Build 0)  -->
<svg version="1.1" id="Icons" xmlns="http://www.w3.org/2000/svg" xmlns:xlink="http://www.w3.org/1999/xlink" x="0px" y="0px"
	 viewBox="0 0 32 32" style="enable-background:new 0 0 32 32;" xml:space="preserve">
<path d="M23,15c-4.4,0-8,3.6-8,8s3.6,8,8,8s8-3.6,8-8S27.4,15,23,15z M26.7,23.7C26.7,23.7,26.7,23.7,26.7,23.7l-3.1,3
	c-0.2,0.2-0.4,0.3-0.7,0.3c-0.3,0-0.5-0.1-0.7-0.3c-0.4-0.4-0.4-1,0-1.4l1.3-1.3H19c-0.6,0-1-0.4-1-1s0.4-1,1-1h4.5l-1.3-1.3
	c-0.4-0.4-0.4-1,0-1.4c0.4-0.4,1-0.4,1.4,0l3.1,3c0,0,0,0,0,0c0.2,0.2,0.3,0.4,0.3,0.7S26.9,23.5,26.7,23.7z"/>
<path d="M13.1,24.1c-0.1-0.7-0.1-1.5,0-2.2c0,0,0,0,0,0c0-0.3,0.1-0.7,0.2-1c0-0.1,0-0.1,0.1-0.2c0.1-0.3,0.1-0.5,0.2-0.8
	c0-0.1,0.1-0.2,0.1-0.3c0.1-0.2,0.2-0.5,0.3-0.7c0-0.1,0.1-0.2,0.2-0.3c0.1-0.2,0.2-0.4,0.3-0.6c0.1-0.1,0.1-0.2,0.2-0.3
	c0.1-0.2,0.3-0.4,0.4-0.6c0.1-0.1,0.1-0.2,0.2-0.3c0.2-0.3,0.5-0.6,0.7-0.8c0.2-0.2,0.5-0.5,0.7-0.7c0.1-0.1,0.2-0.1,0.3-0.2
	c0.2-0.1,0.3-0.3,0.5-0.4c0.1-0.1,0.2-0.1,0.3-0.2c0.2-0.1,0.3-0.2,0.5-0.3c0.1-0.1,0.3-0.1,0.4-0.2c0.1-0.1,0.3-0.1,0.4-0.2
	c0.1-0.1,0.3-0.1,0.4-0.2c0.1-0.1,0.3-0.1,0.4-0.1c0.2-0.1,0.3-0.1,0.5-0.1c0.1,0,0.3-0.1,0.4-0.1c0.2,0,0.4-0.1,0.5-0.1
	c0.1,0,0.2,0,0.3,0c0.2,0,0.4-0.1,0.6-0.1c0.1,0,0.2,0,0.2,0c0.2,0,0.5,0,0.7,0c0,0,0.1,0,0.1,0c2,0.1,4,0.7,5.7,2c0,0,0,0,0,0V9
	c0-2.8-2.2-5-5-5H8C5.2,4,3,6.2,3,9v19c0,0.4,0.2,0.7,0.6,0.9C3.7,29,3.9,29,4,29c0.2,0,0.5-0.1,0.7-0.2C7.1,26.6,10,25.1,13.1,24.1
	L13.1,24.1z M11,11h6c0.6,0,1,0.4,1,1s-0.4,1-1,1h-6c-0.6,0-1-0.4-1-1S10.4,11,11,11z M10,16c0-0.6,0.4-1,1-1h3c0.6,0,1,0.4,1,1
	s-0.4,1-1,1h-3C10.4,17,10,16.6,10,16z"/>
</svg>
