<?xml version="1.0" encoding="utf-8"?>
<!-- Generator: Adobe Illustrator 23.0.3, SVG Export Plug-In . SVG Version: 6.00 Build 0)  -->
<svg version="1.1" id="Icons" xmlns="http://www.w3.org/2000/svg" xmlns:xlink="http://www.w3.org/1999/xlink" x="0px" y="0px"
	 viewBox="0 0 32 32" style="enable-background:new 0 0 32 32;" xml:space="preserve">
<path d="M28.7,27.2l-2.5-2.5c1.3-1.9,1.1-4.6-0.6-6.3C24.6,17.5,23.3,17,22,17s-2.6,0.5-3.5,1.5c-1.9,1.9-1.9,5.1,0,7.1
	c0.9,0.9,2.2,1.5,3.5,1.5c1,0,1.9-0.3,2.8-0.8l2.5,2.5c0.4,0.4,1,0.4,1.4,0C29,28.3,29,27.6,28.7,27.2z"/>
<path d="M17.1,17.1c1.3-1.3,3.1-2.1,4.9-2.1s3.6,0.7,4.9,2.1c0.8,0.8,1.4,1.8,1.7,2.8c0.2-0.6,0.4-1.2,0.4-1.8V9c0-2.8-2.2-5-5-5H8
	C5.2,4,3,6.2,3,9v19c0,0.4,0.2,0.7,0.6,0.9C3.7,29,3.9,29,4,29c0.2,0,0.5-0.1,0.7-0.2c3-2.6,6.7-4.4,10.5-5.2
	C14.7,21.3,15.3,18.8,17.1,17.1z M11,11h6c0.6,0,1,0.4,1,1s-0.4,1-1,1h-6c-0.6,0-1-0.4-1-1S10.4,11,11,11z M14,17h-3
	c-0.6,0-1-0.4-1-1s0.4-1,1-1h3c0.6,0,1,0.4,1,1S14.6,17,14,17z"/>
</svg>
