<?xml version="1.0" encoding="utf-8"?>
<!-- Generator: Adobe Illustrator 23.0.3, SVG Export Plug-In . SVG Version: 6.00 Build 0)  -->
<svg version="1.1" id="Icons" xmlns="http://www.w3.org/2000/svg" xmlns:xlink="http://www.w3.org/1999/xlink" x="0px" y="0px"
	 viewBox="0 0 32 32" style="enable-background:new 0 0 32 32;" xml:space="preserve">
<g>
	<path d="M30.8,18.6c0.3-0.4,0.3-1-0.1-1.3s-0.9-0.4-1.3-0.1c-3.6,2.8-5.1,2.8-8.8,0c-0.4-0.3-1-0.3-1.3,0.1
		c-0.4,0.4-0.4,0.9-0.1,1.3c2.8,3.6,2.8,5.1,0,8.8c-0.3,0.4-0.3,1,0.1,1.3c0.4,0.4,0.9,0.4,1.3,0.1c3.6-2.8,5.1-2.8,8.8,0
		c0.2,0.1,0.4,0.2,0.6,0.2c0.3,0,0.5-0.1,0.7-0.3c0.4-0.4,0.4-0.9,0.1-1.3C27.9,23.7,27.9,22.3,30.8,18.6z"/>
</g>
<path d="M17.6,19.8c-0.9-1.2-0.8-2.9,0.2-4c1.1-1.1,2.8-1.2,4-0.2c2.9,2.3,3.4,2.3,6.3,0c0.3-0.2,0.5-0.3,0.8-0.5V9c0-2.8-2.2-5-5-5
	H8C5.2,4,3,6.2,3,9v19c0,0.4,0.2,0.7,0.6,0.9C3.7,29,3.9,29,4,29c0.2,0,0.5-0.1,0.7-0.2c4.1-3.5,9.3-5.5,14.7-5.7
	C19.4,22.2,18.8,21.3,17.6,19.8z M14,17h-3c-0.6,0-1-0.4-1-1s0.4-1,1-1h3c0.6,0,1,0.4,1,1S14.6,17,14,17z M11,13c-0.6,0-1-0.4-1-1
	s0.4-1,1-1h6c0.6,0,1,0.4,1,1s-0.4,1-1,1H11z"/>
</svg>
