<?xml version="1.0" encoding="utf-8"?>
<!-- Generator: Adobe Illustrator 23.0.3, SVG Export Plug-In . SVG Version: 6.00 Build 0)  -->
<svg version="1.1" id="Icons" xmlns="http://www.w3.org/2000/svg" xmlns:xlink="http://www.w3.org/1999/xlink" x="0px" y="0px"
	 viewBox="0 0 32 32" style="enable-background:new 0 0 32 32;" xml:space="preserve">
<path d="M29.3,10.4l-6.8-6c-0.6-0.4-1.3-0.5-2-0.2c-0.7,0.3-1.1,1-1.1,1.8v1.1C9.5,8.2,2,16.7,2,27c0,0.5,0.3,0.9,0.8,1
	c0.1,0,0.1,0,0.2,0c0.4,0,0.8-0.2,0.9-0.6c2.8-6.3,8.8-10.3,15.4-10.4v1c0,0.8,0.4,1.5,1.1,1.8c0.7,0.3,1.4,0.2,2-0.2l6.7-6
	c0.5-0.4,0.8-1,0.8-1.6C30,11.4,29.7,10.8,29.3,10.4z"/>
</svg>
