<?xml version="1.0" encoding="utf-8"?>
<!-- Generator: Adobe Illustrator 23.0.3, SVG Export Plug-In . SVG Version: 6.00 Build 0)  -->
<svg version="1.1" id="Icons" xmlns="http://www.w3.org/2000/svg" xmlns:xlink="http://www.w3.org/1999/xlink" x="0px" y="0px"
	 viewBox="0 0 32 32" style="enable-background:new 0 0 32 32;" xml:space="preserve">
<style type="text/css">
	.st0{fill:none;stroke:#000000;stroke-width:2;stroke-linecap:round;stroke-linejoin:round;stroke-miterlimit:10;}
</style>
<path d="M24,16c-4.4,0-8,3.6-8,8s3.6,8,8,8s8-3.6,8-8S28.4,16,24,16z M27,25h-2v2c0,0.6-0.4,1-1,1s-1-0.4-1-1v-2h-2
	c-0.6,0-1-0.4-1-1s0.4-1,1-1h2v-2c0-0.6,0.4-1,1-1s1,0.4,1,1v2h2c0.6,0,1,0.4,1,1S27.6,25,27,25z"/>
<g>
	<circle cx="10" cy="14" r="2"/>
	<path d="M8,22h6.2c0.3-1.3,0.8-2.5,1.5-3.5l-1.7-1.3L8,20.5V22z"/>
	<path d="M24,2c-1.4,0-2.7,0.8-3.5,2H7.5C6.7,2.8,5.4,2,4,2C1.8,2,0,3.8,0,6c0,1.4,0.8,2.7,2,3.5v13.1c-1.2,0.7-2,2-2,3.5
		c0,2.2,1.8,4,4,4c1.4,0,2.7-0.8,3.5-2h7.4c-0.5-1.2-0.8-2.6-0.8-4H7c-0.6,0-1-0.4-1-1v-1.4v-2.3V9c0-0.6,0.4-1,1-1h14
		c0.6,0,1,0.4,1,1v5.2c0.6-0.1,1.3-0.2,2-0.2s1.4,0.1,2,0.2V9.5c1.2-0.7,2-2,2-3.5C28,3.8,26.2,2,24,2z"/>
</g>
</svg>
