<?xml version="1.0" encoding="utf-8"?>
<!-- Generator: Adobe Illustrator 23.0.3, SVG Export Plug-In . SVG Version: 6.00 Build 0)  -->
<svg version="1.1" id="Icons" xmlns="http://www.w3.org/2000/svg" xmlns:xlink="http://www.w3.org/1999/xlink" x="0px" y="0px"
	 viewBox="0 0 32 32" style="enable-background:new 0 0 32 32;" xml:space="preserve">
<style type="text/css">
	.st0{fill:none;stroke:#000000;stroke-width:2;stroke-linecap:round;stroke-linejoin:round;stroke-miterlimit:10;}
</style>
<g>
	<path d="M28.2,6.8l-2.9-2.9c-1.2-1.2-3.2-1.2-4.3,0l-2.3,2.3l7.3,7.3l2.3-2.3C29.4,9.9,29.4,8,28.2,6.8z"/>
	<path d="M17.2,7.6L4.8,20c-0.1,0.1-0.2,0.3-0.3,0.5L3,27.8c-0.1,0.3,0,0.7,0.3,0.9C3.5,28.9,3.7,29,4,29c0.1,0,0.1,0,0.2,0l7.3-1.5
		c0.2,0,0.4-0.1,0.5-0.3l12.4-12.4L17.2,7.6z M10.6,22.8c-0.2,0.2-0.5,0.3-0.7,0.3S9.4,23,9.2,22.8c-0.4-0.4-0.4-1,0-1.4l8.8-8.8
		c0.4-0.4,1-0.4,1.4,0s0.4,1,0,1.4L10.6,22.8z"/>
</g>
</svg>
