<?xml version="1.0" encoding="utf-8"?>
<!-- Generator: Adobe Illustrator 23.0.3, SVG Export Plug-In . SVG Version: 6.00 Build 0)  -->
<svg version="1.1" id="Icons" xmlns="http://www.w3.org/2000/svg" xmlns:xlink="http://www.w3.org/1999/xlink" x="0px" y="0px"
	 viewBox="0 0 32 32" style="enable-background:new 0 0 32 32;" xml:space="preserve">
<style type="text/css">
	.st0{fill:none;stroke:#000000;stroke-width:2;stroke-linecap:round;stroke-linejoin:round;stroke-miterlimit:10;}
</style>
<g>
	<path d="M12,16c-1.1,0-2-0.9-2-2s0.9-2,2-2s2,0.9,2,2S13.1,16,12,16z M12,14L12,14L12,14z M12,14L12,14L12,14z M12,14L12,14L12,14z
		 M12,14L12,14L12,14z M12,14L12,14L12,14z M12,14L12,14L12,14z M12,14L12,14L12,14z M12,14L12,14L12,14z"/>
</g>
<g>
	<path d="M28,22.5V9.5c1.2-0.7,2-2,2-3.5c0-2.2-1.8-4-4-4c-1.4,0-2.7,0.8-3.5,2H9.5C8.7,2.8,7.4,2,6,2C3.8,2,2,3.8,2,6
		c0,1.4,0.8,2.7,2,3.5v13.1c-1.2,0.7-2,2-2,3.5c0,2.2,1.8,4,4,4c1.4,0,2.7-0.8,3.5-2h13.1c0.7,1.2,2,2,3.5,2c2.2,0,4-1.8,4-4
		C30,24.6,29.2,23.3,28,22.5z M24,14.5v2.6V23c0,0.6-0.4,1-1,1H9c-0.6,0-1-0.4-1-1v-1.4v-2.3V9c0-0.6,0.4-1,1-1h14c0.6,0,1,0.4,1,1
		V14.5z"/>
	<path d="M20.6,19.8c-0.4,0.3-0.9,0.3-1.2,0l-3.5-2.6L10,20.5V22h12v-3.3L20.6,19.8z"/>
</g>
</svg>
