<?xml version="1.0" encoding="utf-8"?>
<!-- Generator: Adobe Illustrator 23.0.3, SVG Export Plug-In . SVG Version: 6.00 Build 0)  -->
<svg version="1.1" id="Icons" xmlns="http://www.w3.org/2000/svg" xmlns:xlink="http://www.w3.org/1999/xlink" x="0px" y="0px"
	 viewBox="0 0 32 32" style="enable-background:new 0 0 32 32;" xml:space="preserve">
<g>
	<path d="M6,4C3.8,4,2,5.8,2,8c0,1.9,1.3,3.4,3,3.9V27c0,0.6,0.4,1,1,1s1-0.4,1-1V11.9c1.7-0.4,3-2,3-3.9C10,5.8,8.2,4,6,4z"/>
	<path d="M17,16.1V5c0-0.6-0.4-1-1-1s-1,0.4-1,1v11.1c-1.7,0.4-3,2-3,3.9s1.3,3.4,3,3.9V27c0,0.6,0.4,1,1,1s1-0.4,1-1v-3.1
		c1.7-0.4,3-2,3-3.9S18.7,16.6,17,16.1z"/>
	<path d="M30,14c0-1.9-1.3-3.4-3-3.9V5c0-0.6-0.4-1-1-1s-1,0.4-1,1v5.1c-1.7,0.4-3,2-3,3.9s1.3,3.4,3,3.9V27c0,0.6,0.4,1,1,1
		s1-0.4,1-1v-9.1C28.7,17.4,30,15.9,30,14z"/>
</g>
</svg>
