<?xml version="1.0" encoding="UTF-8" standalone="no"?>
<svg
   xmlns:dc="http://purl.org/dc/elements/1.1/"
   xmlns:cc="http://creativecommons.org/ns#"
   xmlns:rdf="http://www.w3.org/1999/02/22-rdf-syntax-ns#"
   xmlns:svg="http://www.w3.org/2000/svg"
   xmlns="http://www.w3.org/2000/svg"
   xmlns:sodipodi="http://sodipodi.sourceforge.net/DTD/sodipodi-0.dtd"
   xmlns:inkscape="http://www.inkscape.org/namespaces/inkscape"
   version="1.1"
   id="Icons"
   x="0px"
   y="0px"
   viewBox="0 0 32 32"
   style="enable-background:new 0 0 32 32;"
   xml:space="preserve"
   sodipodi:docname="UIEssentials_star_outline.svg"
   inkscape:version="1.0.1 (3bc2e813f5, 2020-09-07)"><metadata
   id="metadata11"><rdf:RDF><cc:Work
       rdf:about=""><dc:format>image/svg+xml</dc:format><dc:type
         rdf:resource="http://purl.org/dc/dcmitype/StillImage" /></cc:Work></rdf:RDF></metadata><defs
   id="defs9" /><sodipodi:namedview
   pagecolor="#ffffff"
   bordercolor="#666666"
   borderopacity="1"
   objecttolerance="10"
   gridtolerance="10"
   guidetolerance="10"
   inkscape:pageopacity="0"
   inkscape:pageshadow="2"
   inkscape:window-width="1677"
   inkscape:window-height="1036"
   id="namedview7"
   showgrid="false"
   inkscape:zoom="31.5"
   inkscape:cx="16"
   inkscape:cy="16"
   inkscape:window-x="0"
   inkscape:window-y="0"
   inkscape:window-maximized="0"
   inkscape:current-layer="Icons" />
<style
   type="text/css"
   id="style2">
	.st0{fill:none;stroke:#000000;stroke-width:2;stroke-linecap:round;stroke-linejoin:round;stroke-miterlimit:10;}
</style>
<path
   style="color:#000000;font-style:normal;font-variant:normal;font-weight:normal;font-stretch:normal;font-size:medium;line-height:normal;font-family:sans-serif;font-variant-ligatures:normal;font-variant-position:normal;font-variant-caps:normal;font-variant-numeric:normal;font-variant-alternates:normal;font-variant-east-asian:normal;font-feature-settings:normal;font-variation-settings:normal;text-indent:0;text-align:start;text-decoration:none;text-decoration-line:none;text-decoration-style:solid;text-decoration-color:#000000;letter-spacing:normal;word-spacing:normal;text-transform:none;writing-mode:lr-tb;direction:ltr;text-orientation:mixed;dominant-baseline:auto;baseline-shift:baseline;text-anchor:start;white-space:normal;shape-padding:0;shape-margin:0;inline-size:0;clip-rule:nonzero;display:inline;overflow:visible;visibility:visible;isolation:auto;mix-blend-mode:normal;color-interpolation:sRGB;color-interpolation-filters:linearRGB;solid-color:#000000;solid-opacity:1;vector-effect:none;fill:#000000;fill-opacity:1;fill-rule:nonzero;stroke:none;stroke-width:2;stroke-linecap:round;stroke-linejoin:round;stroke-miterlimit:10;stroke-dasharray:none;stroke-dashoffset:0;stroke-opacity:1;color-rendering:auto;image-rendering:auto;shape-rendering:auto;text-rendering:auto;enable-background:accumulate;stop-color:#000000;stop-opacity:1;opacity:1"
   d="M 15.994141 3.0996094 A 1.0001 1.0001 0 0 0 15.048828 3.7910156 L 12.375 12 L 3.6992188 12 A 1.0001 1.0001 0 0 0 3.1132812 13.810547 L 10.125 18.884766 L 7.4472656 27.193359 A 1.0001 1.0001 0 0 0 8.9941406 28.304688 L 16 23.142578 L 23.005859 28.304688 A 1.0001 1.0001 0 0 0 24.552734 27.193359 L 21.875 18.884766 L 28.886719 13.810547 A 1.0001 1.0001 0 0 0 28.300781 12 L 19.625 12 L 16.951172 3.7910156 A 1.0001 1.0001 0 0 0 15.994141 3.0996094 z M 16 7.328125 L 17.949219 13.310547 A 1.0001 1.0001 0 0 0 18.900391 14 L 25.210938 14 L 20.113281 17.689453 A 1.0001 1.0001 0 0 0 19.748047 18.806641 L 21.697266 24.855469 L 16.59375 21.095703 A 1.0001 1.0001 0 0 0 15.40625 21.095703 L 10.302734 24.855469 L 12.251953 18.806641 A 1.0001 1.0001 0 0 0 11.886719 17.689453 L 6.7890625 14 L 13.099609 14 A 1.0001 1.0001 0 0 0 14.050781 13.310547 L 16 7.328125 z "
   id="path848" />
</svg>
