<?xml version="1.0" encoding="utf-8"?>
<!-- Generator: Adobe Illustrator 23.0.3, SVG Export Plug-In . SVG Version: 6.00 Build 0)  -->
<svg version="1.1" id="Icons" xmlns="http://www.w3.org/2000/svg" xmlns:xlink="http://www.w3.org/1999/xlink" x="0px" y="0px"
	 viewBox="0 0 32 32" style="enable-background:new 0 0 32 32;" xml:space="preserve">
<path d="M20.7,14.3c-0.4-0.4-1-0.4-1.4,0L17,16.6V3c0-0.6-0.4-1-1-1s-1,0.4-1,1v13.6l-2.3-2.3c-0.4-0.4-1-0.4-1.4,0s-0.4,1,0,1.4
	l4,4c0.1,0.1,0.2,0.2,0.3,0.2C15.7,20,15.9,20,16,20s0.3,0,0.4-0.1c0.1-0.1,0.2-0.1,0.3-0.2l4-4C21.1,15.3,21.1,14.7,20.7,14.3z"/>
<path d="M29.5,15.6l-6-3.5c-0.1,0-0.2-0.1-0.2-0.1L19,9.6v2.6c1.1-0.4,2.3-0.1,3.1,0.7c1.2,1.2,1.2,3.1,0,4.2l-4,4
	c-0.3,0.3-0.6,0.5-1,0.6C16.8,21.9,16.4,22,16,22s-0.8-0.1-1.1-0.2c-0.4-0.2-0.7-0.4-1-0.6l-4-4c-1.2-1.2-1.2-3.1,0-4.2
	c0.8-0.8,2.1-1.1,3.1-0.7V9.6l-4.3,2.5c-0.1,0-0.2,0.1-0.2,0.1l-6,3.5C2.2,15.8,2,16.1,2,16.5v0v5v0c0,0.4,0.2,0.7,0.5,0.9l6,3.5
	c0.1,0,0.2,0.1,0.2,0.1l6.8,3.9C15.7,30,15.8,30,16,30s0.3,0,0.5-0.1l6.8-3.9c0.1,0,0.2-0.1,0.2-0.1l6-3.5c0.3-0.2,0.5-0.5,0.5-0.9
	v0v-5v0C30,16.1,29.8,15.8,29.5,15.6z"/>
</svg>
