<?xml version="1.0" encoding="utf-8"?>
<!-- Generator: Adobe Illustrator 23.0.3, SVG Export Plug-In . SVG Version: 6.00 Build 0)  -->
<svg version="1.1" id="Icons" xmlns="http://www.w3.org/2000/svg" xmlns:xlink="http://www.w3.org/1999/xlink" x="0px" y="0px"
	 viewBox="0 0 32 32" style="enable-background:new 0 0 32 32;" xml:space="preserve">
<g>
	<path d="M5.7,8.5C5.2,8,4.4,8.1,4.1,8.7C2.7,10.8,2,13.4,2,16c0,3.7,1.5,7.3,4.1,9.9S12.3,30,16,30c2.6,0,5.2-0.7,7.3-2.1
		c0.5-0.3,0.6-1.1,0.2-1.6L5.7,8.5z"/>
	<path d="M26.3,23.5c0.5,0.5,1.2,0.4,1.6-0.2c1.4-2.2,2.1-4.7,2.1-7.3c0-3.7-1.5-7.3-4.1-9.9S19.7,2,16,2c-2.6,0-5.2,0.7-7.3,2.1
		C8.1,4.4,8,5.2,8.5,5.7L26.3,23.5z"/>
</g>
</svg>
