<?xml version="1.0" encoding="utf-8"?>
<!-- Generator: Adobe Illustrator 23.0.3, SVG Export Plug-In . SVG Version: 6.00 Build 0)  -->
<svg version="1.1" id="Icons" xmlns="http://www.w3.org/2000/svg" xmlns:xlink="http://www.w3.org/1999/xlink" x="0px" y="0px"
	 viewBox="0 0 32 32" style="enable-background:new 0 0 32 32;" xml:space="preserve">
<path d="M29.3,12.7c-0.1-0.4-0.5-0.7-1-0.7h-8.7L17,3.7c-0.1-0.4-0.5-0.7-1-0.7s-0.8,0.3-1,0.7L12.4,12H3.7c-0.4,0-0.8,0.3-1,0.7
	c-0.1,0.4,0,0.9,0.4,1.1l7,5.1l-2.7,8.3c-0.1,0.4,0,0.9,0.4,1.1c0.4,0.3,0.8,0.3,1.2,0l7-5.1l7,5.1c0.2,0.1,0.4,0.2,0.6,0.2
	s0.4-0.1,0.6-0.2c0.4-0.3,0.5-0.7,0.4-1.1l-2.7-8.3l7-5.1C29.2,13.6,29.4,13.1,29.3,12.7z"/>
</svg>
