<?xml version="1.0" encoding="utf-8"?>
<!-- Generator: Adobe Illustrator 23.0.3, SVG Export Plug-In . SVG Version: 6.00 Build 0)  -->
<svg version="1.1" id="Icons" xmlns="http://www.w3.org/2000/svg" xmlns:xlink="http://www.w3.org/1999/xlink" x="0px" y="0px"
	 viewBox="0 0 32 32" style="enable-background:new 0 0 32 32;" xml:space="preserve">
<style type="text/css">
	.st0{fill:none;stroke:#000000;stroke-width:2;stroke-linecap:round;stroke-linejoin:round;stroke-miterlimit:10;}
</style>
<path d="M31.7,21.9c-0.1-0.5-0.7-0.8-1.2-0.7c-0.7,0.2-1.2,0-1.3-0.2c-0.1-0.2,0-0.7,0.5-1.3c0.4-0.4,0.4-1,0-1.4
	c-1-1-2.2-1.7-3.6-2.1c-0.5-0.1-1.1,0.2-1.2,0.7c-0.2,0.7-0.6,1-0.9,1s-0.6-0.4-0.9-1c-0.2-0.5-0.7-0.8-1.2-0.7
	c-1.4,0.4-2.6,1.1-3.6,2.1c-0.4,0.4-0.4,1,0,1.4c0.5,0.5,0.6,1,0.5,1.3c-0.1,0.2-0.6,0.4-1.3,0.2c-0.5-0.1-1.1,0.2-1.2,0.7
	C16.1,22.6,16,23.3,16,24s0.1,1.4,0.3,2.1c0.1,0.5,0.7,0.8,1.2,0.7c0.7-0.2,1.2,0,1.3,0.2c0.1,0.2,0,0.7-0.5,1.3
	c-0.4,0.4-0.4,1,0,1.4c1,1,2.2,1.7,3.6,2.1c0.5,0.1,1.1-0.2,1.2-0.7c0.2-0.7,0.6-1,0.9-1s0.6,0.4,0.9,1c0.1,0.4,0.5,0.7,1,0.7
	c0.1,0,0.2,0,0.3,0c1.4-0.4,2.6-1.1,3.6-2.1c0.4-0.4,0.4-1,0-1.4c-0.5-0.5-0.6-1-0.5-1.3c0.1-0.2,0.6-0.4,1.3-0.2
	c0.5,0.1,1.1-0.2,1.2-0.7c0.2-0.7,0.3-1.4,0.3-2.1S31.9,22.6,31.7,21.9z M24,27c-1.7,0-3-1.3-3-3s1.3-3,3-3s3,1.3,3,3S25.7,27,24,27
	z"/>
<path d="M14.8,28H2.2l0.1-0.4c0.4-1.8,1.6-3.2,3.4-3.8c2-0.7,3.4-2.5,3.4-4.7c0-0.4-0.2-0.7-0.5-0.9C7,17.4,6,15.6,6,13.8v-2.3
	c2.3,2.2,5.7,3.8,9.7,4.3c-0.4,1.1-1.2,2-2.2,2.6c-0.3,0.2-0.5,0.5-0.5,0.9c0,1.2,0.4,2.3,1.2,3.1c0.7-4.1,3.8-7.3,7.8-8.1
	c0-0.1,0-0.1,0-0.2c0-7.5-4.1-12-11-12S0,6.5,0,14c0,3.2,0.8,6.8,2.1,9.9c-0.9,0.9-1.5,2.1-1.7,3.4l-0.2,0.9c-0.1,0.5,0,0.9,0.3,1.3
	C0.8,29.8,1.2,30,1.7,30H16C15.6,29.4,15.2,28.7,14.8,28z"/>
</svg>
