<?xml version="1.0" encoding="UTF-8"?>
<svg id="svg2584" width="420mm" height="200mm" version="1.1" viewBox="0 0 420 200" xmlns="http://www.w3.org/2000/svg">
 <g id="layer1">
  <g fill="#404e4d">
   <path id="rect833-7-8-0" d="m59.586 6.8605c-1.164 0-2.1012 0.93714-2.1012 2.1012v181.01c0 1.164 0.93715 2.1012 2.1012 2.1012h286.84c1.164 0 2.1012-0.93713 2.1012-2.1012v-181.01c0-1.164-0.93713-2.1012-2.1012-2.1012zm1.0346 1.0583h284.77c1.1507 0 2.0769 0.92615 2.0769 2.0769v178.94c0 1.1507-0.92615 2.0774-2.0769 2.0774h-284.77c-1.1507 0-2.0774-0.92666-2.0774-2.0774v-178.94c0-1.1507 0.92667-2.0769 2.0774-2.0769z" stroke-width=".15694"/>
   <rect id="rect894-9" x="57.486" y="131.48" width="290.51" height="1.0583" ry=".1175" stroke-width=".25538"/>
   <g stroke-width=".2704">
    <rect id="rect938-8" x="115.24" y="7.7107" width="1.0583" height="124.35" ry="0"/>
    <rect id="rect938-1-9" x="289.34" y="7.5217" width="1.0583" height="124.35" ry="0"/>
    <rect id="rect938-19-7" x="173.27" y="7.5217" width="1.0583" height="124.35" ry="0"/>
    <rect id="rect938-9-7" x="231.3" y="7.5217" width="1.0583" height="124.35" ry="0"/>
   </g>
   <rect id="rect938-6-9" x="232.07" y="69.132" width="58.208" height="1.0583" ry="0" stroke-width=".185"/>
   <rect id="rect938-6-2-3" x="115.43" y="69.132" width="58.208" height="1.0583" ry="0" stroke-width=".185"/>
  </g>
  <g fill="#738c8a">
   <rect id="rect938-6-23-00" x="63.344" y="12.965" width="34.279" height="4.2333" ry="0" stroke-width=".28394"/>
   <rect id="rect938-6-23-9-8-2" x="177.87" y="12.965" width="37.151" height="4.2333" ry="0" stroke-width=".2956"/>
   <rect id="rect938-6-23-6-7" x="121.27" y="12.965" width="31.873" height="4.2333" ry="0" stroke-width=".27379"/>
   <rect id="rect938-6-23-0-5" x="120.51" y="76.465" width="30.804" height="4.2333" ry="0" stroke-width=".26916"/>
   <rect id="rect938-6-23-9-8-1-8" x="237.4" y="12.965" width="31.271" height="4.2333" ry="0" stroke-width=".2712"/>
   <rect id="rect938-6-23-9-8-0-07" x="294.67" y="12.965" width="37.686" height="4.2333" ry="0" stroke-width=".29771"/>
   <rect id="rect938-6-23-9-8-3-3" x="237.59" y="76.465" width="30.994" height="4.2333" ry="0" stroke-width=".26999"/>
  </g>
  <g>
   <rect id="rect938-19-8-5" x="202.1" y="132.06" width="1.0583" height="59.872" ry="0" fill="#404e4d" stroke-width=".18762"/>
   <rect id="rect938-6-23-9-8-3-2-5" x="209.05" y="138.45" width="34.201" height="4.2333" ry="0" fill="#738c8a" stroke-width=".28362"/>
   <rect id="rect938-6-23-0-6-1" x="63.627" y="138.45" width="34.546" height="4.2333" ry="0" fill="#738c8a" stroke-width=".28504"/>
  </g>
  <g fill="#f0b83e" stroke-width=".26458">
   <rect id="rect1417" x="72.044" y="29.44" width="26.727" height="24.589" ry=".1175" opacity=".5"/>
   <rect id="rect1417-6" x="70.975" y="64.72" width="26.727" height="24.589" ry=".1175" opacity=".5"/>
   <rect id="rect1417-0" x="127.1" y="31.044" width="26.727" height="24.589" ry=".1175" opacity=".5"/>
   <rect id="rect1417-9" x="133.52" y="94.654" width="26.727" height="24.589" ry=".1175" opacity=".5"/>
   <rect id="rect1417-16" x="187.5" y="32.113" width="26.727" height="24.589" ry=".1175" opacity=".5"/>
   <rect id="rect1417-11" x="185.9" y="68.461" width="26.727" height="24.589" ry=".1175" opacity=".5"/>
   <rect id="rect1417-2" x="241.49" y="33.716" width="26.727" height="24.589" ry=".1175" opacity=".5"/>
   <rect id="rect1417-7" x="247.91" y="94.654" width="26.727" height="24.589" ry=".1175" opacity=".5"/>
   <rect id="rect1417-03" x="307.24" y="31.578" width="26.727" height="24.589" ry=".1175" opacity=".5"/>
   <rect id="rect1417-91" x="305.64" y="74.341" width="26.727" height="24.589" ry=".1175" opacity=".5"/>
   <rect id="rect1417-3" x="224.39" y="155.59" width="26.727" height="24.589" ry=".1175" opacity=".5"/>
   <rect id="rect1417-65" x="264.48" y="153.99" width="26.727" height="24.589" ry=".1175" opacity=".5"/>
   <rect id="rect1417-1" x="77.924" y="155.59" width="26.727" height="24.589" ry=".1175" opacity=".5"/>
   <rect id="rect1417-162" x="120.69" y="155.59" width="26.727" height="24.589" ry=".1175" opacity=".5"/>
  </g>
  <path id="path1537" class="cls-6" d="m378.44 96.197v11.181h27.154v-9.1969h8.9958v-11.176h-27.165v9.1943zm34.055-0.10318h-22.979v-7.0009h22.979zm-31.964 2.1934h22.979v7.0009h-22.979z" fill="#24bacc" opacity=".2" stroke-width=".26458"/>
  <path id="path1539" class="cls-6" d="m3.5841 86.344v11.181h27.154v-9.1969h8.9958v-11.176h-27.165v9.1943zm34.055-0.10319h-22.979v-7.0009h22.979zm-31.964 2.1934h22.979v7.0009h-22.979z" fill="#24bacc" opacity=".2" stroke-width=".26458"/>
  <g stroke-width=".17933">
   <path id="path1541" class="cls-7" d="m381.96 181.52h-2.9405v-3.609h2.9405a2.7623 2.797 0 0 0 0-5.5939h-0.0891v-3.609h0.0891a6.3265 6.4059 0 0 1 0 12.812z" fill="#19a5af"/>
   <path id="path1543" class="cls-7" d="m362.2 163.29h19.737a0.81799 0.82826 0 0 1 0.81801 0.82825v20.661a3.9028 3.9518 0 0 1-3.9028 3.9536h-13.562a3.9028 3.9518 0 0 1-3.9028-3.9518v-20.665a0.81799 0.82826 0 0 1 0.81798-0.82825z" fill="#19a5af"/>
   <path id="path1545" class="cls-8" d="m382.76 181.45v3.2481c0 2.9305-2.3471 4.2243-5.2412 4.2243l-12.138-0.18047c-2.3078 0-3.8939-0.90223-3.8939-3.609 2.2045 0.22559 13.432 3.6054 21.273-3.6829z" fill="#eba42c" opacity=".4"/>
   <path id="path1547" class="cls-9" d="m382.76 164.12a0.81977 0.83006 0 0 0-0.81979-0.82645h-19.737a0.81799 0.82826 0 0 0-0.81799 0.82825v1.698h2.4184a1.415 1.4328 0 0 0-0.4295 0.99248c0 1.0033 1.178 1.8171 2.6322 1.8171s2.6322-0.8138 2.6322-1.8171a1.415 1.4328 0 0 0-0.4295-0.99248h14.551z" fill="#d38a20" opacity=".2"/>
  </g>
  <ellipse id="ellipse1549" class="cls-9" transform="matrix(.93445 -.35609 .34839 .93735 0 0)" cx="285.48" cy="289.42" rx="1.222" ry=".84146" fill="#d38a20" opacity=".2" stroke-width=".1782"/>
  <g stroke-width=".10035">
   <path id="path1679" class="cls-38" d="m410.82 197.25h-81.528c-1.572 0-2.846-0.87157-2.846-5.9548h87.22c0 5.0814-1.274 5.9548-2.846 5.9548z" fill="#e7a56b"/>
   <path id="path1681" class="cls-39" d="m326.45 192.01h87.22a1.0603 3.4285 0 0 1-1.0603 3.4285h-85.1a1.0603 3.4285 0 0 1-1.0603-3.4285z" fill="#c8935f" opacity=".7"/>
   <rect id="rect1683" class="cls-38" x="324.77" y="188.76" width="90.401" height="3.2481" rx=".50223" ry="1.624" fill="#e7a56b"/>
  </g>
  <g fill="#c8935f" stroke-width=".10035">
   <path id="path1685" class="cls-40" d="m415.21 191.12c-0.0687 0.50885-0.33483 0.88961-0.65236 0.88961h-89.174c-0.3683 0-0.55803-0.5161-0.55803-1.1459v-0.95456c0-0.54134 0.2232-0.99968 0.51954-1.117a0.19754 0.63879 0 0 0-0.0172 0.25623v0.95456c0 0.62979 0.30133 1.1459 0.66963 1.1459h89.062a1.236 3.9969 0 0 0 0.15013-0.0289z"/>
   <path id="path1687" class="cls-40" d="m330.21 189.78a26.494 85.673 0 0 0 2.6624 0.41682c0.34152 0 0.6183-0.0161 0.80915-0.0236 0.19084-7e-3 0.29744 0 0.298 0.0307 0 0.0307-0.10436 0.0848-0.2952 0.14796-0.19084 0.0632-0.46765 0.12814-0.81026 0.16962a19.686 63.659 0 0 1-2.6786-0.28329l-0.75724-0.25445c-0.24498-0.092-0.47993-0.14975-0.7048-0.18044-0.44979-0.0794-0.85547-0.0812-1.1964-0.0505-0.68193 0.065-1.1027 0.22736-1.1055 0.15518 0-0.0289 0.10213-0.11007 0.29186-0.20392 0.18974-0.0938 0.46541-0.20571 0.8086-0.27609a11.658 37.697 0 0 1 1.207-0.0487c0.22711 0.0289 0.46595 0.0776 0.71093 0.1642z"/>
   <path id="path1689" class="cls-40" d="m338.53 189.78a26.494 85.673 0 0 0 2.6624 0.41682c0.34149 0 0.6183-0.0161 0.80915-0.0236 0.19084-7e-3 0.29741 0 0.29797 0.0307 0 0.0307-0.10435 0.0848-0.2952 0.14796-0.19084 0.0632-0.46762 0.12814-0.81026 0.16962a19.686 63.659 0 0 1-2.6785-0.28329l-0.75727-0.25624c-0.24497-0.092-0.4799-0.14978-0.70479-0.18045-0.44977-0.0794-0.85545-0.0812-1.1964-0.0505-0.68191 0.065-1.1027 0.22739-1.1055 0.15521 0-0.0289 0.10213-0.11009 0.29184-0.20392 0.18973-0.0938 0.4654-0.20571 0.80859-0.27609a11.658 37.697 0 0 1 1.207-0.0487c0.22712 0.0289 0.46596 0.0776 0.71094 0.1642z"/>
   <path id="path1691" class="cls-40" d="m367.82 189.78a26.494 85.673 0 0 0 2.6624 0.41682c0.3415 0 0.61831-0.0161 0.80915-0.0236 0.19085-7e-3 0.29742 0 0.29798 0.0307 0 0.0307-0.10435 0.0848-0.2952 0.14796-0.19084 0.0632-0.46762 0.12814-0.81026 0.16962a19.686 63.659 0 0 1-2.6786-0.28329l-0.75724-0.25624c-0.24498-0.092-0.4799-0.14978-0.7048-0.18045-0.44976-0.0794-0.85545-0.0812-1.1964-0.0505-0.68192 0.065-1.1027 0.22739-1.1055 0.15521 0-0.0289 0.1021-0.11009 0.29184-0.20392 0.18973-0.0938 0.4654-0.20571 0.80859-0.27609a11.658 37.697 0 0 1 1.207-0.0487c0.22712 0.0289 0.46596 0.0776 0.71093 0.1642z"/>
   <path id="path1693" class="cls-40" d="m386.74 189.78a26.494 85.673 0 0 0 2.6624 0.41682c0.3415 0 0.61828-0.0161 0.80915-0.0236 0.19084-7e-3 0.29742 0 0.29797 0.0307 0 0.0307-0.10435 0.0848-0.29519 0.14796-0.19085 0.0632-0.46763 0.12814-0.81026 0.16962a19.686 63.659 0 0 1-2.6786-0.28329l-0.75723-0.25624c-0.24498-0.092-0.4799-0.14978-0.7048-0.18045-0.44977-0.0794-0.85548-0.0812-1.1964-0.0505-0.68191 0.065-1.1027 0.22739-1.1055 0.15521 0-0.0289 0.10211-0.11009 0.29184-0.20392 0.18973-0.0938 0.4654-0.20571 0.80859-0.27609a11.658 37.697 0 0 1 1.207-0.0487c0.22712 0.0289 0.46596 0.0776 0.71094 0.1642z"/>
   <path id="path1695" class="cls-40" d="m392.15 190.37a15.919 51.477 0 0 0 1.5854 0.73986c0.20423 0.0632 0.36997 0.10464 0.48437 0.13533a0.7472 2.4162 0 0 1 0.17801 0.074 0.70256 2.2718 0 0 1-0.17912 0.0343c-0.11552 0-0.28181-0.0108-0.48773-0.0487a11.83 38.255 0 0 1-1.5971-0.66405l-0.44643-0.29231c-0.14454-0.10104-0.28406-0.18044-0.41796-0.2436-0.26731-0.12994-0.51004-0.20751-0.71486-0.25083-0.40901-0.0866-0.66349-0.0668-0.66405-0.11189a0.66964 2.1654 0 0 1 0.17857-0.0686c0.11496-0.0217 0.28236-0.0379 0.48829-0.0161a7.0044 22.65 0 0 1 0.72543 0.19307c0.13505 0.0596 0.27901 0.13173 0.42244 0.22918z"/>
   <path id="path1697" class="cls-40" d="m373.12 190.37a15.919 51.477 0 0 0 1.5854 0.73986c0.20423 0.0632 0.36997 0.10464 0.48438 0.13533a0.7472 2.4162 0 0 1 0.17801 0.074 0.70256 2.2718 0 0 1-0.17915 0.0343c-0.11549 0-0.28181-0.0108-0.48771-0.0487a11.83 38.255 0 0 1-1.5971-0.66405l-0.44641-0.29231c-0.14454-0.10104-0.28405-0.18044-0.41796-0.2436-0.26731-0.12994-0.51006-0.20751-0.71485-0.25083-0.40905-0.0866-0.6635-0.0668-0.66405-0.11189a0.66964 2.1654 0 0 1 0.17856-0.0686c0.11497-0.0217 0.28237-0.0379 0.48829-0.0161a7.0044 22.65 0 0 1 0.72544 0.19307c0.13504 0.0596 0.279 0.13173 0.42243 0.22918z"/>
   <path id="path1699" class="cls-40" d="m344 190.37a15.919 51.477 0 0 0 1.5854 0.73986c0.20423 0.0632 0.36996 0.10464 0.48437 0.13533a0.7472 2.4162 0 0 1 0.17801 0.074 0.70256 2.2718 0 0 1-0.17912 0.0343c-0.11552 0-0.28181-0.0108-0.48773-0.0487a11.83 38.255 0 0 1-1.5971-0.66405l-0.44643-0.29231c-0.14452-0.10104-0.28403-0.18044-0.41797-0.2436-0.26728-0.12994-0.51003-0.20751-0.71482-0.25083-0.40905-0.0866-0.66352-0.0668-0.66408-0.11189a0.66964 2.1654 0 0 1 0.17857-0.0686c0.11496-0.0217 0.28236-0.0379 0.48829-0.0161a7.0044 22.65 0 0 1 0.72543 0.19307c0.13505 0.0596 0.27903 0.13173 0.42244 0.22918z"/>
   <path id="path1701" class="cls-40" d="m402.81 190.37a15.919 51.477 0 0 0 1.5854 0.73986c0.20424 0.0632 0.37 0.10464 0.48438 0.13533a0.7472 2.4162 0 0 1 0.17801 0.074 0.70256 2.2718 0 0 1-0.17912 0.0343c-0.11552 0-0.28181-0.0108-0.48771-0.0487a11.83 38.255 0 0 1-1.5971-0.66405l-0.44644-0.29231c-0.14451-0.10104-0.28403-0.18044-0.41796-0.2436-0.26728-0.12994-0.51004-0.20751-0.71482-0.25083-0.40905-0.0866-0.6635-0.0668-0.66405-0.11189a0.66964 2.1654 0 0 1 0.17856-0.0686c0.11494-0.0217 0.28237-0.0379 0.48826-0.0161a7.0044 22.65 0 0 1 0.72544 0.19307c0.13504 0.0596 0.27903 0.13173 0.42243 0.22918z"/>
   <path id="path1703" class="cls-40" d="m404.1 190.37a15.919 51.477 0 0 0 1.5854 0.73986c0.20423 0.0632 0.36997 0.10464 0.48437 0.13533a0.7472 2.4162 0 0 1 0.17799 0.074 0.70256 2.2718 0 0 1-0.17913 0.0343c-0.11549 0-0.2818-0.0108-0.4877-0.0487a11.83 38.255 0 0 1-1.5971-0.66405l-0.4464-0.29231c-0.14454-0.10104-0.28406-0.18044-0.41796-0.2436-0.26731-0.12994-0.51007-0.20751-0.71486-0.25083-0.40904-0.0866-0.66349-0.0668-0.66405-0.11189a0.66964 2.1654 0 0 1 0.17857-0.0686c0.11496-0.0217 0.28236-0.0379 0.48826-0.0161a7.0044 22.65 0 0 1 0.72546 0.19307c0.13505 0.0596 0.27901 0.13173 0.42244 0.22918z"/>
   <path id="path1705" class="cls-40" d="m396.67 189.78a26.494 85.673 0 0 0 2.6624 0.41682c0.34152 0 0.61831-0.0161 0.80915-0.0236 0.19084-7e-3 0.29742 0 0.29797 0.0307 0 0.0307-0.10435 0.0848-0.29519 0.14796-0.19085 0.0632-0.46763 0.12814-0.81026 0.16962a19.686 63.659 0 0 1-2.6785-0.28329l-0.75726-0.25624c-0.24498-0.092-0.4799-0.14978-0.7048-0.18045-0.44976-0.0794-0.85545-0.0812-1.1964-0.0505-0.68191 0.065-1.1027 0.22739-1.1054 0.15521 0-0.0289 0.10212-0.11009 0.29186-0.20392 0.18973-0.0938 0.46537-0.20571 0.80856-0.27609a11.658 37.697 0 0 1 1.207-0.0487c0.22712 0.0289 0.46596 0.0776 0.71094 0.1642z"/>
   <path id="path1707" class="cls-40" d="m396.67 189.78a26.494 85.673 0 0 0 2.6624 0.41682c0.34152 0 0.61831-0.0161 0.80915-0.0236 0.19084-7e-3 0.29742 0 0.29797 0.0307 0 0.0307-0.10435 0.0848-0.29519 0.14796-0.19085 0.0632-0.46763 0.12814-0.81026 0.16962a19.686 63.659 0 0 1-2.6785-0.28329l-0.75726-0.25624c-0.24498-0.092-0.4799-0.14978-0.7048-0.18045-0.44976-0.0794-0.85545-0.0812-1.1964-0.0505-0.68191 0.065-1.1027 0.22739-1.1054 0.15521 0-0.0289 0.10212-0.11009 0.29186-0.20392 0.1897-0.0938 0.46537-0.20571 0.80856-0.27609a11.658 37.697 0 0 1 1.207-0.0487c0.22712 0.0289 0.46596 0.0776 0.71094 0.1642z"/>
   <path id="path1709" class="cls-40" d="m410.29 189.78a26.494 85.673 0 0 0 2.6624 0.41682c0.3415 0 0.61828-0.0161 0.80912-0.0236 0.19087-7e-3 0.29745 0 0.298 0.0307 0 0.0307-0.10435 0.0848-0.29519 0.14796-0.19085 0.0632-0.46763 0.12814-0.81026 0.16962a19.686 63.659 0 0 1-2.6786-0.28329l-0.75723-0.25624c-0.24498-0.092-0.47993-0.14978-0.7048-0.18045-0.44977-0.0794-0.85548-0.0812-1.1964-0.0505-0.68191 0.065-1.1027 0.22739-1.1055 0.15521 0-0.0289 0.10211-0.11009 0.29184-0.20392 0.18973-0.0938 0.4654-0.20571 0.80859-0.27609a11.658 37.697 0 0 1 1.207-0.0487c0.22712 0.0289 0.46596 0.0776 0.71094 0.1642z"/>
   <path id="path1711" class="cls-40" d="m377.14 189.78a26.494 85.673 0 0 0 2.6624 0.41682c0.34153 0 0.61831-0.0161 0.80915-0.0236 0.19085-7e-3 0.29742 0 0.29797 0.0307 0 0.0307-0.10435 0.0848-0.29519 0.14796-0.19084 0.0632-0.46763 0.12814-0.81026 0.16962a19.686 63.659 0 0 1-2.6785-0.28329l-0.75726-0.25624c-0.24498-0.092-0.4799-0.14978-0.7048-0.18045-0.44976-0.0794-0.85545-0.0812-1.1964-0.0505-0.68191 0.065-1.1027 0.22739-1.1054 0.15521 0-0.0289 0.10213-0.11009 0.29183-0.20392 0.18974-0.0938 0.4654-0.20571 0.8086-0.27609a11.658 37.697 0 0 1 1.207-0.0487c0.22711 0.0289 0.46595 0.0776 0.71093 0.1642z"/>
   <path id="path1713" class="cls-40" d="m348.57 189.78a26.494 85.673 0 0 0 2.6624 0.41682c0.34152 0 0.6183-0.0161 0.80915-0.0236 0.19084-7e-3 0.29744 0 0.298 0.0307 0 0.0307-0.10435 0.0848-0.2952 0.14796-0.19084 0.0632-0.46765 0.12814-0.81026 0.16962a19.686 63.659 0 0 1-2.6786-0.28329l-0.75726-0.25624c-0.24495-0.092-0.4799-0.14978-0.70477-0.18045-0.4498-0.0794-0.85548-0.0812-1.1964-0.0505-0.68191 0.065-1.1026 0.22739-1.1055 0.15521 0-0.0289 0.10213-0.11009 0.29187-0.20392 0.18973-0.0938 0.4654-0.20571 0.80859-0.27609a11.658 37.697 0 0 1 1.207-0.0487c0.22712 0.0289 0.46593 0.0776 0.71091 0.1642z"/>
  </g>
  <g id="g1723" class="cls-41" transform="matrix(.17821 0 0 .18045 328.05 62.783)" opacity=".2">
   <path id="path1715" class="cls-42" d="m238 506.61c2.38-5.66 4.21-11 4.37-16a32.72 32.72 0 0 0-2.48-13.08c-1.41-3.69-2.86-6.64-3.75-8.75s-1.29-3.36-1-3.54 1.25 0.71 2.69 2.52a53.15 53.15 0 0 1 5.34 8.3 38.9 38.9 0 0 1 2.65 6.48 28.82 28.82 0 0 1 1.24 8.15 34.06 34.06 0 0 1-1.23 9 70.86 70.86 0 0 1-3.12 8.85c-1.2 2.91-2.43 5.67-3.49 8.33-0.53 1.33-1 2.63-1.44 3.91l-0.55 1.85-0.43 1.85a29.28 29.28 0 0 0 0.28 13.17 19.4 19.4 0 0 0 2 4.58c0.42 0.59 0.81 1.17 1.22 1.65s0.8 0.93 1.21 1.27 0.76 0.66 1.08 0.95 0.63 0.45 0.86 0.65c0.46 0.38 0.7 0.67 0.64 0.84s-0.41 0.2-1 0.11a9 9 0 0 1-1.17-0.26c-0.43-0.17-0.93-0.39-1.5-0.66a14.39 14.39 0 0 1-1.74-1.12 18.14 18.14 0 0 1-1.81-1.69 19 19 0 0 1-3.14-5.12 29.61 29.61 0 0 1-1.51-15.16c0.11-0.71 0.26-1.43 0.4-2.16s0.37-1.45 0.56-2.19q0.64-2.13 1.42-4.25c1.05-2.83 2.26-5.64 3.4-8.48z"/>
   <path id="path1717" class="cls-42" d="m254.09 522.29c0.93-3.72 2.09-7 2.92-10a48.16 48.16 0 0 0 1.62-7.9c0.51-4.51-0.29-7.37 0.41-7.67 0.3-0.13 1 0.43 1.64 1.73a16 16 0 0 1 1.56 6 32.75 32.75 0 0 1-0.65 9c-0.64 3.28-1.67 6.68-2.54 10.15a37.11 37.11 0 0 0-1.35 9.55 19.57 19.57 0 0 0 1.59 7.37c1.74 4 4.4 5.48 4.07 6.19-0.07 0.16-0.31 0.23-0.72 0.21a5 5 0 0 1-1.68-0.44 11.73 11.73 0 0 1-4.8-4.16 19.1 19.1 0 0 1-3.16-8.86 32.64 32.64 0 0 1 1.09-11.17z"/>
   <ellipse id="ellipse1719" class="cls-42" cx="224.5" cy="533.49" rx="2.55" ry=".5"/>
   <path id="path1721" class="cls-42" d="m223.25 493.63a82.08 82.08 0 0 0 0.4-13.7 47.42 47.42 0 0 0-1.9-10.86c-1.84-6-4.43-9.22-3.81-9.76 0.24-0.22 1.21 0.3 2.6 1.66a23.64 23.64 0 0 1 4.59 6.8 39.14 39.14 0 0 1 3.21 11.71 65.11 65.11 0 0 1 0 14.69c-0.56 5.12-1.42 9.87-2.17 14.15s-1.39 8.09-1.78 11.3c-0.84 6.42-0.79 10.48-1.53 10.58s-2-4-2.07-10.78a92.38 92.38 0 0 1 0.73-11.77c0.48-4.38 1.2-9.11 1.73-14.02z"/>
  </g>
  <g stroke-width=".34875">
   <line id="line2067" class="cls-1" x1="92.839" x2="86.29" y1="183.36" y2="183.36" fill="#fff"/>
   <path id="path2069" class="cls-1" d="m82.736 149.32h0.94433a7.1545 6.6983 0 0 1 7.1545 6.6916v24.387h-8.0989z" fill="#fff"/>
   <rect id="rect2071" class="cls-2" x="84.044" y="149.44" width="2.0256" height="31.44" fill="#dbcec8"/>
   <path id="path2073" class="cls-3" d="m83.943 180.7v6.3305h0.15859c3.5322 0 6.394-2.8346 6.394-6.3305z" fill="#fdd2bf"/>
   <path id="path2075" class="cls-4" d="m85.857 181.03v6.1651a5.9615 5.5814 0 0 1-1.4417 0.16535h-0.15499v-6.3305z" fill="#e8af94"/>
  </g>
  <g fill="#3e3127" stroke-width=".34875">
   <rect id="rect2077" class="cls-5" x="89.955" y="160.98" width="1.0813" height="1.1811"/>
   <rect id="rect2079" class="cls-5" x="89.955" y="164.2" width="1.0813" height="2.848"/>
   <rect id="rect2081" class="cls-5" x="89.955" y="169.08" width="1.0813" height="1.1811"/>
   <path id="path2083" class="cls-5" d="m84.199 187.82h-0.15499v-1.3498h0.15499c3.1285 0 5.6768-2.5376 5.6768-5.6556v-9.958h1.4417v9.9479c-7e-3 3.8874-3.1934 7.0155-7.1185 7.0155z"/>
   <path id="path2085" class="cls-5" d="m91.31 160.24h-1.4417v-4.4678c0-3.118-2.5482-5.6556-5.6768-5.6556h-0.15499v-1.3498h0.15499c3.9251 0 7.1185 3.1416 7.1185 7.0054z"/>
   <rect id="rect2087" class="cls-5" x="84.044" y="180.14" width="6.549" height="1.3498"/>
  </g>
  <g stroke-width=".34875">
   <path id="path2089" class="cls-1" d="m50.888 179.63h-7.5474v-22.754a6.6716 6.2461 0 0 1 6.668-6.2461h0.87945z" fill="#fff"/>
   <path id="path2091" class="cls-3" d="m49.194 179.67v5.9019h-0.14778c-3.2943 0-5.9651-2.6422-5.9651-5.9019z" fill="#fdd2bf"/>
   <path id="path2093" class="cls-5" d="m49.191 186.46h-0.14417c-3.6836 0-6.6824-2.9493-6.6824-6.5768v-6.1921h0.0288c-0.0973-0.82675-0.0829-3.3171-0.0288-11.79v-5.362c0-3.6276 2.9988-6.5802 6.6824-6.5802h0.14417v1.3498h-0.14417c-2.8834 0-5.2406 2.3452-5.2406 5.2304v5.3654c-0.0252 4.1168-0.0505 10.231 0 11.49v6.4891c0 2.8818 2.35 5.227 5.2406 5.227h0.14417z" fill="#3e3127"/>
   <rect id="rect2095" class="cls-5" x="43.085" y="179.2" width="6.1093" height="1.3498" fill="#3e3127"/>
   <rect id="rect2097" class="cls-6" transform="matrix(.99999 -.0052289 .0059654 .99998 0 0)" x="50.588" y="146.8" width="29.498" height="41.725" fill="#24bacc"/>
  </g>
  <g fill="#19a5af" stroke-width=".34875">
   <ellipse id="circle2099" class="cls-7" cx="67.742" cy="170.71" rx="3.0925" ry="2.8953"/>
   <ellipse id="circle2101" class="cls-7" cx="63.774" cy="166.39" rx="1.3768" ry="1.289"/>
   <ellipse id="ellipse2103" class="cls-7" cx="65.154" cy="175.67" rx="1.211" ry="1.4679"/>
  </g>
  <g fill="#eba42c" stroke-width=".34875">
   <rect id="rect2105" class="cls-8" transform="matrix(.99999 -.0052289 .0059654 .99998 0 0)" x="53.997" y="190.81" width="22.797" height="3.0505"/>
   <rect id="rect2107" class="cls-8" x="55.152" y="190.19" width="22.797" height="3.0505"/>
   <rect id="rect2109" class="cls-8" x="54.813" y="190.67" width="22.797" height="2.5106"/>
  </g>
  <rect id="rect2111" class="cls-9" x="54.813" y="188.9" width="22.797" height="1.7716" fill="#d38a20" stroke-width=".34875"/>
  <g fill="#3e3127" stroke-width=".34875">
   <rect id="rect2113" class="cls-5" x="54.939" y="188.03" width="23.093" height="1.3498"/>
   <rect id="rect2115" class="cls-5" x="54.813" y="192.89" width="23.349" height="1.3498"/>
   <rect id="rect2117" class="cls-5" x="62.249" y="189.22" width="1.4417" height="4.9031"/>
   <rect id="rect2119" class="cls-5" x="68.556" y="188.83" width="1.4417" height="5.2844"/>
   <ellipse id="circle2121" class="cls-5" cx="66.816" cy="191.33" rx=".54425" ry=".50954"/>
  </g>
  <g stroke-width=".34875">
   <path id="path2123" class="cls-1" d="m55.354 195.09h-4.4477a1.1894 1.1136 0 0 1-1.1894-1.1136v-42.69a6.895 6.4553 0 0 1 6.895-6.4553h1.1786v47.917a2.4329 2.2778 0 0 1-2.4365 2.3419z" fill="#fff"/>
   <path id="path2125" class="cls-7" d="m79.416 188.23a12.139 11.365 0 0 1-12.136-11.362l-1.1318-27.836 13.03-2.7873z" fill="#19a5af"/>
   <path id="path2127" class="cls-3" d="m60.184 117.04h13.783v24.202a6.0877 5.6995 0 0 1-6.0841 5.6995h-1.6039a6.0877 5.6995 0 0 1-6.0877-5.6995v-24.202z" fill="#fdd2bf"/>
   <path id="path2129" class="cls-4" d="m74.655 132.72v3.8806a37.052 34.689 0 0 1-13.783 0.25984v-3.8739a36.847 34.497 0 0 0 13.783-0.25983z" fill="#e8af94"/>
   <path id="path2131" class="cls-5" d="m67.883 147.8h-1.6039a6.9959 6.5498 0 0 1-6.9887-6.5431v-25.045h15.585v25.045a6.9996 6.5532 0 0 1-6.9923 6.5431zm-6.7905-29.901v23.358a5.1938 4.8626 0 0 0 5.1866 4.8558h1.6039a5.1938 4.8626 0 0 0 5.1902-4.8558v-23.358z" fill="#3e3127"/>
   <path id="path2133" class="cls-5" d="m55.224 195.92h-4.4477a1.9067 1.7851 0 0 1-1.9067-1.7885v-42.68a7.6267 7.1404 0 0 1 7.6159-7.1336h1.8923v1.0866c0 4.2923 0.018 7.7613 0.0324 10.92 0.0288 5.9391 0.0505 10.63-0.0324 17.453v19.143a3.1502 2.9493 0 0 1-3.1538 2.9999zm1.2615-50.252a6.1814 5.7872 0 0 0-6.1742 5.7838v42.69a0.46856 0.43868 0 0 0 0.46495 0.43868h4.4477a1.7048 1.5961 0 0 0 1.712-1.6366v-19.167c0.0829-6.8164 0.0613-11.504 0.0324-17.436 0-3.0876-0.0288-6.4857-0.0324-10.663z" fill="#3e3127"/>
   <path id="path2135" class="cls-6" d="m76.727 144.83c0 2.514-4.4153 4.5488-9.8686 4.5488-5.4533 0-9.8614-2.0247-9.8614-4.5488 0-1.1406 0.91189-2.1833 2.4221-2.9796 1.8022 0.95835 4.4765 1.5624 7.4393 1.5624 2.9627 0 5.6371-0.60403 7.4429-1.5624 1.5102 0.79638 2.4257 1.8391 2.4257 2.9796z" fill="#24bacc"/>
   <path id="path2137" class="cls-7" d="m76.893 144.48c0 2.514-4.4189 4.5488-9.8686 4.5488-0.36043 0-0.72086 0-1.0561-0.0304a1.5967 1.4949 0 0 1 0.0433-0.30032 2.3716 2.2204 0 0 1 1.2543-1.3768 8.07 7.5554 0 0 1 1.8959-0.56354 10.838 10.147 0 0 0 3.0348-1.0123 4.4153 4.1337 0 0 0 2.0472-2.2609 3.7196 3.4824 0 0 0 0-1.8694l0.20544-0.10461c1.5138 0.78625 2.4437 1.829 2.4437 2.9695z" fill="#19a5af"/>
   <path id="path2139" class="cls-5" d="m66.992 149.88c-5.9327 0-10.582-2.2946-10.582-5.2237 0-1.3498 0.99118-2.6186 2.7897-3.5668l0.36044-0.1856 0.36042 0.1856c1.7661 0.9381 4.3504 1.4746 7.0825 1.4746s5.3236-0.53654 7.086-1.4746l0.36043-0.1856 0.36043 0.1856c1.8022 0.94822 2.7969 2.2136 2.7969 3.5668-0.0252 2.9189-4.6784 5.2237-10.615 5.2237zm-7.4212-7.4238c-1.1101 0.67489-1.7192 1.4341-1.7192 2.2035 0 1.8728 3.6728 3.8739 9.1405 3.8739 5.4677 0 9.1477-2.001 9.1477-3.8739 0-0.76938-0.60913-1.5421-1.7229-2.2035-1.9499 0.93135-4.6243 1.4611-7.4249 1.4611-2.8005 0-5.4677-0.53316-7.4212-1.4645z" fill="#3e3127"/>
   <path id="path2141" class="cls-1" d="m78.771 194.3h4.4477a1.1858 1.1102 0 0 0 1.1858-1.1102v-42.684a6.8914 6.452 0 0 0-6.895-6.4553l-0.32438 21.003-0.84701 26.921a2.4293 2.2744 0 0 0 2.4329 2.325z" fill="#fff"/>
  </g>
  <g fill="#dbcec8" stroke-width=".34875">
   <path id="path2143" class="cls-2" d="m83.68 187.25v5.4362a1.1894 1.1136 0 0 1-1.1894 1.1136h-4.4513a2.4041 2.2508 0 0 1-1.9283-0.8976 8.6503 8.0987 0 0 0 7.569-5.6522z"/>
   <ellipse id="circle2145" class="cls-2" cx="80.822" cy="190.16" rx="1.2146" ry="1.1372"/>
   <ellipse id="circle2147" class="cls-2" cx="79.265" cy="188.46" rx=".54065" ry=".50617"/>
  </g>
  <g stroke-width=".34875">
   <path id="path2149" class="cls-5" d="m82.869 194.98h-4.4477a3.1502 2.9493 0 0 1-3.1538-3.0168l0.99479-38.314 0.18742-10.258h0.72086a7.6267 7.1404 0 0 1 7.6159 7.1302v42.67a1.9103 1.7885 0 0 1-1.9175 1.7885zm-6.1598-2.9864a1.712 1.6029 0 0 0 1.712 1.6366h4.4477a0.46856 0.43868 0 0 0 0.46496-0.43868v-42.684a6.185 5.7906 0 0 0-5.4677-5.7366l-0.1658 8.9018z" fill="#3e3127"/>
   <ellipse id="circle2151" class="cls-10" cx="40.724" cy="108.57" rx="23.237" ry="21.755" fill="#f65143"/>
   <path id="path2153" class="cls-1" d="m43.107 129.82c-0.54785 0.0405-1.1029 0.0574-1.6652 0.0574a23.237 21.755 0 1 1 0-43.51c0.56227 0 1.1173 0.0169 1.6652 0.0574a23.237 21.755 0 0 0 0 43.396z" fill="#fff"/>
   <path id="path2155" class="cls-5" d="m41.211 130.66a24.149 22.609 0 1 1 24.149-22.609 24.149 22.609 0 0 1-24.149 22.609zm0-43.51a22.347 20.922 0 1 0 22.347 20.922 22.347 20.922 0 0 0-22.347-20.922z" fill="#3e3127"/>
   <ellipse id="circle2157" class="cls-11" cx="92.918" cy="108.57" rx="23.237" ry="21.755" fill="#d32d24"/>
   <path id="path2159" class="cls-5" d="m93.394 130.66a24.149 22.609 0 1 1 24.149-22.609 24.149 22.609 0 0 1-24.149 22.609zm0-43.51a22.347 20.922 0 1 0 22.347 20.922 22.347 20.922 0 0 0-22.347-20.922z" fill="#3e3127"/>
   <rect id="rect2161" class="cls-3" x="35.97" y="57.663" width="62.56" height="76.162" rx="28.975" fill="#fdd2bf"/>
   <path id="path2163" class="cls-1" d="m69.277 133.74c-0.74609 0.0472-1.4994 0.0742-2.2635 0.0742a31.282 29.287 0 0 1-31.282-29.273v-17.588a31.282 29.287 0 0 1 31.282-29.287q1.1462 0 2.2635 0.0776a31.278 29.284 0 0 0-29.015 29.209v17.588a31.282 29.287 0 0 0 29.015 29.199z" fill="#fff"/>
   <path id="path2165" class="cls-4" d="m98.519 86.727v17.588a31.282 29.287 0 0 1-31.282 29.284h-0.0613v-76.158h0.0613a31.282 29.287 0 0 1 31.282 29.287z" fill="#e8af94" opacity=".59677"/>
   <path id="path2167" class="cls-5" d="m67.082 114.43a0.90108 0.84362 0 0 1-0.90107-0.84362v-7.8929a0.90108 0.84362 0 0 1 1.8022 0v7.8929a0.90108 0.84362 0 0 1-0.90108 0.84362z" fill="#3e3127"/>
   <ellipse id="circle2169" class="cls-1" cx="40.987" cy="98.133" rx="3.6764" ry="3.442" fill="#fff"/>
   <ellipse id="circle2171" class="cls-1" cx="46.451" cy="94.029" rx="1.6832" ry="1.5759" fill="#fff"/>
  </g>
  <g fill="#3e3127" stroke-width=".34875">
   <path id="path2173" class="cls-5" d="m62.663 103.08a0.72086 0.67489 0 0 1-0.72086-0.67489 5.2839 4.947 0 0 0-10.568 0 0.72086 0.67489 0 0 1-1.4417 0 6.7256 6.2967 0 0 1 13.451 0 0.72086 0.67489 0 0 1-0.72086 0.67489z"/>
   <path id="path2175" class="cls-5" d="m83.478 103.08a0.72086 0.67489 0 0 1-0.72086-0.67489 5.2875 4.9503 0 0 0-10.571 0 0.72086 0.67489 0 0 1-1.4417 0 6.7292 6.3001 0 0 1 13.455 0 0.72086 0.67489 0 0 1-0.72086 0.67489z"/>
   <path id="path2177" class="cls-5" d="m68.874 134.67h-4.199a30.114 28.194 0 0 1-30.082-28.163v-21.522a30.114 28.194 0 0 1 30.082-28.163h4.199a30.114 28.194 0 0 1 30.081 28.163v21.522a30.114 28.194 0 0 1-30.081 28.163zm-4.199-76.162a28.312 26.506 0 0 0-28.279 26.476v21.522a28.312 26.506 0 0 0 28.279 26.476h4.199a28.312 26.506 0 0 0 28.279-26.476v-21.522a28.312 26.506 0 0 0-28.279-26.476z"/>
  </g>
  <g stroke-width=".34875">
   <path id="path2179" class="cls-10" d="m101.04 88.019c0-18.792-15.639-34.484-34.922-34.484s-34.915 15.691-34.915 34.484h14.536l5.0064-11.504 2.6203 11.504h5.0064v-7.0391l4.527 7.0391h6.913l3.8134-12.823 3.2655 12.823z" fill="#f65143"/>
   <path id="path2181" class="cls-11" d="m101.76 88.242h-24.149l-3.2439-12.84-3.817 12.84h-6.9383l-1.4165-2.2002c10.73-8.1426 11.314-22.309 10.236-31.835 16.619 2.6827 29.328 17.102 29.328 34.035z" fill="#d32d24"/>
   <path id="path2183" class="cls-12" d="m69.324 53.134c-18.454 0.9381-33.124 16.235-33.124 34.436h-3.5646c0-18.789 15.632-34.484 34.915-34.484 0.59471 0 1.193 0.0169 1.7733 0.0472z" fill="#ff9797"/>
   <path id="path2185" class="cls-5" d="m102.41 89.308h-25.756l-2.6203-10.306-3.06 10.306h-8.1061l-3.1177-4.839v4.8457h-6.6463l-2.1626-9.4957-4.1161 9.489h-16.046v-0.84362a38.53 36.073 0 0 1 10.47-24.866c6.7977-6.7489 15.798-10.461 25.345-10.461s18.548 3.7119 25.345 10.461a38.53 36.073 0 0 1 10.47 24.866zm-24.333-1.6872h22.52a36.695 34.355 0 0 0-9.9695-22.865c-6.4517-6.4115-14.987-9.931-24.033-9.931-9.0468 0-17.582 3.5263-24.033 9.931a36.695 34.355 0 0 0-9.9695 22.865h13.019l5.8822-13.515 3.0817 13.515h3.3736v-9.2258l5.9399 9.2292h5.7164l4.5666-15.374z" fill="#3e3127"/>
   <ellipse id="circle2187" class="cls-11" cx="70.968" cy="67.766" rx="3.6764" ry="3.442" fill="#d32d24"/>
   <ellipse id="circle2189" class="cls-11" cx="66.289" cy="62.596" rx="1.64" ry="1.5354" fill="#d32d24"/>
   <path id="path2191" class="cls-5" d="m67.162 125.25a8.3404 7.8085 0 0 1-8.3331-7.8018 0.72086 0.67489 0 0 1 1.4417 0 6.8914 6.452 0 1 0 13.779 0 0.72086 0.67489 0 0 1 1.4417 0 8.3404 7.8085 0 0 1-8.3296 7.8018z" fill="#3e3127"/>
  </g>
  <g fill="#ff9797">
   <ellipse id="ellipse2193" class="cls-12" transform="matrix(.93852 -.34523 .38697 .92209 0 0)" cx="4.1808" cy="91.515" rx=".56118" ry=".76297" stroke-width=".34892"/>
   <ellipse id="ellipse2195" class="cls-12" transform="matrix(.93852 -.34523 .38697 .92209 0 0)" cx="8.6036" cy="90.693" rx=".45395" ry=".64716" stroke-width=".34892"/>
   <ellipse id="ellipse2197" class="cls-12" transform="matrix(.32561 -.94551 .95734 .28898 0 0)" cx="-62.682" cy="64.402" rx="2.0211" ry="1.5766" stroke-width=".34888"/>
  </g>
  <g fill="#fff">
   <ellipse id="ellipse2199" class="cls-1" transform="matrix(.93852 -.34523 .38697 .92209 0 0)" cx="-18.264" cy="106.88" rx=".56118" ry=".76297" stroke-width=".34892"/>
   <ellipse id="ellipse2201" class="cls-1" transform="matrix(.93852 -.34523 .38697 .92209 0 0)" cx="-13.836" cy="106.06" rx=".45395" ry=".64716" stroke-width=".34892"/>
   <ellipse id="ellipse2203" class="cls-1" transform="matrix(.32561 -.94551 .95734 .28898 0 0)" cx="-88.049" cy="57.244" rx="2.0211" ry="1.5766" stroke-width=".34888"/>
   <path id="path2205" class="cls-1" d="m49.14 63.17a48.492 45.4 0 0 0-3.6908 3.8233 16.421 15.374 0 0 0-2.6564 4.3868c-0.0433 0.11474-0.30637 0.37794-0.4974 0.33745-0.19103-0.0405-0.23067-0.40831-0.18382-0.54329 0.87225-2.2474 2.4149-4.1573 4.0837-5.8648q0.7569-0.74914 1.5426-1.4578c0.0901-0.0979 1.1642-1.2148 1.3084-1.0832 0.14417 0.1316 0.18021 0.31045 0.0937 0.40156z" stroke-width=".34875"/>
   <path id="path2207" class="cls-1" d="m52.117 60.993-1.8778 1.289c-0.0252 0-0.18021-0.0641-0.29915-0.21596a0.53704 0.50279 0 0 1-0.12976-0.33745l1.3444-0.74913 0.41809-0.19572c0.0216 0 0.25591-0.24971 0.36043-0.10123 0.10453 0.14848 0.20545 0.29358 0.18382 0.31045z" stroke-width=".34875"/>
  </g>
 </g>
</svg>
