<?xml version="1.0" encoding="UTF-8" standalone="no"?>
<svg
   xmlns:dc="http://purl.org/dc/elements/1.1/"
   xmlns:cc="http://creativecommons.org/ns#"
   xmlns:rdf="http://www.w3.org/1999/02/22-rdf-syntax-ns#"
   xmlns:svg="http://www.w3.org/2000/svg"
   xmlns="http://www.w3.org/2000/svg"
   xmlns:sodipodi="http://sodipodi.sourceforge.net/DTD/sodipodi-0.dtd"
   xmlns:inkscape="http://www.inkscape.org/namespaces/inkscape"
   width="600"
   height="600"
   viewBox="0 0 158.75 158.75"
   version="1.1"
   id="svg8"
   inkscape:version="1.0.1 (3bc2e813f5, 2020-09-07)"
   sodipodi:docname="CircleQuestion.svg"
   inkscape:export-filename="E:\programming\_GameBiz\MarketingSite\src\images\CircleArrow56.png"
   inkscape:export-xdpi="8.96"
   inkscape:export-ydpi="8.96">
  <defs
     id="defs2">
    <rect
       x="-105.32399"
       y="-18.213923"
       width="73.647603"
       height="115.61882"
       id="rect863" />
  </defs>
  <sodipodi:namedview
     id="base"
     pagecolor="#ffffff"
     bordercolor="#666666"
     borderopacity="1.0"
     inkscape:pageopacity="0.0"
     inkscape:pageshadow="2"
     inkscape:zoom="0.33410795"
     inkscape:cx="309.88899"
     inkscape:cy="467.83796"
     inkscape:document-units="mm"
     inkscape:current-layer="layer1"
     inkscape:document-rotation="0"
     showgrid="false"
     units="px"
     inkscape:window-width="1718"
     inkscape:window-height="1368"
     inkscape:window-x="0"
     inkscape:window-y="0"
     inkscape:window-maximized="0" />
  <metadata
     id="metadata5">
    <rdf:RDF>
      <cc:Work
         rdf:about="">
        <dc:format>image/svg+xml</dc:format>
        <dc:type
           rdf:resource="http://purl.org/dc/dcmitype/StillImage" />
        <dc:title />
      </cc:Work>
    </rdf:RDF>
  </metadata>
  <g
     inkscape:label="Layer 1"
     inkscape:groupmode="layer"
     id="layer1">
    <text
       xml:space="preserve"
       id="text861"
       style="font-style:normal;font-variant:normal;font-weight:normal;font-stretch:normal;font-size:10.5833px;line-height:1.25;font-family:'Raleway Thin';-inkscape-font-specification:'Raleway Thin, ';white-space:pre;shape-inside:url(#rect863);fill:#404e4d;fill-opacity:1;stroke:none;"
       transform="matrix(13.660064,0,0,12.190834,1483.9924,229.43917)"><tspan
         x="-105.32422"
         y="-8.4180798"><tspan
           style="font-style:normal;font-variant:normal;font-weight:normal;font-stretch:normal;font-family:'Raleway Thin';-inkscape-font-specification:'Raleway Thin, ';fill:#404e4d;fill-opacity:1">?</tspan></tspan></text>
    <path
       id="path847"
       style="opacity:1;fill:#5bc0eb;fill-opacity:1;stroke-width:0.340455"
       d="M 79.37499,7.870839 A 72.172514,71.504171 0 0 0 7.2026509,79.375002 72.172514,71.504171 0 0 0 79.37499,150.87916 72.172514,71.504171 0 0 0 151.54735,79.375002 72.172514,71.504171 0 0 0 79.37499,7.870839 Z m -0.0972,9.260421 a 62.912092,62.243758 0 0 1 0.0972,0 62.912092,62.243758 0 0 1 62.91195,62.243742 A 62.912092,62.243758 0 0 1 79.37499,141.61874 62.912092,62.243758 0 0 1 16.46307,79.375002 62.912092,62.243758 0 0 1 79.27783,17.13126 Z" />
  </g>
</svg>
