<?xml version="1.0" encoding="UTF-8" standalone="no"?>
<svg
   xmlns:dc="http://purl.org/dc/elements/1.1/"
   xmlns:cc="http://creativecommons.org/ns#"
   xmlns:rdf="http://www.w3.org/1999/02/22-rdf-syntax-ns#"
   xmlns:svg="http://www.w3.org/2000/svg"
   xmlns="http://www.w3.org/2000/svg"
   xmlns:sodipodi="http://sodipodi.sourceforge.net/DTD/sodipodi-0.dtd"
   xmlns:inkscape="http://www.inkscape.org/namespaces/inkscape"
   id="svg2584"
   width="420mm"
   height="200mm"
   version="1.1"
   viewBox="0 0 420 200"
   sodipodi:docname="Comparables.svg"
   inkscape:version="1.0.1 (3bc2e813f5, 2020-09-07)">
  <metadata
     id="metadata183">
    <rdf:RDF>
      <cc:Work
         rdf:about="">
        <dc:format>image/svg+xml</dc:format>
        <dc:type
           rdf:resource="http://purl.org/dc/dcmitype/StillImage" />
        <dc:title></dc:title>
      </cc:Work>
    </rdf:RDF>
  </metadata>
  <defs
     id="defs181">
    <inkscape:path-effect
       effect="bspline"
       id="path-effect1349"
       is_visible="true"
       lpeversion="1"
       weight="33.333333"
       steps="2"
       helper_size="0"
       apply_no_weight="true"
       apply_with_weight="true"
       only_selected="false" />
  </defs>
  <sodipodi:namedview
     pagecolor="#ffffff"
     bordercolor="#666666"
     borderopacity="1"
     objecttolerance="10"
     gridtolerance="10"
     guidetolerance="10"
     inkscape:pageopacity="0"
     inkscape:pageshadow="2"
     inkscape:window-width="1754"
     inkscape:window-height="967"
     id="namedview179"
     showgrid="false"
     inkscape:zoom="0.65641865"
     inkscape:cx="904.06735"
     inkscape:cy="460.14241"
     inkscape:window-x="544"
     inkscape:window-y="143"
     inkscape:window-maximized="0"
     inkscape:current-layer="layer1"
     inkscape:document-rotation="0" />
  <g
     id="layer1">
    <g
       fill="#404e4d"
       id="g12">
      <path
         id="rect833-7-8-0"
         d="m59.586 6.8605c-1.164 0-2.1012 0.93714-2.1012 2.1012v181.01c0 1.164 0.93715 2.1012 2.1012 2.1012h286.84c1.164 0 2.1012-0.93713 2.1012-2.1012v-181.01c0-1.164-0.93713-2.1012-2.1012-2.1012zm1.0346 1.0583h284.77c1.1507 0 2.0769 0.92615 2.0769 2.0769v178.94c0 1.1507-0.92615 2.0774-2.0769 2.0774h-284.77c-1.1507 0-2.0774-0.92666-2.0774-2.0774v-178.94c0-1.1507 0.92667-2.0769 2.0774-2.0769z"
         stroke-width=".15694" />
    </g>
    <path
       id="path1537-3"
       class="cls-6"
       d="m 9.3339259,61.481455 v 11.181 H 36.487926 v -9.1969 h 8.9958 v -11.176 h -27.165 v 9.1943 z m 34.0550001,-0.10318 h -22.979 v -7.0009 h 22.979 z m -31.964,2.1934 h 22.979 v 7.0009 h -22.979 z"
       fill="#24bacc"
       opacity="0.2"
       stroke-width="0.26458" />
    <g
       id="character-excited"
       transform="matrix(0.90549436,0,0,0.90549436,-257.09866,-16.161007)">
      <path
         class="cls-1"
         d="m 355.89638,165.50823 h 11.73972 v 21.33232 a 5.8681247,5.8681247 0 0 1 -5.86812,5.86812 v 0 a 5.8681247,5.8681247 0 0 1 -5.86813,-5.86812 v -21.33232 z"
         id="path14717"
         style="fill:#fdd2bf;stroke-width:0.347432" />
      <path
         class="cls-2"
         d="m 368.22326,179.78768 v 3.52296 a 31.435638,31.435638 0 0 1 -11.73972,0.23626 v -3.52296 a 31.435638,31.435638 0 0 0 11.73972,-0.23626 z"
         id="path14719"
         style="fill:#e8af94;stroke-width:0.347432" />
      <path
         class="cls-3"
         d="m 361.56299,193.12559 a 3.4743189,3.4743189 0 0 1 -1.89003,-0.15981 7.2474291,7.2474291 0 0 1 -1.19516,-0.5142 5.6422938,5.6422938 0 0 1 -0.85121,-0.56284 7.7442568,7.7442568 0 0 1 -1.80317,-2.27916 5.9376109,5.9376109 0 0 1 -0.62191,-2.43202 c -0.0208,-0.29879 0,-0.55937 0,-0.83731 0,-0.27795 0,-0.56284 0,-0.85468 0,-0.58369 0,-1.18822 0,-1.7858 0.0243,-2.39381 0.0452,-4.69381 0.0486,-5.11073 0,-1.27507 0.0486,-5.13852 0,-5.79516 -0.0486,-0.65665 0,-3.86344 -0.0278,-4.74245 0,-0.34743 0,-0.69486 0,-1.04229 v -0.7713 c 0,-0.46208 0,-0.92764 0,-1.38973 l 1.41752,-0.0313 0.7713,-0.0313 c 0.50031,-0.0174 1.00061,-0.0313 1.50091,-0.0208 0.92417,0 1.85181,0 2.77946,0 0.21888,0 0.44123,0 0.66011,0 0.88248,0.0243 1.76496,0.0278 2.65091,0.0243 h 3.40483 q 0,1.29245 0,2.5849 l -0.0174,1.45226 c 0,0.30574 0,0.61843 0,0.9207 0.0521,1.67462 0,3.34229 -0.0347,5.00649 0,0.22235 -0.0208,0.44818 0,0.66012 0.073,1.22643 0,2.45634 0.0174,3.68625 0,0.3926 0,0.78867 0,1.18474 0,0.30922 -0.0174,0.61843 0,0.92417 0.0347,1.36541 0,2.72734 0.0174,4.09275 0,0.0869 0,0.17719 0,0.26405 0.0174,0.3648 0.0243,0.72613 0.0278,1.09093 0,0.17025 0,0.37523 -0.0208,0.58021 l -0.0208,0.30227 -0.0486,0.30227 a 6.1842878,6.1842878 0 0 1 -0.8512,2.24093 8.7552837,8.7552837 0 0 1 -1.93867,2.14018 2.9809657,2.9809657 0 0 1 -0.48294,0.31964 6.8687283,6.8687283 0 0 1 -2.77945,0.7852 h -0.13897 c -0.15635,0 -0.31964,-0.2571 -0.31616,-0.31269 a 3.5299081,3.5299081 0 0 1 0.30921,-0.4065 2.4980353,2.4980353 0 0 1 0.34743,-0.39607 3.0956181,3.0956181 0 0 1 0.31964,-0.0938 1.7371594,1.7371594 0 0 0 0.85121,-0.41692 1.9108754,1.9108754 0 0 1 0.46208,-0.27447 4.5166145,4.5166145 0 0 0 1.78233,-1.42447 5.5137442,5.5137442 0 0 0 0.96586,-2.08459 l 0.0764,-0.48293 c 0,-0.16677 0.0174,-0.33006 0.0243,-0.49335 v -12.37205 c 0,-0.66012 0,-1.31677 0.0382,-1.97341 0.0382,-0.65665 0.0347,-1.22991 0.0347,-1.84487 v -3.1651 -1.38973 h -1.76848 l -7.58096,-0.0486 c -0.0869,0 -0.1772,0 -0.26058,0 -0.18066,0 -0.4065,0.0243 -0.66707,0.0313 h -0.1355 -0.0486 v 0.0903 c 0,0.26057 0,0.5281 0,0.79562 0,0.54199 0,1.07704 0,1.55997 0,0.96586 0,1.71631 0,1.83791 v 4.09275 c 0,1.35846 0.0208,2.71692 0,4.07885 0,1.18474 0,2.37644 0,3.56118 0,0.17719 0,0.34743 0,0.52809 0,0.48641 0,1.34109 -0.0313,2.36949 0,0.5142 0,1.07009 0,1.64683 a 5.5067954,5.5067954 0 0 0 0.19804,1.54607 5.2114783,5.2114783 0 0 0 1.48353,2.4077 5.294862,5.294862 0 0 0 1.34804,0.89985 3.0990924,3.0990924 0 0 1 0.47946,0.26752 4.596524,4.596524 0 0 0 0.46903,0.24668 2.1193345,2.1193345 0 0 0 0.38565,0.22583 1.9317213,1.9317213 0 0 0 0.28142,0.0799 l 0.30227,0.0452 c 0.19456,0.0347 0.29531,0.11812 0.2432,0.19803 -0.0521,0.0799 -0.10423,0.38913 -0.16677,0.46904 z"
         id="path14721"
         style="fill:#3e3127;stroke-width:0.347432" />
      <circle
         class="cls-2"
         cx="364.49881"
         cy="184.00204"
         r="1.5495462"
         id="circle14723"
         style="fill:#e8af94;stroke-width:0.347432" />
      <circle
         class="cls-2"
         cx="362.02509"
         cy="185.78783"
         r="0.6913895"
         id="circle14725"
         style="fill:#e8af94;stroke-width:0.347432" />
      <rect
         class="cls-4"
         x="375.52975"
         y="102.54663"
         width="21.394857"
         height="42.727177"
         rx="10.586249"
         id="rect14727"
         style="opacity:0.5;fill:#59717a;stroke-width:0.347432" />
      <path
         class="cls-5"
         d="m 396.00391,108.3939 h -19.15739 a 10.58625,10.58625 0 0 1 3.09562,-3.71404 h 12.96963 a 10.607096,10.607096 0 0 1 3.09214,3.71404 z"
         id="path14729"
         style="fill:#34454c;stroke-width:0.347432" />
      <path
         class="cls-6"
         d="m 334.55016,144.29404 h -0.22235 c -5.85076,0 -4.1136,-4.02326 -4.1136,-9.87054 l -5.24969,-20.23443 a 10.360419,10.360419 0 0 1 1.04229,-7.95272 9.4953135,9.4953135 0 0 1 8.30362,-4.66948 h 0.22236 a 10.589724,10.589724 0 0 1 10.62099,10.58972 v 21.54078 a 10.58625,10.58625 0 0 1 -10.60362,10.59667 z"
         id="path14731"
         style="fill:#637582;stroke-width:0.347432" />
      <path
         class="cls-5"
         d="m 344.8272,109.25206 a 16.381414,16.381414 0 0 1 -17.23957,-4.51661 10.106794,10.106794 0 0 1 2.08459,-1.4349 16.395311,16.395311 0 0 0 14.24471,3.98157 10.204075,10.204075 0 0 1 0.91027,1.96994 z"
         id="path14733"
         style="fill:#34454c;stroke-width:0.347432" />
      <path
         class="cls-3"
         d="m 387.22431,146.14238 h -0.21888 a 11.465252,11.465252 0 0 1 -11.46525,-11.46525 v -21.54078 a 11.465252,11.465252 0 0 1 11.46525,-11.46525 h 0.21888 a 11.465252,11.465252 0 0 1 11.46525,11.46525 h -1.73716 a 9.7280928,9.7280928 0 0 0 -9.72809,-9.72809 h -0.21888 a 9.7280928,9.7280928 0 0 0 -9.72809,9.72809 v 21.54078 a 9.7280928,9.7280928 0 0 0 9.72809,9.72809 h 0.21888 a 9.7280928,9.7280928 0 0 0 9.72809,-9.72809 h 1.73716 a 11.465252,11.465252 0 0 1 -11.46525,11.46525 z"
         id="path14735"
         style="fill:#3e3127;stroke-width:0.347432" />
      <path
         class="cls-3"
         d="m 335.15469,144.78392 a 5.0169165,5.0169165 0 0 1 -2.77945,-0.22583 4.0232613,4.0232613 0 0 1 -2.51888,-2.60921 10.124165,10.124165 0 0 1 -0.3787,-2.08459 c -0.0625,-0.69487 -0.0869,-1.34456 -0.10771,-2.00121 -0.0208,-0.60106 0,-1.85876 0,-3.30755 l -1.17084,-4.77372 -1.7858,-7.33776 c -0.22236,-0.91374 -0.67402,-2.75861 -1.09789,-4.49229 -0.42386,-1.73369 -0.85468,-3.31798 -0.95196,-3.87387 -0.0313,-0.13202 -0.0764,-0.32659 -0.11813,-0.56979 -0.0417,-0.2432 -0.0452,-0.51767 -0.073,-0.8651 a 6.2225052,6.2225052 0 0 1 0,-1.0423 l 0.0208,-0.56979 0.0834,-0.58021 a 11.9864,11.9864 0 0 1 1.1639,-3.67235 l 0.17371,-0.38913 c 0.066,-0.1216 0.14593,-0.23973 0.21889,-0.34743 0.15287,-0.23278 0.30574,-0.46903 0.46208,-0.69486 a 14.64078,14.64078 0 0 1 2.47719,-2.56058 10.238818,10.238818 0 0 1 3.179,-1.65724 11.50347,11.50347 0 0 1 2.1923,-0.40997 l 0.55589,-0.0556 h 0.55241 c 0.34744,0 0.73309,0.0278 1.09789,0.0452 h 0.26405 l 0.26405,0.0382 c 0.17371,0.0243 0.34743,0.0486 0.52462,0.0799 a 11.909965,11.909965 0 0 1 5.15241,2.33126 11.381869,11.381869 0 0 1 3.44305,4.48535 c 0.13898,0.34743 0.26405,0.73308 0.3926,1.09788 l 0.27795,1.12916 0.10423,0.73308 0.0521,0.34743 0.0243,0.34743 c 0.0208,0.32659 0.0556,0.69487 0.0591,0.99018 v 0.92417 1.85181 l -0.0625,3.6932 c 0,0.32659 -0.0243,0.66013 0,0.97281 0.0869,1.81707 0,3.63414 0,5.44773 0,0.58369 0,1.17085 0,1.75454 0,0.45513 -0.0208,0.91374 0,1.3654 0.0243,1.00756 0.0243,2.01511 0.0243,3.02266 v 2.26873 c 0,0.2571 -0.0243,0.53852 -0.0347,0.80604 0,0.13898 0,0.28143 0,0.4204 a 10.422957,10.422957 0 0 1 -0.84426,3.35619 11.506944,11.506944 0 0 1 -1.89698,2.85936 14.991686,14.991686 0 0 1 -3.20332,2.61964 c -0.23278,0.13202 -0.49336,0.271 -0.73656,0.3787 a 12.451959,12.451959 0 0 1 -4.03716,0.91722 c -0.066,0 -0.13202,0 -0.19803,0 a 0.59410854,0.59410854 0 0 1 -0.49336,-0.34048 3.5403308,3.5403308 0 0 1 0.45861,-0.49336 2.2131411,2.2131411 0 0 1 0.58369,-0.46208 4.6833819,4.6833819 0 0 1 0.49335,-0.13203 3.4916904,3.4916904 0 0 0 1.35846,-0.50377 2.7203916,2.7203916 0 0 1 0.75393,-0.34743 8.7483349,8.7483349 0 0 0 2.99486,-1.88308 10.190177,10.190177 0 0 0 2.11934,-2.85937 8.6857972,8.6857972 0 0 0 0.86858,-2.90453 6.601206,6.601206 0 0 0 0.0973,-0.94154 c 0.0243,-0.30574 0.0208,-0.65665 0.0208,-1.0006 v -14.52961 c 0,-0.97629 0,-1.94562 0.0452,-2.91843 0.0313,-0.90332 0.0417,-1.81707 0.0452,-2.72734 0,-0.38565 0,-0.78867 -0.0243,-1.1361 l -0.0278,-0.54199 c 0,-0.18067 -0.0521,-0.34744 -0.0764,-0.53505 l -0.0869,-0.53505 -0.13898,-0.52462 a 7.6851933,7.6851933 0 0 0 -0.34744,-1.02492 10.051205,10.051205 0 0 0 -1.5287,-2.64396 10.454226,10.454226 0 0 0 -2.27915,-2.0429 l -0.54895,-0.34743 c -0.18066,-0.11465 -0.38217,-0.19456 -0.57326,-0.29184 a 10.422957,10.422957 0 0 0 -1.19169,-0.48293 9.7280928,9.7280928 0 0 0 -2.52583,-0.45166 9.5509027,9.5509027 0 0 0 -5.00649,1.0284 2.2861018,2.2861018 0 0 0 -0.31964,0.15981 c -0.21193,0.15635 -0.47946,0.34743 -0.78867,0.54895 -0.1494,0.11465 -0.29532,0.24667 -0.45514,0.3787 a 5.4234117,5.4234117 0 0 0 -0.4864,0.42734 9.3389691,9.3389691 0 0 0 -0.93459,1.04229 10.099845,10.099845 0 0 0 -0.81994,1.18127 9.9539237,9.9539237 0 0 0 -1.24728,3.56465 9.2799059,9.2799059 0 0 0 -0.0973,1.38973 5.1246204,5.1246204 0 0 0 0.0382,0.69487 6.6255262,6.6255262 0 0 0 0.0695,0.69486 c 0.10076,0.46208 0.15635,0.88942 0.29532,1.38973 l 0.36828,1.46963 c 0.47945,1.9491 1.0006,3.88777 1.46616,5.84728 0.40649,1.70242 0.85468,3.40136 1.2855,5.10378 0.066,0.25015 0.13549,0.50377 0.19456,0.75392 l 0.81646,3.40483 0.57674,2.36254 0.0764,0.31269 0.0313,0.1216 a 0.71918401,0.71918401 0 0 1 0.0278,0.14592 v 0.24321 c 0,0.21888 0,0.43776 0,0.65664 0,0.43429 -0.0208,0.86858 -0.0278,1.30287 -0.0417,1.73716 -0.073,3.38746 0.21194,4.53746 a 2.7308146,2.7308146 0 0 0 1.10831,1.77885 c 0.21193,0.14592 0.40302,0.26753 0.60105,0.4065 a 4.2108744,4.2108744 0 0 0 0.67749,0.32311 3.5542283,3.5542283 0 0 0 0.59064,0.27447 5.5589101,5.5589101 0 0 0 0.88248,0.13203 c 0.29531,0.0382 0.45166,0.12855 0.37175,0.22583 -0.0799,0.0973 -0.18067,0.44124 -0.26752,0.53504 z"
         id="path14737"
         style="fill:#3e3127;stroke-width:0.347432" />
      <rect
         class="cls-2"
         x="322.397"
         y="133.22487"
         width="15.651806"
         height="12.914042"
         rx="6.4552846"
         id="rect14739"
         style="fill:#e8af94;stroke-width:0.347432" />
      <rect
         class="cls-1"
         x="325.21814"
         y="135.17047"
         width="10.009513"
         height="8.2584562"
         rx="4.127491"
         id="rect14741"
         style="fill:#fdd2bf;stroke-width:0.347432" />
      <path
         class="cls-3"
         d="m 331.60394,146.63573 h -2.75166 a 7.3273386,7.3273386 0 0 1 0,-14.6512 h 2.75166 a 7.3273386,7.3273386 0 0 1 0,14.6512 z m -2.74124,-12.91404 a 5.5901791,5.5901791 0 0 0 0,11.17688 h 2.74124 a 5.5901791,5.5901791 0 0 0 0,-11.17688 z"
         id="path14743"
         style="fill:#3e3127;stroke-width:0.347432" />
      <rect
         class="cls-2"
         x="384.35107"
         y="133.22487"
         width="15.651806"
         height="12.914042"
         rx="6.4552846"
         id="rect14745"
         style="fill:#e8af94;stroke-width:0.347432" />
      <rect
         class="cls-1"
         x="387.17569"
         y="135.17047"
         width="10.009513"
         height="8.2584562"
         rx="4.127491"
         id="rect14747"
         style="fill:#fdd2bf;stroke-width:0.347432" />
      <path
         class="cls-3"
         d="m 393.54757,146.63573 h -2.73776 a 7.3273386,7.3273386 0 1 1 0,-14.6512 h 2.73776 a 7.3273386,7.3273386 0 0 1 0,14.6512 z m -2.73776,-12.91404 a 5.5901791,5.5901791 0 1 0 0,11.17688 h 2.73776 a 5.5901791,5.5901791 0 0 0 0,-11.17688 z"
         id="path14749"
         style="fill:#3e3127;stroke-width:0.347432" />
      <rect
         class="cls-1"
         x="329.83203"
         y="97.422005"
         width="62.607224"
         height="82.685318"
         rx="31.303612"
         id="rect14751"
         style="fill:#fdd2bf;stroke-width:0.347432" />
      <path
         class="cls-7"
         d="m 362.33429,180.65279 c -0.39955,0.0174 -0.80257,0.0243 -1.20559,0.0243 A 31.303614,31.303614 0 0 1 329.82509,149.3735 v -20.07809 a 31.303614,31.303614 0 0 1 31.31056,-31.303616 c 0.40302,0 -1.97341,0 -1.57387,0.02432 -16.73232,0.628851 -26.27974,14.394106 -26.27974,31.268866 v 20.07809 c -0.007,16.89562 12.31993,30.66087 29.05225,31.28972 z"
         id="path14753"
         style="fill:#ffffff;stroke-width:0.347432" />
      <path
         class="cls-2"
         d="m 392.67552,151.12803 a 31.303614,31.303614 0 0 1 -51.69092,21.52688 35.660409,35.660409 0 0 0 51.68744,-21.54078 z"
         id="path14755"
         style="fill:#e8af94;stroke-width:0.347432" />
      <path
         class="cls-2"
         d="m 385.41767,108.51551 h -35.66041 a 16.294556,16.294556 0 0 1 -8.53641,2.39033 c -1.96646,0 -2.45981,-0.34743 -4.20392,-0.97976 a 31.133373,31.133373 0 0 1 3.74879,-4.69033 c 0.60453,0.0695 -0.17024,0.10423 0.45513,0.10423 a 16.294556,16.294556 0 0 0 8.53641,-2.40075 h 30.42461 q 1.09441,0.90679 2.08459,1.91434 a 30.921439,30.921439 0 0 1 3.15121,3.66194 z"
         id="path14757"
         style="fill:#e8af94;stroke-width:0.347432" />
      <path
         class="cls-3"
         d="m 361.13565,181.17394 a 32.206935,32.206935 0 0 1 -32.17219,-32.1722 v -20.07808 a 32.172194,32.172194 0 0 1 64.34438,0 v 20.07808 a 32.206935,32.206935 0 0 1 -32.17219,32.1722 z m 0,-82.688793 a 30.469776,30.469776 0 0 0 -30.43503,30.435033 v 20.07809 a 30.435034,30.435034 0 0 0 60.87006,0 V 128.92366 A 30.469776,30.469776 0 0 0 361.13565,98.488622 Z"
         id="path14759"
         style="fill:#3e3127;stroke-width:0.347432" />
      <path
         class="cls-6"
         d="M 393.09938,104.67986 A 27.97869,27.97869 0 0 0 365.12069,76.701168 h -16.11041 a 16.388362,16.388362 0 1 0 0,27.978692 z"
         id="path14761"
         style="fill:#637582;stroke-width:0.347432" />
      <path
         class="cls-8"
         d="m 393.09938,104.67291 h -0.0452 C 392.23772,89.955694 380.04286,79.602224 365.12066,79.602224 h -16.11041 a 16.329299,16.329299 0 0 0 -8.53988,-2.39728 c -8.78308,0 -15.95755,5.58323 -16.36751,14.269028 0,-0.260574 0,-0.524622 0,-0.788671 a 16.391837,16.391837 0 0 1 24.90739,-13.991082 h 16.11041 a 27.982164,27.982164 0 0 1 27.97869,27.978691 z"
         id="path14763"
         style="fill:#8898a8;stroke-width:0.347432" />
      <path
         class="cls-9"
         d="m 392.76933,99.788017 h -43.75905 a 16.391837,16.391837 0 0 1 -24.78232,-11.850902 16.895613,16.895613 0 0 0 -0.14245,2.150604 16.391837,16.391837 0 0 0 24.92477,13.991081 h 44.0891 a 28.371289,28.371289 0 0 0 -0.33005,-4.290783 z"
         id="path14765"
         style="fill:#455760;stroke-width:0.347432" />
      <path
         class="cls-10"
         d="m 330.47479,95.796025 a 9.2347396,9.2347396 0 0 1 7.20226,-15.012533 v 1.73716 a 7.5045287,7.5045287 0 0 0 -7.49758,7.49758 7.396825,7.396825 0 0 0 1.6503,4.690331 z"
         id="path14767"
         style="opacity:0.4;fill:#3e3127;stroke-width:0.347432" />
      <path
         class="cls-3"
         d="m 339.51496,91.925633 v -1.737159 a 3.7974304,3.7974304 0 0 0 0,-7.591387 v -1.73716 a 5.5345899,5.5345899 0 0 1 0,11.065706 z"
         id="path14769"
         style="fill:#3e3127;stroke-width:0.347432" />
      <circle
         class="cls-9"
         cx="384.2225"
         cy="98.165512"
         r="3.1303616"
         id="circle14771"
         style="fill:#455760;stroke-width:0.347432" />
      <circle
         class="cls-9"
         cx="380.23398"
         cy="93.461281"
         r="1.3966762"
         id="circle14773"
         style="fill:#455760;stroke-width:0.347432" />
      <circle
         class="cls-8"
         cx="358.00876"
         cy="80.825188"
         r="2.254833"
         id="circle14775"
         style="fill:#8898a8;stroke-width:0.347432" />
      <circle
         class="cls-8"
         cx="360.88202"
         cy="84.212646"
         r="1.0040781"
         id="circle14777"
         style="fill:#8898a8;stroke-width:0.347432" />
      <path
         class="cls-3"
         d="m 327.57026,136.69918 a 3.311026,3.311026 0 0 0 -0.0834,5.55891 0.95196337,0.95196337 0 0 1 -0.0903,0.76435 c -0.17719,0.34743 -0.59411,0.46209 -0.69486,0.38912 a 4.6347414,4.6347414 0 0 1 -1.70242,-2.49108 4.5166145,4.5166145 0 0 1 0.18414,-2.91843 4.3394244,4.3394244 0 0 1 1.00755,-1.38625 2.6543796,2.6543796 0 0 1 0.50378,-0.48641 c 0.26057,-0.18761 0.56284,-0.28142 0.65317,-0.11465 0.18761,0.34049 0.28837,0.64275 0.22236,0.68444 z"
         id="path14779"
         style="fill:#3e3127;stroke-width:0.347432" />
      <path
         class="cls-3"
         d="m 395.73292,135.30598 a 4.8640466,4.8640466 0 0 1 0.12507,8.16117 c -0.10423,0.0764 -0.56631,-0.11117 -0.78867,-0.53157 a 1.361933,1.361933 0 0 1 -0.18761,-0.90679 3.2172193,3.2172193 0 0 0 1.38973,-1.57734 3.4222042,3.4222042 0 0 0 0.13202,-2.22357 3.6167661,3.6167661 0 0 0 -0.56284,-1.2855 l -0.45513,-0.39954 c -0.20151,-0.18414 -0.3926,-0.38565 -0.27448,-0.59759 0.24321,-0.41691 0.51768,-0.71918 0.62191,-0.63927 z"
         id="path14781"
         style="fill:#3e3127;stroke-width:0.347432" />
      <path
         class="cls-3"
         d="m 350.87251,113.33786 1.26813,0.15635 c 0.41692,0.0521 0.83036,0.0973 1.24728,0.13549 q 1.25075,0.11466 2.50498,0.15635 c 0.83036,0.0278 1.67115,0 2.53278,0.0208 h 2.56057 c 1.69895,0 3.43263,0 5.10031,0 A 44.436538,44.436538 0 0 0 371.1,113.40388 c 0.25015,-0.0313 0.95196,0.27447 1.01102,0.75045 0.0591,0.47598 -0.54546,0.94154 -0.79561,0.97281 a 46.277927,46.277927 0 0 1 -6.94864,0.25015 l -6.84789,-0.18066 c -1.35498,-0.0556 -2.71691,-0.17025 -4.058,-0.34744 -0.12508,0 -0.93807,-0.0452 -1.70242,-0.16329 -0.76435,-0.11813 -1.487,-0.28837 -1.45921,-0.52462 0.066,-0.47598 0.32311,-0.84774 0.57326,-0.82341 z"
         id="path14783"
         style="fill:#3e3127;stroke-width:0.347432" />
      <path
         class="cls-3"
         d="m 353.64502,110.3291 0.93459,0.11465 c 0.30227,0.0382 0.60453,0.0695 0.9068,0.0973 q 0.91375,0.0834 1.82401,0.11466 c 0.60801,0.0208 1.21949,0 1.85529,0 h 1.87961 c 1.24728,0 2.52583,0 3.74184,0 a 32.630803,32.630803 0 0 0 3.65846,-0.29185 0.89637428,0.89637428 0 0 1 0.21541,1.73716 34.086543,34.086543 0 0 1 -5.12115,0.1355 l -5.03082,-0.17719 c -0.99712,-0.0591 -2.0012,-0.15982 -2.98791,-0.31269 -0.19109,0 -2.37991,-0.11465 -2.31389,-0.59063 0.066,-0.47598 0.25709,-0.85121 0.43776,-0.82689 z"
         id="path14785"
         style="fill:#3e3127;stroke-width:0.347432" />
      <rect
         class="cls-2"
         x="384.01041"
         y="21.611723"
         width="20.644402"
         height="5.0064936"
         rx="2.5015094"
         transform="rotate(14.76)"
         id="rect14787"
         style="fill:#e8af94;stroke-width:0.347432" />
      <rect
         class="cls-6"
         x="384.47614"
         y="19.902845"
         width="20.644402"
         height="5.0064936"
         rx="2.5015094"
         transform="rotate(14.76)"
         id="rect14789"
         style="fill:#637582;stroke-width:0.347432" />
      <path
         class="cls-3"
         d="m 383.86812,126.02955 a 1.8101202,1.8101202 0 0 0 0.23625,-3.53686 l -1.32024,-0.34743 -2.65438,-0.69486 -10.62099,-2.79683 -0.34743,-0.0903 -0.15635,-0.0382 -0.1216,-0.0278 a 1.8066458,1.8066458 0 0 0 -0.49335,-0.0174 1.7580054,1.7580054 0 0 0 -0.91375,0.34743 1.8031715,1.8031715 0 0 0 0.54894,3.16511 l 2.62312,0.69486 10.63836,2.81072 c 0.52115,0.13897 1.80665,0.7991 1.70936,1.17085 -0.0973,0.37175 -1.54259,0.31269 -2.06374,0.17371 l -7.08414,-1.93867 -3.54033,-0.96934 -1.7719,-0.4864 -0.44124,-0.11813 c -0.1494,-0.0452 -0.28142,-0.073 -0.47251,-0.13897 a 3.1060411,3.1060411 0 0 1 -0.97628,-0.54547 3.0330804,3.0330804 0 0 1 -0.58716,-4.01979 2.9774912,2.9774912 0 0 1 2.85242,-1.31329 1.764954,1.764954 0 0 1 0.27099,0.0452 c 0.0903,0 0.18067,0.0382 0.25015,0.0591 l 0.44124,0.1216 7.08066,1.93867 4.16919,1.17432 2.08459,0.58716 1.04229,0.29532 a 2.9357995,2.9357995 0 0 1 1.0423,0.51072 2.8280955,2.8280955 0 0 1 0.88595,1.11873 2.7169173,2.7169173 0 0 1 -0.16329,2.49456 2.6231108,2.6231108 0 0 1 -2.00468,1.26813 c -0.6636,0.0417 -1.0423,-0.18066 -1.02145,-0.2571 a 0.78519607,0.78519607 0 0 1 0.34743,-0.43081 1.1951657,1.1951657 0 0 1 0.53157,-0.20846 z"
         id="path14791"
         style="fill:#3e3127;stroke-width:0.347432" />
      <rect
         class="cls-2"
         x="340.86588"
         y="116.50143"
         width="20.644402"
         height="5.0064936"
         rx="2.5015094"
         transform="rotate(0.77999998)"
         id="rect14793"
         style="fill:#e8af94;stroke-width:0.347432" />
      <rect
         class="cls-6"
         x="340.86935"
         y="114.79581"
         width="20.644402"
         height="5.0064936"
         rx="2.5015094"
         transform="rotate(0.77999998)"
         id="rect14795"
         style="fill:#637582;stroke-width:0.347432" />
      <path
         class="cls-3"
         d="m 358.23112,123.76082 a 1.8066458,1.8066458 0 0 0 -0.62538,-3.47432 l -1.3654,-0.0209 -2.74819,-0.0486 -10.97885,-0.14939 h -0.34743 c -0.0521,0 -0.1216,0 -0.16329,0 h -0.12508 a 1.7580054,1.7580054 0 0 0 -0.48293,0.10075 1.7823256,1.7823256 0 0 0 -0.79909,0.56284 1.8031715,1.8031715 0 0 0 1.29592,2.93927 l 2.71344,0.0417 10.98232,0.1494 c 0.53852,0 1.94562,0.34743 1.94215,0.72266 -0.004,0.37522 -1.42447,0.67402 -1.96299,0.66707 l -7.34124,-0.17024 -3.66888,-0.0869 -1.83444,-0.0417 h -0.45861 c -0.15634,0 -0.29184,0 -0.49335,-0.0209 a 2.9948629,2.9948629 0 0 1 -1.07704,-0.29184 3.0296062,3.0296062 0 0 1 -1.5426,-3.75922 2.9913887,2.9913887 0 0 1 1.41057,-1.63293 2.9045305,2.9045305 0 0 1 1.0423,-0.33006 1.4244707,1.4244707 0 0 1 0.271,-0.0208 c 0.0938,0 0.18414,0 0.2571,0 h 0.45861 l 7.34123,0.17024 4.32205,0.1355 2.16103,0.066 1.08051,0.0347 a 3.0018114,3.0018114 0 0 1 1.15348,0.24321 2.7794551,2.7794551 0 0 1 1.12568,0.86857 2.7238661,2.7238661 0 0 1 0.44819,2.45982 2.6335337,2.6335337 0 0 1 -1.63988,1.71632 c -0.63233,0.20151 -1.06315,0.0799 -1.0423,0 a 0.77129878,0.77129878 0 0 1 0.23625,-0.50378 1.2299089,1.2299089 0 0 1 0.45514,-0.32659 z"
         id="path14797"
         style="fill:#3e3127;stroke-width:0.347432" />
      <circle
         class="cls-2"
         cx="375.40121"
         cy="108.79693"
         r="1.9247726"
         id="circle14799"
         style="fill:#e8af94;stroke-width:0.347432" />
      <circle
         class="cls-2"
         cx="378.18762"
         cy="111.14904"
         r="0.96238631"
         id="circle14801"
         style="fill:#e8af94;stroke-width:0.347432" />
      <path
         class="cls-2"
         d="m 382.65211,166.84237 a 24.261169,24.261169 0 0 1 -4.40544,3.47432 c -1.58082,0.99365 -3.22069,1.85876 -4.86405,2.70997 -0.1216,0.0625 -0.51072,0.0903 -0.59758,-0.0799 -0.0869,-0.17024 0.15635,-0.47251 0.27795,-0.53505 a 51.336535,51.336535 0 0 0 6.42401,-3.59592 c 0.59759,-0.40302 1.18475,-0.82341 1.73716,-1.28202 l 0.67055,-0.61843 c 0.30226,-0.28142 0.60453,-0.54199 0.67401,-0.47598 0.1494,0.10076 0.18414,0.28837 0.0834,0.40302 z"
         id="path14803"
         style="fill:#e8af94;stroke-width:0.347432" />
      <path
         class="cls-2"
         d="m 384.29199,164.83769 a 4.4019621,4.4019621 0 0 1 -1.11526,1.26118 c -0.0174,0 -0.15287,-0.0799 -0.26752,-0.23278 a 0.69486378,0.69486378 0 0 1 -0.15635,-0.31964 3.6202403,3.6202403 0 0 0 0.78867,-0.58368 3.0018114,3.0018114 0 0 0 0.23278,-0.19457 c 0,0 0.0695,-0.23278 0.23626,-0.13549 0.16676,0.0973 0.29184,0.18413 0.28142,0.20498 z"
         id="path14805"
         style="fill:#e8af94;stroke-width:0.347432" />
      <path
         class="cls-2"
         d="m 385.96661,162.96851 -1.22644,1.34108 a 0.55936534,0.55936534 0 0 1 -0.30921,-0.17371 c -0.14245,-0.13203 -0.21888,-0.27795 -0.20151,-0.29532 l 0.92417,-0.79909 0.29879,-0.21541 c 0,0 0.14592,-0.25015 0.28489,-0.1216 0.13898,0.12855 0.24668,0.24667 0.22931,0.26405 z"
         id="path14807"
         style="fill:#e8af94;stroke-width:0.347432" />
      <path
         class="cls-11"
         d="m 390.06283,150.39842 v -14.74848 c 0,-0.18067 0.15634,-0.65665 0.34743,-0.65665 0.19109,0 0.34743,0.47598 0.34743,0.65665 l -0.14244,9.86011 -0.0764,2.90453 c 0,0.18067 0.0625,2.31043 -0.12855,2.31043 a 0.34743189,0.34743189 0 0 1 -0.34743,-0.32659 z"
         id="path14809"
         style="fill:#eec2ae;stroke-width:0.347432" />
      <path
         class="cls-7"
         d="m 337.51028,163.93089 a 24.365398,24.365398 0 0 1 -2.3,-5.67009 c -0.0208,-0.0764 0,-0.28489 0.10076,-0.30921 0.10075,-0.0243 0.21541,0.14592 0.23625,0.21888 a 23.46555,23.46555 0 0 0 1.29592,3.82175 c 0.15287,0.36828 0.31269,0.73308 0.48641,1.09441 0.0278,0.0695 0.47945,0.82342 0.39607,0.86858 a 0.15287003,0.15287003 0 0 1 -0.21541,-0.0243 z"
         id="path14811"
         style="fill:#ffffff;stroke-width:0.347432" />
      <path
         class="cls-12"
         d="m 339.71647,167.82213 a 11.499996,11.499996 0 0 1 -1.85876,-2.85242 0.19803618,0.19803618 0 0 1 0.0973,-0.20498 0.20498482,0.20498482 0 0 1 0.21889,0.0625 11.117821,11.117821 0 0 0 1.04229,1.95256 c 0.11813,0.18414 0.23973,0.36481 0.36828,0.542 0.0243,0.0347 0.34743,0.3787 0.29184,0.44124 -0.0556,0.0625 -0.13202,0.0903 -0.15982,0.0591 z"
         id="path14813"
         style="opacity:0.45;fill:#ffffff;stroke-width:0.347432" />
      <path
         class="cls-8"
         d="m 381.58896,86.029714 a 20.866759,20.866759 0 0 0 -10.48201,-4.631267 c -0.14245,-0.01737 -0.50378,-0.142447 -0.49336,-0.239728 0.0104,-0.09728 0.39607,-0.121602 0.53852,-0.10423 a 21.169025,21.169025 0 0 1 7.40377,2.560573 20.366457,20.366457 0 0 1 1.9352,1.268127 c 0.0625,0.03822 0.43429,0.30574 0.78172,0.580211 0.34744,0.274471 0.65665,0.566314 0.62538,0.601057 -0.0313,0.03474 -0.20151,0.05906 -0.30922,-0.03474 z"
         id="path14815"
         style="fill:#8898a8;stroke-width:0.347432" />
      <path
         class="cls-8"
         d="m 384.2086,89.410226 a 13.410871,13.410871 0 0 0 -2.77945,-2.366011 c -1.0423,-0.674018 -2.11934,-1.254229 -3.21722,-1.827491 -0.0799,-0.04169 -0.2571,-0.222357 -0.21194,-0.305741 0.0452,-0.08338 0.29185,-0.04517 0.37176,0 a 29.045305,29.045305 0 0 1 4.23867,2.637009 13.31359,13.31359 0 0 1 1.09441,0.983232 c 0.0347,0.02779 0.25015,0.229305 0.44123,0.437764 0.19109,0.208459 0.34744,0.423867 0.31269,0.455136 a 0.17371594,0.17371594 0 0 1 -0.25015,-0.0139 z"
         id="path14817"
         style="fill:#8898a8;stroke-width:0.347432" />
      <path
         class="cls-9"
         d="m 364.08882,98.836054 -13.95286,0.138972 c -0.17024,0 -0.62191,-0.22583 -0.62538,-0.514199 -0.004,-0.288368 0.44124,-0.524622 0.61495,-0.528096 l 9.33203,0.118126 2.74818,0.08686 c 0.17024,0 2.18535,-0.114652 2.18882,0.173717 0.003,0.288368 -0.13202,0.521147 -0.30574,0.524622 z"
         id="path14819"
         style="fill:#455760;stroke-width:0.347432" />
      <path
         class="cls-9"
         d="m 370.16888,96.827897 a 33.388205,33.388205 0 0 1 -5.30529,0 33.242284,33.242284 0 0 0 -5.15936,-0.04169 0.61495445,0.61495445 0 0 1 -0.5003,-0.486405 0.60453148,0.60453148 0 0 1 0.42734,-0.552417 30.264791,30.264791 0 0 1 3.55075,0.04864 c 1.18127,0.08338 2.33475,0.229305 3.47432,0.302265 0.69487,0.06254 1.35846,0.09381 2.0429,0.111179 0.066,0 0.46903,-0.04517 0.86163,-0.05559 0.3926,-0.01042 0.7713,0 0.7852,0.145922 0.0208,0.277945 -0.066,0.517673 -0.17719,0.528096 z"
         id="path14821"
         style="fill:#455760;stroke-width:0.347432" />
      <path
         class="cls-13"
         d="m 394.68715,110.25614 a 37.706784,37.706784 0 0 0 -6.07311,0 c -0.073,0 -0.29532,-0.28837 -0.34743,-0.67054 -0.0521,-0.38218 0.14244,-0.69487 0.21888,-0.71571 a 39.409198,39.409198 0 0 1 4.20393,0.17371 c 0.40649,0.0625 0.81646,0.12855 1.21948,0.20499 0.0764,0 0.98671,-0.0591 0.95544,0.32658 -0.0313,0.38565 -0.10423,0.68792 -0.17719,0.68097 z"
         id="path14823"
         style="opacity:0.5;fill:#34454c;stroke-width:0.347432" />
      <path
         class="cls-14"
         d="m 394.90951,111.25327 h -2.41118 c -0.0313,0 -0.10771,-0.15634 -0.10771,-0.34743 0,-0.19109 0.0764,-0.34743 0.10771,-0.34743 l 1.61208,0.14244 0.47251,0.0764 c 0.0313,0 0.3787,-0.0625 0.3787,0.12855 0,0.19109 -0.0243,0.34743 -0.0521,0.34743 z"
         id="path14825"
         style="opacity:0.5;fill:#657177;stroke-width:0.347432" />
      <path
         class="cls-3"
         d="m 361.37538,148.32773 a 0.86857972,0.86857972 0 0 1 -0.86858,-0.86858 v -7.17794 a 0.868581,0.868581 0 0 1 1.73716,0 v 7.17794 a 0.86857972,0.86857972 0 0 1 -0.86858,0.86858 z"
         id="path14827"
         style="fill:#3e3127;stroke-width:0.347432" />
      <circle
         class="cls-2"
         cx="350.00046"
         cy="137.51564"
         r="7.924921"
         id="circle14829"
         style="fill:#e8af94;stroke-width:0.347432" />
      <circle
         class="cls-2"
         cx="372.67038"
         cy="137.51564"
         r="7.924921"
         id="circle14831"
         style="fill:#e8af94;stroke-width:0.347432" />
      <circle
         class="cls-7"
         cx="350.08038"
         cy="135.2226"
         r="7.924921"
         id="circle14833"
         style="fill:#ffffff;stroke-width:0.347432" />
      <rect
         class="cls-3"
         x="347.6553"
         y="130.35161"
         width="3.9294548"
         height="9.8184252"
         rx="1.9629902"
         id="rect14835"
         style="fill:#3e3127;stroke-width:0.347432" />
      <circle
         class="cls-7"
         cx="351.43536"
         cy="133.54103"
         r="1.8448633"
         id="circle14837"
         style="fill:#ffffff;stroke-width:0.347432" />
      <circle
         class="cls-7"
         cx="372.68777"
         cy="135.2226"
         r="7.924921"
         id="circle14839"
         style="fill:#ffffff;stroke-width:0.347432" />
      <rect
         class="cls-3"
         x="370.80469"
         y="130.35161"
         width="3.9294548"
         height="9.8184252"
         rx="1.9629902"
         id="rect14841"
         style="fill:#3e3127;stroke-width:0.347432" />
      <circle
         class="cls-7"
         cx="374.58475"
         cy="133.54103"
         r="1.8448633"
         id="circle14843"
         style="fill:#ffffff;stroke-width:0.347432" />
      <path
         class="cls-15"
         d="m 380.61268,135.39284 a 7.9249214,7.9249214 0 1 1 -15.84637,0 7.0215985,7.0215985 0 0 1 0.0347,-0.71919 7.9214472,7.9214472 0 0 0 15.77689,0 7.0215985,7.0215985 0 0 1 0.0347,0.71919 z"
         id="path14845"
         style="fill:#c2d9dd;stroke-width:0.347432" />
      <path
         class="cls-15"
         d="m 358.00876,136.0877 c 0,4.37764 -3.54728,7.23006 -7.92492,7.23006 a 7.9214472,7.9214472 0 0 1 -7.92144,-7.92492 6.2850429,6.2850429 0 0 0 0.0347,0.67054 c 0.3648,4.03716 3.75573,5.80906 7.8867,5.80906 4.13096,0 7.52537,-1.7719 7.89018,-5.80906 0.0347,0.23625 0.0347,-0.21888 0.0347,0.0243 z"
         id="path14847"
         style="fill:#c2d9dd;stroke-width:0.347432" />
      <path
         class="cls-3"
         d="m 365.65226,136.23362 a 7.0737132,7.0737132 0 0 0 4.28037,6.03489 6.9764323,6.9764323 0 0 0 2.52235,0.54547 7.0528675,7.0528675 0 0 0 4.79109,-1.66767 6.9486378,6.9486378 0 0 0 2.43202,-4.45408 1.5287003,1.5287003 0 0 1 0.30227,-0.54199 0.91722019,0.91722019 0 0 1 0.6358,-0.3787 0.74002993,0.74002993 0 0 1 0.59063,0.44124 1.1847427,1.1847427 0 0 1 0.19456,0.69486 8.6857972,8.6857972 0 0 1 -4.92658,6.60121 8.5294528,8.5294528 0 0 1 -8.04305,-0.46209 8.0986373,8.0986373 0 0 1 -1.83096,-1.58776 7.9909334,7.9909334 0 0 1 -1.28898,-2.01858 6.8617798,6.8617798 0 0 1 -0.69486,-1.89003 c -0.17719,-0.90332 -0.0869,-1.78927 0.14244,-1.77885 0.48293,0.004 0.8929,0.21193 0.8929,0.46208 z"
         id="path14849"
         style="fill:#3e3127;stroke-width:0.347432" />
      <path
         class="cls-3"
         d="m 342.83294,136.10507 a 7.0528675,7.0528675 0 0 0 11.5938,4.91616 6.972958,6.972958 0 0 0 2.43202,-4.45755 1.5287003,1.5287003 0 0 1 0.30227,-0.54199 0.91722019,0.91722019 0 0 1 0.6358,-0.3787 0.75045287,0.75045287 0 0 1 0.59063,0.44124 1.2021143,1.2021143 0 0 1 0.19457,0.69486 8.6857972,8.6857972 0 0 1 -4.92659,6.58384 8.5120813,8.5120813 0 0 1 -8.03957,-0.45514 8.0847401,8.0847401 0 0 1 -1.85181,-1.57387 7.9318699,7.9318699 0 0 1 -1.28898,-2.02205 6.8617798,6.8617798 0 0 1 -0.69486,-1.89003 c -0.17719,-0.90332 -0.0869,-1.7858 0.14245,-1.77885 0.49682,0.007 0.89985,0.21193 0.91027,0.46208 z"
         id="path14851"
         style="fill:#3e3127;stroke-width:0.347432" />
      <rect
         class="cls-3"
         x="396.57718"
         y="113.93892"
         width="2.0845914"
         height="0.86857969"
         id="rect14853"
         style="fill:#3e3127;stroke-width:0.347432" />
      <path
         class="cls-3"
         d="m 398.65829,132.90175 h -2.08459 v -1.61556 h 2.08459 z m 0,-2.58489 h -2.08459 v -1.61556 h 2.08459 z m 0,-2.5849 h -2.08459 v -1.61555 h 2.08459 z m 0,-2.58489 h -2.08459 v -1.61556 h 2.08459 z m 0,-2.58489 h -2.08459 v -1.61556 h 2.08459 z m 0,-2.5849 h -2.08459 v -1.61555 h 2.08459 z m 0,-2.58489 h -2.08459 v -1.6225 h 2.08459 z"
         id="path14855"
         style="fill:#3e3127;stroke-width:0.347432" />
      <rect
         class="cls-3"
         x="396.57718"
         y="133.87109"
         width="2.0845914"
         height="0.86857969"
         id="rect14857"
         style="fill:#3e3127;stroke-width:0.347432" />
      <path
         class="cls-16"
         d="m 347.91587,150.47138 h 26.60286 a 1.4592139,1.4592139 0 0 1 1.45921,1.45922 v 8.89425 a 13.070388,13.070388 0 0 1 -13.07039,13.07039 v 0 a 16.4509,16.4509 0 0 1 -16.4509,-16.4509 v -5.51374 a 1.4592139,1.4592139 0 0 1 1.45922,-1.45922 z"
         id="path14859"
         style="fill:#963b3b;stroke-width:0.347432" />
      <ellipse
         class="cls-17"
         cx="361.44833"
         cy="163.35069"
         rx="8.2306614"
         ry="5.4720521"
         id="ellipse14861"
         style="fill:#872d2d;stroke-width:0.347432" />
      <circle
         class="cls-17"
         cx="360.19064"
         cy="168.6664"
         r="1.9699388"
         id="circle14863"
         style="fill:#872d2d;stroke-width:0.347432" />
      <circle
         class="cls-17"
         cx="363.3349"
         cy="170.93512"
         r="0.87900269"
         id="circle14865"
         style="fill:#872d2d;stroke-width:0.347432" />
      <path
         class="cls-17"
         d="m 355.73308,171.35899 a 0.34743189,0.34743189 0 0 1 -0.16329,-0.0417 c -3.97809,-2.11587 -5.9932,-4.52357 -6.94169,-8.29668 a 0.34802294,0.34802294 0 1 1 0.67402,-0.17371 c 0.91722,3.60981 2.77946,5.81601 6.60121,7.86585 a 0.34743189,0.34743189 0 0 1 -0.1633,0.65665 z"
         id="path14867"
         style="fill:#872d2d;stroke-width:0.347432" />
      <path
         class="cls-7"
         d="m 372.46193,150.47138 v 4.61042 c 0,0.6497 -0.69486,1.1778 -1.56692,1.1778 h -19.7376 c -0.86511,0 -1.56345,-0.5281 -1.56345,-1.1778 v -3.42915 c 0,-0.65317 0.69487,-1.18127 1.56345,-1.18127 z"
         id="path14869"
         style="fill:#ffffff;stroke-width:0.347432" />
      <rect
         class="cls-18"
         x="349.53839"
         y="150.79797"
         width="23.368271"
         height="1.9039268"
         id="rect14871"
         style="opacity:0.7;fill:#c5d8e2;stroke-width:0.347432" />
      <path
         class="cls-3"
         d="m 371.34667,156.95446 h -20.15105 c -1.28549,0 -2.29305,-0.82341 -2.29305,-1.87266 v -4.61042 h 1.38973 v 4.61042 c 0,0.19804 0.34743,0.48293 0.90332,0.48293 h 20.15105 c 0.542,0 0.90333,-0.29184 0.90333,-0.48293 v -4.61042 h 1.38973 v 4.61042 c 0.004,1.04925 -1.00756,1.87266 -2.29306,1.87266 z"
         id="path14873"
         style="fill:#3e3127;stroke-width:0.347432" />
      <path
         class="cls-9"
         d="m 334.234,110.83983 a 15.981867,15.981867 0 0 0 -3.34924,6.20166 0.58021125,0.58021125 0 0 1 -0.59064,0.17371 c -0.27794,-0.0695 -0.44124,-0.34743 -0.41344,-0.45514 a 16.801806,16.801806 0 0 1 2.24441,-4.48534 c 0.29879,-0.3926 0.608,-0.7713 0.93806,-1.13263 0.0417,-0.0799 0.66707,-0.96239 0.88596,-0.76782 0.21888,0.19456 0.34395,0.40302 0.28489,0.46556 z"
         id="path14875"
         style="fill:#455760;stroke-width:0.347432" />
      <path
         class="cls-9"
         d="m 332.41346,110.343 a 5.753472,5.753472 0 0 0 -1.61904,2.27568 0.88595131,0.88595131 0 0 1 -0.53504,-0.0591 c -0.271,-0.0973 -0.45166,-0.27795 -0.43777,-0.31964 a 6.6706922,6.6706922 0 0 1 1.2994,-1.76843 c 0.16677,-0.1355 0.34743,-0.26752 0.5142,-0.38565 0.0208,-0.0278 0.30574,-0.40997 0.48988,-0.18414 0.18414,0.22583 0.31269,0.42039 0.28837,0.44124 z"
         id="path14877"
         style="fill:#455760;stroke-width:0.347432" />
      <rect
         class="cls-19"
         x="347.73062"
         y="188.87074"
         width="25.122799"
         height="41.431252"
         transform="rotate(-0.31999981)"
         id="rect14879"
         style="fill:#24bacc;stroke-width:0.347432" />
      <circle
         class="cls-20"
         cx="366.73975"
         cy="197.90279"
         r="2.6335337"
         id="circle14881"
         style="opacity:0.35;fill:#19a5af;stroke-width:0.347432" />
      <circle
         class="cls-20"
         cx="363.3627"
         cy="193.96638"
         r="1.1743197"
         id="circle14883"
         style="opacity:0.35;fill:#19a5af;stroke-width:0.347432" />
      <rect
         class="cls-21"
         x="350.29224"
         y="233.79973"
         width="19.415466"
         height="2.7726452"
         transform="rotate(-0.57293852)"
         id="rect14885"
         style="fill:#eba42c;stroke-width:0.347448" />
      <rect
         class="cls-21"
         x="351.92871"
         y="230.10973"
         width="19.414494"
         height="2.7725065"
         id="rect14887"
         style="fill:#eba42c;stroke-width:0.347432" />
      <rect
         class="cls-21"
         x="351.64035"
         y="230.55444"
         width="19.414494"
         height="2.2826276"
         id="rect14889"
         style="fill:#eba42c;stroke-width:0.347432" />
      <rect
         class="cls-22"
         x="351.64035"
         y="228.93889"
         width="19.414494"
         height="1.6120839"
         id="rect14891"
         style="fill:#d38a20;stroke-width:0.347432" />
      <rect
         class="cls-3"
         x="351.74805"
         y="228.0703"
         width="19.668119"
         height="1.3897275"
         id="rect14893"
         style="fill:#3e3127;stroke-width:0.347432" />
      <rect
         class="cls-3"
         x="351.64035"
         y="232.49312"
         width="19.887003"
         height="1.3897275"
         id="rect14895"
         style="fill:#3e3127;stroke-width:0.347432" />
      <rect
         class="cls-3"
         x="357.8941"
         y="229.22377"
         width="1.3897275"
         height="4.4610257"
         id="rect14897"
         style="fill:#3e3127;stroke-width:0.347432" />
      <rect
         class="cls-3"
         x="363.26193"
         y="228.87634"
         width="1.3897275"
         height="4.8084574"
         id="rect14899"
         style="fill:#3e3127;stroke-width:0.347432" />
      <circle
         class="cls-3"
         cx="361.86179"
         cy="231.14854"
         r="0.46208441"
         id="circle14901"
         style="fill:#3e3127;stroke-width:0.347432" />
      <path
         class="cls-7"
         d="m 349.15967,225.98223 h -8.76223 v -29.37884 a 6.5525655,6.5525655 0 0 1 6.55257,-6.5491 h 2.20966 z"
         id="path14903"
         style="fill:#ffffff;stroke-width:0.347432" />
      <path
         class="cls-1"
         d="m 347.19321,226.04476 v 7.31692 h -0.17024 c -3.82175,0 -6.92085,-3.27628 -6.92085,-7.31692 z"
         id="path14905"
         style="fill:#fdd2bf;stroke-width:0.347432" />
      <path
         class="cls-7"
         d="m 352.10242,234.56727 h -3.79048 a 1.0145011,1.0145011 0 0 1 -1.0145,-1.01798 v -42.29636 a 5.8750732,5.8750732 0 0 1 5.87507,-5.87507 v 0 l 1.0145,47.07355 a 2.0845913,2.0845913 0 0 1 -2.08459,2.11586 z"
         id="path14907"
         style="fill:#ffffff;stroke-width:0.347432" />
      <path
         class="cls-20"
         d="m 372.6009,224.8635 v 0 c -2.53973,0 -4.59652,-4.62432 -4.59652,-10.33263 l -0.37175,-26.30754 4.96827,-1.86223 z"
         id="path14909"
         style="opacity:0.35;fill:#19a5af;stroke-width:0.347432" />
      <path
         class="cls-3"
         d="m 351.99124,235.40458 h -3.787 a 1.7093649,1.7093649 0 0 1 -1.70937,-1.70589 v -42.30331 a 6.58036,6.58036 0 0 1 6.56994,-6.56993 h 0.69486 l 1.01103,47.75451 a 2.7794551,2.7794551 0 0 1 -2.77946,2.82462 z m 0.39607,-49.14424 a 5.1871581,5.1871581 0 0 0 -4.51661,5.13504 v 42.30331 a 0.31963733,0.31963733 0 0 0 0.31964,0.31616 h 3.78701 a 1.3897276,1.3897276 0 0 0 1.38972,-1.38973 z"
         id="path14911"
         style="fill:#3e3127;stroke-width:0.347432" />
      <path
         class="cls-3"
         d="m 347.18973,234.32059 h -0.16676 c -4.20045,0 -7.61571,-3.59244 -7.61571,-8.01178 v -7.67477 h 0.0208 c -0.0695,-0.66012 -0.066,-2.36601 -0.0521,-7.33776 0,-3.64456 0.0313,-7.2787 0.0313,-7.2787 v -6.64637 c 0,-4.41933 3.41526,-8.01178 7.61571,-8.01178 h 0.16677 v 1.38973 h -0.16677 c -3.43263,0 -6.22598,2.97054 -6.22598,6.62205 v 6.64637 c -0.0278,5.17326 -0.0556,12.85498 -0.0174,14.30725 l 0.0174,0.0174 v 7.96314 c 0,3.65151 2.77945,6.62205 6.22598,6.62205 h 0.16676 z"
         id="path14913"
         style="fill:#3e3127;stroke-width:0.347432" />
      <rect
         class="cls-3"
         x="340.10214"
         y="225.61397"
         width="7.0876102"
         height="1.3897275"
         id="rect14915"
         style="fill:#3e3127;stroke-width:0.347432" />
      <path
         class="cls-19"
         d="m 370.30438,185.37439 c 0,2.28957 -3.76269,4.14139 -8.40438,4.14139 -4.64169,0 -8.40785,-1.85182 -8.40785,-4.14139 0,-1.0423 0.77825,-1.98384 2.06374,-2.70997 1.5426,0.87205 3.82176,1.42099 6.33716,1.42099 2.51541,0 4.79804,-0.54894 6.33716,-1.42099 1.29592,0.72613 2.07417,1.67462 2.07417,2.70997 z"
         id="path14917"
         style="fill:#24bacc;stroke-width:0.347432" />
      <path
         class="cls-20"
         d="m 370.43293,185.05822 c 0,2.28611 -3.76269,4.13444 -8.40438,4.13444 -0.30574,0 -0.60453,0 -0.89985,-0.0243 a 1.2160116,1.2160116 0 0 1 0.0382,-0.27447 1.994259,1.994259 0 0 1 1.06662,-1.25076 6.6880639,6.6880639 0 0 1 1.61556,-0.5142 9.2069452,9.2069452 0 0 0 2.58489,-0.93111 3.74879,3.74879 0 0 0 1.73716,-2.0568 3.1477328,3.1477328 0 0 0 0.0174,-1.70242 c 0.0591,-0.0313 0.11813,-0.0591 0.17372,-0.0938 1.29244,0.72613 2.07069,1.67462 2.07069,2.71344 z"
         id="path14919"
         style="opacity:0.35;fill:#19a5af;stroke-width:0.347432" />
      <path
         class="cls-3"
         d="m 362.01465,190.04735 c -5.1003,0 -9.09576,-2.12281 -9.09576,-4.83278 0,-1.26118 0.85815,-2.43203 2.43202,-3.31797 l 0.34743,-0.19109 0.34743,0.19456 c 1.49744,0.84426 3.67931,1.33066 5.99668,1.33066 2.31737,0 4.51661,-0.4864 5.9932,-1.33066 l 0.34743,-0.19456 0.34743,0.19109 c 1.56345,0.879 2.43202,2.05679 2.43202,3.31797 -0.0486,2.70997 -4.04758,4.83278 -9.14788,4.83278 z m -6.31631,-6.74366 c -0.89985,0.57674 -1.38973,1.24728 -1.38973,1.91088 0,2.029 4.06148,3.44305 7.70604,3.44305 3.64456,0 7.70952,-1.41405 7.70952,-3.44305 0,-0.6636 -0.49336,-1.33414 -1.38973,-1.91435 -1.66767,0.84079 -3.93988,1.32024 -6.31631,1.32024 -2.37644,0 -4.64864,-0.47945 -6.31979,-1.31677 z"
         id="path14921"
         style="fill:#3e3127;stroke-width:0.347432" />
      <path
         class="cls-7"
         d="m 372.04501,233.85156 h 3.78701 a 1.0110268,1.0110268 0 0 0 1.01103,-1.0145 v -42.29983 a 5.8750732,5.8750732 0 0 0 -5.87508,-5.87508 v 0 l -0.99713,47.07355 a 2.0845913,2.0845913 0 0 0 2.07417,2.11586 z"
         id="path14923"
         style="fill:#ffffff;stroke-width:0.347432" />
      <line
         class="cls-7"
         x1="386.0639"
         y1="228.39342"
         x2="378.97629"
         y2="228.39342"
         id="line14925"
         style="fill:#ffffff;stroke-width:0.347432" />
      <path
         class="cls-7"
         d="m 375.13021,189.05022 v 0 a 8.7622322,8.7622322 0 0 1 8.76223,8.76223 v 27.1657 h -8.76223 z"
         id="path14927"
         style="fill:#ffffff;stroke-width:0.347432" />
      <rect
         class="cls-23"
         x="376.54773"
         y="189.19614"
         width="2.1922951"
         height="36.337898"
         id="rect14929"
         style="fill:#dbcec8;stroke-width:0.347432" />
      <path
         class="cls-1"
         d="m 376.42265,225.3221 v 7.31692 h 0.17025 c 3.82175,0 6.92084,-3.27628 6.92084,-7.31692 z"
         id="path14931"
         style="fill:#fdd2bf;stroke-width:0.347432" />
      <path
         class="cls-2"
         d="m 378.50725,225.70081 v 7.1293 a 6.601206,6.601206 0 0 1 -1.5565,0.18761 h -0.18067 v -7.31691 z"
         id="path14933"
         style="fill:#e8af94;stroke-width:0.347432" />
      <path
         class="cls-23"
         d="m 376.22462,227.44144 v 4.94396 a 1.0110268,1.0110268 0 0 1 -1.01103,1.0145 h -3.79048 a 2.0498482,2.0498482 0 0 1 -1.64335,-0.81647 7.3725048,7.3725048 0 0 0 6.44486,-5.14199 z"
         id="path14935"
         style="fill:#dbcec8;stroke-width:0.347432" />
      <circle
         class="cls-23"
         cx="373.7926"
         cy="230.08888"
         r="1.035347"
         id="circle14937"
         style="fill:#dbcec8;stroke-width:0.347432" />
      <circle
         class="cls-23"
         cx="372.46542"
         cy="228.5428"
         r="0.46208441"
         id="circle14939"
         style="fill:#dbcec8;stroke-width:0.347432" />
      <rect
         class="cls-3"
         x="383.0065"
         y="202.53058"
         width="1.0422957"
         height="1.2160115"
         id="rect14941"
         style="fill:#3e3127;stroke-width:0.347432" />
      <path
         class="cls-3"
         d="m 384.06616,210.61879 h -1.0423 v -2.00468 h 1.0423 z m 0,-3.43263 h -1.0423 v -2.00468 h 1.0423 z"
         id="path14943"
         style="fill:#3e3127;stroke-width:0.347432" />
      <rect
         class="cls-3"
         x="383.0065"
         y="212.03979"
         width="1.0422957"
         height="1.2160115"
         id="rect14945"
         style="fill:#3e3127;stroke-width:0.347432" />
      <path
         class="cls-3"
         d="m 375.53323,234.54642 h -3.78701 a 2.7794551,2.7794551 0 0 1 -2.77945,-2.82462 l 1.01102,-47.75451 h 0.69487 a 6.5768858,6.5768858 0 0 1 6.56993,6.56994 v 42.3172 a 1.7128392,1.7128392 0 0 1 -1.70936,1.69199 z m -4.16918,-49.14424 -0.97976,46.34742 a 1.3897276,1.3897276 0 0 0 1.38973,1.4071 h 3.787 a 0.31963733,0.31963733 0 0 0 0.31964,-0.31964 v -42.29983 a 5.1871581,5.1871581 0 0 0 -4.53051,-5.13505 z"
         id="path14947"
         style="fill:#3e3127;stroke-width:0.347432" />
      <path
         class="cls-3"
         d="m 376.7145,233.46243 h -0.16677 v -1.38972 h 0.16677 c 3.43262,0 6.22597,-2.97055 6.22597,-6.62205 v -11.49653 h 1.38973 v 11.49653 c 0,4.41933 -3.41873,8.01177 -7.6157,8.01177 z"
         id="path14949"
         style="fill:#3e3127;stroke-width:0.347432" />
      <path
         class="cls-3"
         d="m 384.3302,201.67937 h -1.38973 v -5.16632 c 0,-3.6515 -2.77945,-6.62205 -6.22597,-6.62205 h -0.16677 v -1.38972 h 0.16677 c 4.19697,0 7.6157,3.59244 7.6157,8.01177 z"
         id="path14951"
         style="fill:#3e3127;stroke-width:0.347432" />
      <rect
         class="cls-3"
         x="376.54773"
         y="224.7558"
         width="7.0876102"
         height="1.3897275"
         id="rect14953"
         style="fill:#3e3127;stroke-width:0.347432" />
      <path
         class="cls-24"
         d="m 340.23762,218.15111 a 0.34743189,0.34743189 0 0 1 -0.2432,-0.0973 0.34743189,0.34743189 0 0 1 0,-0.49335 l 4.26646,-4.37417 a 0.34764736,0.34764736 0 1 1 0.49683,0.48641 l -4.27341,4.37416 a 0.34743189,0.34743189 0 0 1 -0.24668,0.10423 z"
         id="path14955"
         style="fill:#3c3127;stroke-width:0.347432" />
      <path
         class="cls-24"
         d="m 341.97478,214.13133 a 0.34743189,0.34743189 0 0 1 -0.2432,-0.0973 0.34743189,0.34743189 0 0 1 0,-0.48988 l 2.5293,-2.64048 a 0.34893254,0.34893254 0 1 1 0.50378,0.48293 l -2.5293,2.63701 a 0.34743189,0.34743189 0 0 1 -0.26058,0.10771 z"
         id="path14957"
         style="fill:#3c3127;stroke-width:0.347432" />
      <path
         class="cls-3"
         d="m 361.21904,174.58663 a 15.471142,15.471142 0 0 1 -15.45725,-15.45377 v -7.11193 a 2.2478843,2.2478843 0 0 1 2.24441,-2.24441 h 26.42567 a 2.2478843,2.2478843 0 0 1 2.24094,2.24441 v 7.11193 a 15.471142,15.471142 0 0 1 -15.45377,15.45377 z m -13.20242,-23.42038 a 0.85468246,0.85468246 0 0 0 -0.85468,0.85468 v 7.11193 a 14.070992,14.070992 0 0 0 28.14198,0 v -7.11193 a 0.85468246,0.85468246 0 0 0 -0.8512,-0.85468 z"
         id="path14959"
         style="fill:#3e3127;stroke-width:0.347432" />
      <path
         class="cls-7"
         d="m 339.08415,113.39692 a 26.137301,26.137301 0 0 0 -1.73716,3.75922 c -0.25015,0.6497 -0.48988,1.30634 -0.72613,1.96299 a 9.9782439,9.9782439 0 0 0 -0.54547,1.94909 c 0,0.0938 -0.19456,0.33006 -0.38565,0.31964 -0.19109,-0.0104 -0.31964,-0.30922 -0.30227,-0.41692 a 13.963288,13.963288 0 0 1 0.88943,-2.73082 c 0.34743,-0.87205 0.69486,-1.73715 1.08399,-2.60226 q 0.34743,-0.75045 0.76087,-1.47659 c 0.0347,-0.0973 0.57326,-1.20211 0.74351,-1.09788 0.17024,0.10423 0.26752,0.24668 0.21888,0.33353 z"
         id="path14961"
         style="fill:#ffffff;stroke-width:0.347432" />
      <path
         class="cls-25"
         d="m 334.82463,124.15689 0.21889,-1.98731 a 0.5315708,0.5315708 0 0 1 0.34743,-0.0486 0.54894239,0.54894239 0 0 1 0.34743,0.12508 l -0.28837,1.31329 -0.11813,0.38217 c 0,0.0243 0.0278,0.31617 -0.16329,0.29532 a 0.76087584,0.76087584 0 0 1 -0.34396,-0.0799 z"
         id="path14963"
         style="opacity:0.8;fill:#ffffff;stroke-width:0.347432" />
      <path
         class="cls-3"
         d="M 340.4704,108.24104 A 17.256942,17.256942 0 1 1 349.25,76.127909 h 15.87069 a 28.882012,28.882012 0 0 1 28.83685,28.836841 0.86857972,0.86857972 0 0 1 -0.86858,0.86858 H 349.25 a 17.211776,17.211776 0 0 1 -8.7796,2.40771 z m 0,-32.773251 a 15.519783,15.519783 0 1 0 8.08474,28.767351 0.88247699,0.88247699 0 0 1 0.45514,-0.12854 h 43.20663 A 27.148327,27.148327 0 0 0 365.11722,77.865064 h -16.10694 a 0.87900269,0.87900269 0 0 1 -0.45514,-0.125075 15.467668,15.467668 0 0 0 -8.08474,-2.2722 z"
         id="path14965"
         style="fill:#3e3127;stroke-width:0.347432" />
    </g>
    <circle
       style="opacity:0.73548387;fill:#d4e6ab;fill-opacity:1;stroke:none;stroke-width:0.560516;stroke-miterlimit:4;stroke-dasharray:none;stroke-opacity:1"
       id="path1303"
       cx="248.94563"
       cy="48.61935"
       r="32.448189" />
    <circle
       style="opacity:0.73548387;fill:#e5adac;fill-opacity:1;stroke:none;stroke-width:0.560471;stroke-miterlimit:4;stroke-dasharray:none;stroke-opacity:1"
       id="path1303-0"
       cx="298.42474"
       cy="59.022655"
       r="32.448189" />
    <circle
       style="opacity:0.73548387;fill:#8dd3f1;fill-opacity:1;stroke:none;stroke-width:0.560515;stroke-miterlimit:4;stroke-dasharray:none;stroke-opacity:1"
       id="path1303-1"
       cx="265.43869"
       cy="86.426491"
       r="32.448189" />
    <rect
       style="opacity:0.125806;fill:#6e6e6e;fill-opacity:1;stroke:#404e4d;stroke-width:0.750944;stroke-miterlimit:4;stroke-dasharray:none;stroke-opacity:1"
       id="rect1496-0"
       width="131.15384"
       height="6.1069226"
       x="202.58647"
       y="138.97517"
       rx="0.43139654"
       ry="6.1069226" />
    <rect
       style="opacity:0.125806;fill:#6e6e6e;fill-opacity:1;stroke:#404e4d;stroke-width:0.750944;stroke-miterlimit:4;stroke-dasharray:none;stroke-opacity:1"
       id="rect1496-0-8"
       width="131.15384"
       height="6.1069226"
       x="202.58649"
       y="151.08829"
       rx="0.43139654"
       ry="6.1069226" />
    <rect
       style="opacity:0.125806;fill:#6e6e6e;fill-opacity:1;stroke:#404e4d;stroke-width:0.750944;stroke-miterlimit:4;stroke-dasharray:none;stroke-opacity:1"
       id="rect1496-0-83"
       width="131.15384"
       height="6.1069226"
       x="203.2336"
       y="163.4864"
       rx="0.43139654"
       ry="6.1069226" />
    <path
       id="path1537-5"
       class="cls-6"
       d="m 373.30704,65.1091 v 11.180998 h 27.154 V 67.0932 h 8.99581 v -11.176 h -27.16501 v 9.1943 z m 34.055,-0.10318 h -22.979 v -7.0009 h 22.979 z m -31.964,2.1934 h 22.979 v 7.0009 h -22.979 z"
       fill="#24bacc"
       opacity="0.2"
       stroke-width="0.26458"
       style="opacity:0.3" />
    <rect
       style="opacity:0.125806;fill:#6e6e6e;fill-opacity:1;stroke:#404e4d;stroke-width:1.22147;stroke-miterlimit:4;stroke-dasharray:none;stroke-opacity:1"
       id="rect1496-0-5"
       width="131.48946"
       height="16.116243"
       x="68.557411"
       y="24.024082"
       rx="0.43250045"
       ry="16.116243" />
    <g
       id="table-with-plant"
       transform="matrix(0.1784901,0,0,0.17848974,71.791041,235.46395)">
      <path
         class="cls-38"
         d="m 1773.2123,-232.68298 h -308.1391 c -5.9413,0 -10.7564,-3.2941 -10.7564,-22.50631 h 329.652 c 0,19.20537 -4.8152,22.50631 -10.7565,22.50631 z"
         id="path1679-4"
         style="fill:#e7a56b;stroke-width:0.379264" />
      <path
         class="cls-39"
         d="m 1454.3168,-252.46125 h 329.652 v 0 a 4.0072842,12.95819 0 0 1 -4.0074,12.95816 h -321.6373 a 4.0072842,12.95819 0 0 1 -4.0073,-12.95816 z"
         id="path1681-4"
         style="opacity:0.7;fill:#c8935f;stroke-width:0.379264" />
      <rect
         class="cls-38"
         y="-264.74448"
         width="341.67374"
         height="12.276181"
         rx="1.8981875"
         ry="6.1380906"
         id="rect1683-6"
         x="1447.9895"
         style="fill:#e7a56b;stroke-width:0.379264" />
      <path
         class="cls-40"
         d="m 1789.8088,-255.83039 c -0.2596,1.92324 -1.2655,3.36231 -2.4656,3.36231 h -337.0337 c -1.392,0 -2.1091,-1.95058 -2.1091,-4.3308 v -3.60782 c 0,-2.046 0.8436,-3.77828 1.9636,-4.22158 a 0.74662035,2.4143155 0 0 0 -0.065,0.96842 v 3.60775 c 0,2.38036 1.1389,4.33087 2.5309,4.33087 h 336.612 a 4.67165,15.106522 0 0 0 0.5674,-0.10929 z"
         id="path1685-1"
         style="fill:#c8935f;stroke-width:0.379264" />
      <path
         class="cls-40"
         d="m 1468.5384,-260.89088 a 100.13571,323.80472 0 0 0 10.0625,1.57542 c 1.2908,0 2.3369,-0.0608 3.0582,-0.0893 0.7213,-0.0267 1.1242,0 1.1263,0.11606 0,0.11605 -0.3944,0.32048 -1.1157,0.55922 -0.7213,0.23888 -1.7675,0.48431 -3.0624,0.6411 a 74.404725,240.59949 0 0 1 -10.1237,-1.07074 l -2.862,-0.96165 c -0.9259,-0.34776 -1.8139,-0.56599 -2.6638,-0.68198 -1.7,-0.30011 -3.2333,-0.30695 -4.5219,-0.19089 -2.5774,0.24564 -4.1676,0.85934 -4.1782,0.58649 0,-0.10922 0.386,-0.41596 1.1031,-0.77069 0.7171,-0.35452 1.759,-0.77753 3.0561,-1.04347 a 44.061147,142.47871 0 0 1 4.562,-0.18413 c 0.8584,0.10929 1.7611,0.29335 2.687,0.6206 z"
         id="path1687-3"
         style="fill:#c8935f;stroke-width:0.379264" />
      <path
         class="cls-40"
         d="m 1499.964,-260.89088 a 100.13571,323.80472 0 0 0 10.0625,1.57542 c 1.2907,0 2.3369,-0.0608 3.0582,-0.0893 0.7213,-0.0267 1.1241,0 1.1262,0.11606 0,0.11605 -0.3944,0.32048 -1.1157,0.55922 -0.7213,0.23888 -1.7674,0.48431 -3.0624,0.6411 a 74.404725,240.59949 0 0 1 -10.1236,-1.07074 l -2.8621,-0.96842 c -0.9259,-0.34775 -1.8138,-0.56612 -2.6638,-0.68204 -1.6999,-0.30012 -3.2332,-0.30688 -4.5219,-0.19083 -2.5773,0.24564 -4.1676,0.85941 -4.1781,0.58656 0,-0.10922 0.386,-0.41603 1.103,-0.77069 0.7171,-0.35452 1.759,-0.77746 3.0561,-1.04347 a 44.061147,142.47871 0 0 1 4.562,-0.18406 c 0.8584,0.10922 1.7611,0.29328 2.687,0.6206 z"
         id="path1689-8"
         style="fill:#c8935f;stroke-width:0.379264" />
      <path
         class="cls-40"
         d="m 1610.6916,-260.89088 a 100.13571,323.80472 0 0 0 10.0625,1.57542 c 1.2907,0 2.3369,-0.0608 3.0582,-0.0893 0.7213,-0.0267 1.1241,0 1.1262,0.11606 0,0.11605 -0.3944,0.32048 -1.1157,0.55922 -0.7213,0.23888 -1.7674,0.48431 -3.0624,0.6411 a 74.404725,240.59949 0 0 1 -10.1237,-1.07074 l -2.862,-0.96842 c -0.9259,-0.34775 -1.8138,-0.56612 -2.6638,-0.68204 -1.6999,-0.30012 -3.2332,-0.30688 -4.5219,-0.1909 -2.5773,0.24571 -4.1676,0.85948 -4.1781,0.58663 0,-0.10922 0.3859,-0.41603 1.103,-0.77069 0.7172,-0.35452 1.759,-0.77753 3.0561,-1.04347 a 44.061147,142.47871 0 0 1 4.562,-0.18406 c 0.8584,0.10922 1.7611,0.29328 2.687,0.6206 z"
         id="path1691-9"
         style="fill:#c8935f;stroke-width:0.379264" />
      <path
         class="cls-40"
         d="m 1682.19,-260.89088 a 100.13571,323.80472 0 0 0 10.0625,1.57542 c 1.2907,0 2.3368,-0.0608 3.0582,-0.0893 0.7213,-0.0267 1.1241,0 1.1262,0.11606 0,0.11605 -0.3944,0.32048 -1.1157,0.55922 -0.7213,0.23888 -1.7674,0.48431 -3.0624,0.6411 a 74.404725,240.59949 0 0 1 -10.1237,-1.07074 l -2.862,-0.96842 c -0.9259,-0.34775 -1.8137,-0.56612 -2.6638,-0.68204 -1.6999,-0.30012 -3.2333,-0.30688 -4.5219,-0.1909 -2.5773,0.24571 -4.1676,0.85948 -4.1781,0.58663 0,-0.10922 0.3859,-0.41603 1.103,-0.77069 0.7171,-0.35452 1.759,-0.77753 3.0561,-1.04347 a 44.061147,142.47871 0 0 1 4.562,-0.18406 c 0.8584,0.10922 1.7611,0.29328 2.687,0.6206 z"
         id="path1693-7"
         style="fill:#c8935f;stroke-width:0.379264" />
      <path
         class="cls-40"
         d="m 1702.6545,-258.66758 a 60.166214,194.557 0 0 0 5.992,2.79632 c 0.7719,0.23887 1.3983,0.39546 1.8307,0.51144 a 2.8240809,9.1321144 0 0 1 0.6728,0.27968 2.6553531,8.5865062 0 0 1 -0.677,0.12966 c -0.4366,0 -1.0651,-0.041 -1.8433,-0.18406 a 44.712859,144.58612 0 0 1 -6.0363,-2.50981 l -1.6873,-1.10477 c -0.5463,-0.38186 -1.0736,-0.68198 -1.5796,-0.92072 -1.0104,-0.49108 -1.9278,-0.78429 -2.7019,-0.94799 -1.5459,-0.32731 -2.5077,-0.25247 -2.5098,-0.42293 a 2.5309164,8.1841205 0 0 1 0.6749,-0.25925 c 0.4345,-0.082 1.0672,-0.14325 1.8455,-0.0608 a 26.473386,85.6059 0 0 1 2.7418,0.72969 c 0.5104,0.22527 1.0546,0.49791 1.5966,0.86617 z"
         id="path1695-5"
         style="fill:#c8935f;stroke-width:0.379264" />
      <path
         class="cls-40"
         d="m 1630.7343,-258.66758 a 60.166214,194.557 0 0 0 5.992,2.79632 c 0.7719,0.23887 1.3983,0.39546 1.8307,0.51144 a 2.8240809,9.1321144 0 0 1 0.6728,0.27968 2.6553531,8.5865062 0 0 1 -0.6771,0.12966 c -0.4365,0 -1.0651,-0.041 -1.8433,-0.18406 a 44.712859,144.58612 0 0 1 -6.0362,-2.50981 l -1.6873,-1.10477 c -0.5463,-0.38186 -1.0736,-0.68198 -1.5797,-0.92072 -1.0103,-0.49108 -1.9278,-0.78429 -2.7018,-0.94799 -1.546,-0.32731 -2.5077,-0.25247 -2.5098,-0.42293 a 2.5309164,8.1841205 0 0 1 0.6749,-0.25925 c 0.4345,-0.082 1.0672,-0.14325 1.8455,-0.0608 a 26.473386,85.6059 0 0 1 2.7418,0.72969 c 0.5104,0.22527 1.0545,0.49791 1.5966,0.86617 z"
         id="path1697-1"
         style="fill:#c8935f;stroke-width:0.379264" />
      <path
         class="cls-40"
         d="m 1520.6395,-258.66758 a 60.166214,194.557 0 0 0 5.9919,2.79632 c 0.7719,0.23887 1.3983,0.39546 1.8307,0.51144 a 2.8240809,9.1321144 0 0 1 0.6728,0.27968 2.6553531,8.5865062 0 0 1 -0.677,0.12966 c -0.4366,0 -1.0651,-0.041 -1.8434,-0.18406 a 44.712859,144.58612 0 0 1 -6.0362,-2.50981 l -1.6873,-1.10477 c -0.5462,-0.38186 -1.0735,-0.68198 -1.5797,-0.92072 -1.0102,-0.49108 -1.9277,-0.78429 -2.7017,-0.94799 -1.546,-0.32731 -2.5078,-0.25247 -2.5099,-0.42293 a 2.5309164,8.1841205 0 0 1 0.6749,-0.25925 c 0.4345,-0.082 1.0672,-0.14325 1.8455,-0.0608 a 26.473386,85.6059 0 0 1 2.7418,0.72969 c 0.5104,0.22527 1.0546,0.49791 1.5966,0.86617 z"
         id="path1699-9"
         style="fill:#c8935f;stroke-width:0.379264" />
      <path
         class="cls-40"
         d="m 1742.9383,-258.66758 a 60.166214,194.557 0 0 0 5.9919,2.79632 c 0.7719,0.23887 1.3985,0.39546 1.8307,0.51144 a 2.8240809,9.1321144 0 0 1 0.6728,0.27968 2.6553531,8.5865062 0 0 1 -0.677,0.12966 c -0.4366,0 -1.0651,-0.041 -1.8433,-0.18406 a 44.712859,144.58612 0 0 1 -6.0363,-2.50981 l -1.6873,-1.10477 c -0.5462,-0.38186 -1.0735,-0.68198 -1.5797,-0.92072 -1.0102,-0.49108 -1.9277,-0.78429 -2.7016,-0.94799 -1.5461,-0.32731 -2.5078,-0.25247 -2.5099,-0.42293 a 2.5309164,8.1841205 0 0 1 0.6749,-0.25925 c 0.4344,-0.082 1.0672,-0.14325 1.8454,-0.0608 a 26.473386,85.6059 0 0 1 2.7418,0.72969 c 0.5104,0.22527 1.0546,0.49791 1.5966,0.86617 z"
         id="path1701-7"
         style="fill:#c8935f;stroke-width:0.379264" />
      <path
         class="cls-40"
         d="m 1747.7892,-258.66758 a 60.166214,194.557 0 0 0 5.992,2.79632 c 0.7719,0.23887 1.3983,0.39546 1.8307,0.51144 a 2.8240809,9.1321144 0 0 1 0.6728,0.27968 2.6553531,8.5865062 0 0 1 -0.6771,0.12966 c -0.4365,0 -1.065,-0.041 -1.8433,-0.18406 a 44.712859,144.58612 0 0 1 -6.0363,-2.50981 l -1.6872,-1.10477 c -0.5463,-0.38186 -1.0736,-0.68198 -1.5797,-0.92072 -1.0103,-0.49108 -1.9278,-0.78429 -2.7018,-0.94799 -1.546,-0.32731 -2.5077,-0.25247 -2.5098,-0.42293 a 2.5309164,8.1841205 0 0 1 0.6749,-0.25925 c 0.4345,-0.082 1.0672,-0.14325 1.8454,-0.0608 a 26.473386,85.6059 0 0 1 2.7419,0.72969 c 0.5104,0.22527 1.0545,0.49791 1.5966,0.86617 z"
         id="path1703-5"
         style="fill:#c8935f;stroke-width:0.379264" />
      <path
         class="cls-40"
         d="m 1719.7319,-260.89088 a 100.13571,323.80472 0 0 0 10.0625,1.57542 c 1.2908,0 2.3369,-0.0608 3.0582,-0.0893 0.7213,-0.0267 1.1242,0 1.1262,0.11606 0,0.11605 -0.3944,0.32048 -1.1157,0.55922 -0.7213,0.23888 -1.7674,0.48431 -3.0624,0.6411 a 74.404725,240.59949 0 0 1 -10.1236,-1.07074 l -2.8621,-0.96842 c -0.9259,-0.34775 -1.8138,-0.56612 -2.6638,-0.68204 -1.6998,-0.30012 -3.2332,-0.30688 -4.5219,-0.1909 -2.5773,0.24571 -4.1676,0.85948 -4.1781,0.58663 0,-0.10922 0.386,-0.41603 1.1031,-0.77069 0.7171,-0.35452 1.7589,-0.77753 3.056,-1.04347 a 44.061147,142.47871 0 0 1 4.562,-0.18406 c 0.8584,0.10922 1.7611,0.29328 2.687,0.6206 z"
         id="path1705-3"
         style="fill:#c8935f;stroke-width:0.379264" />
      <path
         class="cls-40"
         d="m 1719.7319,-260.89088 a 100.13571,323.80472 0 0 0 10.0625,1.57542 c 1.2908,0 2.3369,-0.0608 3.0582,-0.0893 0.7213,-0.0267 1.1242,0 1.1262,0.11606 0,0.11605 -0.3944,0.32048 -1.1157,0.55922 -0.7213,0.23888 -1.7674,0.48431 -3.0624,0.6411 a 74.404725,240.59949 0 0 1 -10.1236,-1.07074 l -2.8621,-0.96842 c -0.9259,-0.34775 -1.8138,-0.56612 -2.6638,-0.68204 -1.6998,-0.30012 -3.2332,-0.30688 -4.5219,-0.1909 -2.5773,0.24571 -4.1676,0.85948 -4.1781,0.58663 0,-0.10922 0.386,-0.41603 1.1031,-0.77069 0.717,-0.35452 1.7589,-0.77753 3.056,-1.04347 a 44.061147,142.47871 0 0 1 4.562,-0.18406 c 0.8584,0.10922 1.7611,0.29328 2.687,0.6206 z"
         id="path1707-9"
         style="fill:#c8935f;stroke-width:0.379264" />
      <path
         class="cls-40"
         d="m 1771.1939,-260.89088 a 100.13571,323.80472 0 0 0 10.0625,1.57542 c 1.2907,0 2.3368,-0.0608 3.0581,-0.0893 0.7214,-0.0267 1.1243,0 1.1263,0.11606 0,0.11605 -0.3944,0.32048 -1.1157,0.55922 -0.7213,0.23888 -1.7674,0.48431 -3.0623,0.6411 a 74.404725,240.59949 0 0 1 -10.1238,-1.07074 l -2.8619,-0.96842 c -0.9259,-0.34775 -1.814,-0.56612 -2.6639,-0.68204 -1.6999,-0.30012 -3.2333,-0.30688 -4.5219,-0.1909 -2.5773,0.24571 -4.1676,0.85948 -4.1781,0.58663 0,-0.10922 0.386,-0.41603 1.103,-0.77069 0.7171,-0.35452 1.759,-0.77753 3.0561,-1.04347 a 44.061147,142.47871 0 0 1 4.562,-0.18406 c 0.8584,0.10922 1.7611,0.29328 2.6871,0.6206 z"
         id="path1709-7"
         style="fill:#c8935f;stroke-width:0.379264" />
      <path
         class="cls-40"
         d="m 1645.9135,-260.89088 a 100.13571,323.80472 0 0 0 10.0625,1.57542 c 1.2908,0 2.3369,-0.0608 3.0582,-0.0893 0.7213,-0.0267 1.1241,0 1.1262,0.11606 0,0.11605 -0.3944,0.32048 -1.1157,0.55922 -0.7213,0.23888 -1.7674,0.48431 -3.0624,0.6411 a 74.404725,240.59949 0 0 1 -10.1236,-1.07074 l -2.8621,-0.96842 c -0.9259,-0.34775 -1.8138,-0.56612 -2.6638,-0.68204 -1.6999,-0.30012 -3.2332,-0.30688 -4.5219,-0.1909 -2.5773,0.24571 -4.1676,0.85948 -4.1781,0.58663 0,-0.10922 0.386,-0.41603 1.103,-0.77069 0.7171,-0.35452 1.759,-0.77753 3.0561,-1.04347 a 44.061147,142.47871 0 0 1 4.562,-0.18406 c 0.8584,0.10922 1.7611,0.29328 2.687,0.6206 z"
         id="path1711-7"
         style="fill:#c8935f;stroke-width:0.379264" />
      <path
         class="cls-40"
         d="m 1537.9277,-260.89088 a 100.13571,323.80472 0 0 0 10.0625,1.57542 c 1.2908,0 2.3369,-0.0608 3.0582,-0.0893 0.7213,-0.0267 1.1242,0 1.1263,0.11606 0,0.11605 -0.3943,0.32048 -1.1157,0.55922 -0.7213,0.23888 -1.7675,0.48431 -3.0624,0.6411 a 74.404725,240.59949 0 0 1 -10.1237,-1.07074 l -2.8621,-0.96842 c -0.9258,-0.34775 -1.8138,-0.56612 -2.6637,-0.68204 -1.7,-0.30012 -3.2333,-0.30688 -4.522,-0.19083 -2.5773,0.24564 -4.1675,0.85941 -4.1781,0.58656 0,-0.10922 0.386,-0.41603 1.1032,-0.77069 0.717,-0.35452 1.7589,-0.77746 3.056,-1.04347 a 44.061147,142.47871 0 0 1 4.562,-0.18406 c 0.8584,0.10922 1.761,0.29328 2.6869,0.6206 z"
         id="path1713-6"
         style="fill:#c8935f;stroke-width:0.379264" />
      <path
         class="cls-2"
         d="m 1608.0959,-461.44975 -13.7201,11.0765 17.9503,0.82287 c 4.1902,14.73288 5.0602,30.73227 2.4582,47.74772 l -3.9109,25.6305 -25.6762,-14.44668 c -53.9226,-30.34588 -73.5808,-79.88244 -55.0719,-138.49916 39.0531,15.33394 65.5276,38.63179 77.9706,67.66825 z"
         id="path15395"
         style="fill:#ffffff;stroke-width:0.755712" />
      <path
         class="cls-3"
         d="m 1586.7615,-389.89615 25.6683,14.44668 -0.2554,1.64573 -26.0035,-14.63987 c -54.3854,-30.61063 -73.924,-80.72677 -54.561,-139.99463 a 0.31127574,0.27905905 0 0 1 0.1037,0.0429 c -18.5408,58.61672 1.1174,108.14613 55.0479,138.49916 z"
         id="path15397"
         style="fill:#48a54e;stroke-width:0.755712" />
      <path
         class="cls-3"
         d="m 1610.9133,-461.28517 -13.72,11.09796 17.9502,0.83002 c 4.1903,14.73289 5.0602,30.76805 2.4583,47.74772 l -3.9109,25.6305 -25.6683,-14.44667 c -53.9305,-30.35304 -61.7124,-77.8861 -55.0719,-138.49917 39.0452,15.30532 65.5196,38.59602 77.9626,67.63964 z"
         id="path15399"
         style="fill:#48a54e;stroke-width:0.755712" />
      <path
         class="cls-4"
         d="m 1614.8083,-445.77235 a 142.06944,127.36541 0 0 1 0.7981,40.97159 l -3.9189,25.6305 -25.6682,-14.44667 c -22.6354,-12.73654 -30.3853,-11.88506 -40.6574,-30.62494 24.3513,29.26542 32.3886,-8.32884 69.4464,-21.53048 z"
         id="path15401"
         style="opacity:0.5;fill:#308732;stroke-width:0.755712" />
      <path
         class="cls-5"
         d="m 1614.8083,-439.354 a 144.40002,129.45478 0 0 1 -0.088,36.27768 l -3.9189,25.6305 -25.6683,-14.44667 q -6.0499,-3.40595 -11.5172,-7.15536 a 73.947942,66.294414 0 0 0 41.1922,-40.30615 z"
         id="path15403"
         style="fill:#308732;stroke-width:0.755712" />
      <path
         class="cls-6"
         d="m 1607.0743,-387.47048 a 1.3728058,1.230722 0 0 1 -1.8437,-0.60105 l -56.6682,-108.76148 a 1.3967501,1.2521881 0 0 1 2.5301,-1.059 l 56.6682,108.76149 a 1.3887687,1.2450327 0 0 1 -0.6864,1.66004 z"
         id="path15405"
         style="fill:#91dd4e;stroke-width:0.755712" />
      <path
         class="cls-7"
         d="m 1604.5202,-386.34709 a 1.5962858,1.4310721 0 0 1 -1.4446,-0.82286 l -56.6682,-108.76149 a 1.5962858,1.4310721 0 0 1 2.8893,-1.21641 l 56.6682,108.76149 a 1.5962858,1.4310721 0 0 1 -0.7982,1.90332 1.6681187,1.4954703 0 0 1 -0.6465,0.13595 z"
         id="path15407"
         style="fill:#181828;stroke-width:0.755712" />
      <path
         class="cls-6"
         d="m 1533.9404,-464.74121 a 2.3944287,2.1466081 0 0 1 -2.3385,-1.68867 c -0.3033,-1.27365 -7.4706,-31.48359 1.1733,-59.29648 a 2.3944454,2.146623 0 0 1 4.6132,1.15201 c -8.3326,26.78967 -1.1733,56.92806 -1.1014,57.2429 a 2.3944287,2.1466081 0 0 1 -1.8278,2.55446 2.2986516,2.0607438 0 0 1 -0.5188,0.0358 z"
         id="path15409"
         style="fill:#91dd4e;stroke-width:0.755712" />
      <path
         class="cls-7"
         d="m 1611.9509,-372.93079 a 3.1925716,2.8621441 0 0 1 -1.7,-0.43647 l -25.6683,-14.44668 c -27.4561,-15.44842 -46.2923,-35.67662 -56.0057,-60.10502 -9.7134,-24.4284 -9.8251,-51.82629 -0.407,-81.57112 a 3.1925716,2.8621441 0 0 1 4.3498,-1.84608 c 39.3006,15.41264 66.8365,39.35448 79.6387,69.23527 a 3.1925716,2.8621441 0 0 1 -0.846,3.14836 l -7.9814,6.43983 10.2561,0.47225 a 3.1925716,2.8621441 0 0 1 2.9292,2.14661 c 4.318,15.16936 5.164,31.60523 2.5301,48.84249 l -3.9189,25.6305 a 3.1925716,2.8621441 0 0 1 -1.8038,2.20385 3.1925716,2.8621441 0 0 1 -1.3728,0.28621 z m -78.617,-151.82244 c -16.4977,56.10519 2.8254,102.92987 54.6488,132.09512 l 21.478,12.0854 3.2485,-21.23711 c 2.3944,-15.74179 1.7798,-30.72512 -1.8358,-44.60652 l -15.5797,-0.71553 a 3.1925716,2.8621441 0 0 1 -1.9794,-5.00875 l 12.0759,-9.77423 c -12.1318,-26.70381 -36.946,-48.35593 -72.0563,-62.83838 z"
         id="path15411"
         style="fill:#181828;stroke-width:0.755712" />
      <ellipse
         class="cls-6"
         cx="1606.8567"
         cy="126.64986"
         rx="1.497411"
         ry="2.7925003"
         transform="matrix(0.92237431,-0.38629733,0.46211354,0.88682077,0,0)"
         id="ellipse15413"
         style="fill:#91dd4e;stroke-width:0.75704" />
      <path
         class="cls-6"
         d="m 1545.1224,-481.82106 c 1.9475,3.7351 1.7958,7.49882 -0.3432,8.39324 -2.139,0.89442 -5.4433,-1.43107 -7.3988,-5.15186 -1.9554,-3.72079 -1.7958,-7.49882 0.3432,-8.4004 1.0536,-0.43648 2.2269,0.65829 3.5438,1.55987 1.3169,0.90158 2.8653,1.70298 3.855,3.59915 z"
         id="path15415"
         style="fill:#91dd4e;stroke-width:0.755712" />
      <path
         class="cls-6"
         d="m 1559.8402,-448.01914 c -1.1334,-1.00175 -2.4743,-1.02321 -3.7273,-1.2021 -1.2531,-0.17888 -2.3466,-0.55096 -3.1048,0.13595 a 2.1789302,1.9534134 0 0 0 -0.2554,0.26475 1.524453,1.3666738 0 0 0 -1.2132,0 c -0.9099,0.37924 -1.1733,1.62427 -0.5747,2.77628 a 2.7615745,2.4757547 0 0 0 1.9475,1.48116 7.9814292,7.1553604 0 0 0 1.3568,1.58849 c 2.2348,1.98204 5.2917,2.46145 6.8321,1.07331 1.5405,-1.38814 0.9738,-4.1358 -1.261,-6.11784 z"
         id="path15417"
         style="fill:#91dd4e;stroke-width:0.755712" />
      <ellipse
         class="cls-6"
         cx="1589.3726"
         cy="182.16707"
         rx="1.5287704"
         ry="2.1711323"
         transform="matrix(0.92237431,-0.38629733,0.46211354,0.88682077,0,0)"
         id="ellipse15419"
         style="fill:#91dd4e;stroke-width:0.75704" />
      <ellipse
         class="cls-6"
         cx="1598.0275"
         cy="144.09834"
         rx="1.5287704"
         ry="2.1711323"
         transform="matrix(0.92237431,-0.38629733,0.46211354,0.88682077,0,0)"
         id="ellipse15421"
         style="fill:#91dd4e;stroke-width:0.75704" />
      <ellipse
         class="cls-5"
         cx="1591.6686"
         cy="217.74995"
         rx="5.0959015"
         ry="2.4196794"
         transform="matrix(0.92237431,-0.38629733,0.46211354,0.88682077,0,0)"
         id="ellipse15423"
         style="fill:#308732;stroke-width:0.75704" />
      <ellipse
         class="cls-5"
         cx="1571.7964"
         cy="-427.18283"
         id="circle15425"
         rx="1.6282115"
         ry="1.4596934"
         style="fill:#308732;stroke-width:0.755712" />
      <path
         class="cls-2"
         d="m 1643.9086,-461.44975 13.72,11.0765 -17.9502,0.82287 c -4.1902,14.73288 -5.0602,30.73227 -2.4583,47.74772 l 3.9109,25.6305 25.6763,-14.44668 c 53.9225,-30.34588 73.5808,-79.88244 55.0719,-138.49916 -39.0532,15.33394 -65.5276,38.63179 -77.9706,67.66825 z"
         id="path15427"
         style="fill:#ffffff;stroke-width:0.755712" />
      <path
         class="cls-3"
         d="m 1665.2509,-389.89615 -25.7002,14.44668 0.2554,1.64573 26.0035,-14.63987 c 54.3855,-30.61063 73.924,-80.72677 54.5611,-139.99463 l -0.1038,0.0429 c 18.5648,58.61672 -1.0935,108.14613 -55.016,138.49916 z"
         id="path15429"
         style="fill:#48a54e;stroke-width:0.755712" />
      <path
         class="cls-3"
         d="m 1641.0911,-461.28517 13.7201,11.09796 -17.9502,0.83002 c -4.1903,14.73289 -5.0603,30.76805 -2.4583,47.74772 l 3.9109,25.6305 25.6762,-14.44667 c 53.9226,-30.35304 61.7045,-77.8861 55.0719,-138.49917 -39.0531,15.30532 -65.5275,38.59602 -77.9706,67.63964 z"
         id="path15431"
         style="fill:#48a54e;stroke-width:0.755712" />
      <path
         class="cls-4"
         d="m 1637.1962,-445.77235 a 141.81403,127.13644 0 0 0 -0.7982,40.97159 l 3.9189,25.6305 25.6683,-14.44667 c 22.6353,-12.73654 30.3853,-11.88506 40.6574,-30.62494 -24.3513,29.26542 -32.3886,-8.32884 -69.4464,-21.53048 z"
         id="path15433"
         style="opacity:0.5;fill:#308732;stroke-width:0.755712" />
      <path
         class="cls-5"
         d="m 1637.2122,-439.354 a 144.40002,129.45478 0 0 0 0.088,36.27768 l 3.9189,25.6305 25.6683,-14.44667 q 6.0419,-3.40595 11.5172,-7.15536 a 73.947942,66.294414 0 0 1 -41.1921,-40.30615 z"
         id="path15435"
         style="fill:#308732;stroke-width:0.755712" />
      <path
         class="cls-6"
         d="m 1644.9302,-387.47048 a 1.3887687,1.2450327 0 0 0 1.8517,-0.60105 l 56.6681,-108.76148 a 1.392525,1.2484002 0 0 0 -2.5221,-1.059 l -56.6681,108.76149 a 1.3887687,1.2450327 0 0 0 0.6704,1.66004 z"
         id="path15437"
         style="fill:#91dd4e;stroke-width:0.755712" />
      <path
         class="cls-7"
         d="m 1647.4843,-386.34709 a 1.7000444,1.5240917 0 0 1 -0.6785,-0.12879 1.5962858,1.4310721 0 0 1 -0.7981,-1.90333 l 56.6681,-108.76149 a 1.5962858,1.4310721 0 0 1 2.8893,1.21642 l -56.6681,108.76148 a 1.5962858,1.4310721 0 0 1 -1.4127,0.81571 z"
         id="path15439"
         style="fill:#181828;stroke-width:0.755712" />
      <path
         class="cls-6"
         d="m 1718.064,-464.74121 a 2.2268187,1.9963455 0 0 1 -0.5108,-0.0501 2.3944287,2.1466081 0 0 1 -1.8357,-2.55446 c 0.08,-0.30053 7.1833,-30.47469 -1.1014,-57.2429 a 2.3944454,2.146623 0 0 1 4.6132,-1.15201 c 8.6439,27.79857 1.4766,58.02283 1.1733,59.29648 a 2.3944287,2.1466081 0 0 1 -2.3386,1.70298 z"
         id="path15441"
         style="fill:#91dd4e;stroke-width:0.755712" />
      <path
         class="cls-7"
         d="m 1640.0535,-372.93079 a 3.1925716,2.8621441 0 0 1 -1.3488,-0.26474 3.1925716,2.8621441 0 0 1 -1.8118,-2.20386 l -3.9189,-25.60187 c -2.6339,-17.23727 -1.7798,-33.67313 2.5301,-48.84249 a 3.1925716,2.8621441 0 0 1 2.9292,-2.14661 l 10.2561,-0.47226 -7.9814,-6.43982 a 3.1925716,2.8621441 0 0 1 -0.846,-3.14836 c 12.7703,-29.88079 40.3381,-53.82263 79.6387,-69.23527 a 3.1925716,2.8621441 0 0 1 2.6418,0 3.1925716,2.8621441 0 0 1 1.7081,1.8103 c 9.4181,29.75915 9.2824,57.24289 -0.4071,81.57112 -9.6894,24.32822 -28.5496,44.66376 -56.0057,60.10503 l -25.6683,14.44667 a 3.1925716,2.8621441 0 0 1 -1.716,0.42216 z m 1.0775,-73.48555 c -3.6156,13.8814 -4.2301,28.87904 -1.8277,44.60652 l 3.2404,21.23711 21.4861,-12.0854 c 51.8234,-29.16525 71.1384,-75.98993 54.6408,-132.09512 -35.1183,14.48245 -59.9405,36.13457 -72.0563,62.85985 l 12.0918,9.77422 a 3.1925716,2.8621441 0 0 1 -1.9794,5.00875 z"
         id="path15443"
         style="fill:#181828;stroke-width:0.755712" />
      <ellipse
         class="cls-6"
         cx="1133.8892"
         cy="1287.3748"
         rx="2.7925003"
         ry="1.497411"
         transform="matrix(0.46211354,-0.88682077,0.92237431,0.38629733,0,0)"
         id="ellipse15445"
         style="fill:#91dd4e;stroke-width:0.75704" />
      <path
         class="cls-6"
         d="m 1706.882,-481.82106 c -1.9474,3.7351 -1.7958,7.49882 0.3432,8.39324 2.1391,0.89442 5.4514,-1.43107 7.3988,-5.15186 1.9475,-3.72079 1.7959,-7.49882 -0.3432,-8.4004 -1.0535,-0.43648 -2.2188,0.65829 -3.5437,1.55987 -1.3249,0.90158 -2.8654,1.70298 -3.8551,3.59915 z"
         id="path15447"
         style="fill:#91dd4e;stroke-width:0.755712" />
      <path
         class="cls-6"
         d="m 1692.1643,-448.01914 c 1.1334,-1.00175 2.4742,-1.02321 3.7273,-1.2021 1.2531,-0.17888 2.3466,-0.55096 3.1048,0.13595 a 3.0329431,2.7190369 0 0 1 0.2634,0.26475 1.5084901,1.3523631 0 0 1 1.2052,0 c 0.9178,0.37924 1.1732,1.62427 0.5746,2.77628 a 2.7615745,2.4757547 0 0 1 -1.9474,1.48116 7.9814292,7.1553604 0 0 1 -1.3569,1.58849 c -2.2348,1.98204 -5.2917,2.46145 -6.8321,1.07331 -1.5404,-1.38814 -0.9737,-4.1358 1.2611,-6.11784 z"
         id="path15449"
         style="fill:#91dd4e;stroke-width:0.755712" />
      <ellipse
         class="cls-6"
         cx="1078.3719"
         cy="1304.8625"
         rx="2.1711323"
         ry="1.5287704"
         transform="matrix(0.46211354,-0.88682077,0.92237431,0.38629733,0,0)"
         id="ellipse15451"
         style="fill:#91dd4e;stroke-width:0.75704" />
      <ellipse
         class="cls-6"
         cx="1116.4398"
         cy="1296.1965"
         rx="2.1711323"
         ry="1.5287704"
         transform="matrix(0.46211354,-0.88682077,0.92237431,0.38629733,0,0)"
         id="ellipse15453"
         style="fill:#91dd4e;stroke-width:0.75704" />
      <ellipse
         class="cls-5"
         cx="1042.7883"
         cy="1302.5725"
         rx="2.4196794"
         ry="5.0959015"
         transform="matrix(0.46211354,-0.88682077,0.92237431,0.38629733,0,0)"
         id="ellipse15455"
         style="fill:#308732;stroke-width:0.75704" />
      <ellipse
         class="cls-5"
         cx="1680.208"
         cy="-427.18283"
         id="circle15457"
         rx="1.6282115"
         ry="1.4596934"
         style="fill:#308732;stroke-width:0.755712" />
      <path
         class="cls-2"
         d="m 1670.4867,-464.14732 -20.2568,5.56687 18.1976,8.66514 c -3.6235,17.12278 -11.3735,34.11676 -23.2818,50.65995 l -17.9343,24.91497 -18.8441,-26.16715 c -39.5879,-54.97464 -33.2028,-114.96519 17.7746,-167.7789 32.245,32.86457 47.1383,68.54119 44.3448,104.13912 z"
         id="path15459"
         style="fill:#ffffff;stroke-width:0.755712" />
      <path
         class="cls-3"
         d="m 1609.6124,-399.11225 18.8441,26.16715 -1.1573,1.6028 -19.0836,-26.51776 c -39.9071,-55.43973 -33.091,-115.9884 19.0836,-169.12411 l 0.088,0.093 c -50.9774,52.83518 -57.3625,112.80427 -17.7746,167.7789 z"
         id="path15461"
         style="fill:#48a54e;stroke-width:0.755712" />
      <path
         class="cls-3"
         d="m 1673.3281,-462.75202 -20.2568,5.56687 18.1976,8.66514 c -3.6236,17.12278 -11.3735,34.11676 -23.2818,50.65995 l -17.9343,24.91496 -18.8441,-26.16715 c -39.5879,-54.97463 -21.949,-107.72396 17.7746,-167.7789 32.245,32.86457 47.1383,68.57698 44.3448,104.13913 z"
         id="path15463"
         style="fill:#48a54e;stroke-width:0.755712" />
      <path
         class="cls-4"
         d="m 1668.9782,-444.94233 c -4.1343,14.49676 -11.2458,28.86472 -21.3503,42.93216 l -17.9343,24.91496 -18.876,-26.19577 c -16.6174,-23.07604 -25.1256,-25.55895 -25.6523,-49.49363 9.4899,40.98591 38.1751,5.43808 83.8129,7.84228 z"
         id="path15465"
         style="opacity:0.5;fill:#308732;stroke-width:0.755712" />
      <path
         class="cls-5"
         d="m 1665.4824,-438.28069 a 165.49493,148.3664 0 0 1 -19.7221,37.63719 l -17.9343,24.91497 -18.8442,-26.16715 q -4.4456,-6.16077 -8.1011,-12.4074 a 84.778741,76.004238 0 0 0 64.6017,-23.97761 z"
         id="path15467"
         style="fill:#308732;stroke-width:0.755712" />
      <path
         class="cls-6"
         d="m 1629.3983,-387.74954 a 1.5962858,1.4310721 0 0 1 -1.5963,-1.43107 v -137.6119 a 1.5963,1.4310848 0 0 1 3.1926,0 v 137.6119 a 1.5962858,1.4310721 0 0 1 -1.5963,1.43107 z"
         id="path15469"
         style="fill:#91dd4e;stroke-width:0.755712" />
      <path
         class="cls-7"
         d="m 1626.9081,-387.74954 a 1.5962858,1.4310721 0 0 1 -1.5963,-1.43107 v -137.6119 a 1.5963,1.4310848 0 0 1 3.1926,0 v 137.6119 a 1.5962858,1.4310721 0 0 1 -1.5963,1.43107 z"
         id="path15471"
         style="fill:#181828;stroke-width:0.755712" />
      <path
         class="cls-6"
         d="m 1596.451,-499.89551 a 2.3944287,2.1466081 0 0 1 -0.5268,-0.0501 2.3944287,2.1466081 0 0 1 -1.8118,-2.56877 c 0.3672,-1.43107 9.2585,-35.87698 33.2187,-60.93505 a 2.3945743,2.1467385 0 1 1 3.6396,2.79059 c -23.202,24.25667 -32.1013,58.74551 -32.1891,59.09612 a 2.3944287,2.1466081 0 0 1 -2.3306,1.6672 z"
         id="path15473"
         style="fill:#91dd4e;stroke-width:0.755712" />
      <path
         class="cls-7"
         d="m 1628.1452,-370.64107 a 3.1925716,2.8621441 0 0 1 -2.6897,-1.30943 l -18.8362,-26.18862 c -20.1052,-27.90591 -28.7331,-57.01391 -25.5405,-86.52262 3.1925,-29.50871 17.7906,-57.95843 43.6105,-84.67654 a 3.1925716,2.8621441 0 0 1 2.3944,-0.9946 v 0 a 3.1925716,2.8621441 0 0 1 2.3944,0.97313 c 32.3887,33.01484 48.0004,69.75046 45.135,106.22849 a 3.1925716,2.8621441 0 0 1 -2.2507,2.54016 l -12.89,3.57768 11.3895,5.42376 a 3.1925716,2.8621441 0 0 1 1.6441,3.06249 c -3.7273,17.58072 -11.7087,34.96825 -23.7367,51.67601 l -17.9343,24.91497 a 3.1925716,2.8621441 0 0 1 -2.6898,1.29512 z m -1.0535,-192.40765 c -47.9764,51.33971 -53.3718,108.69709 -15.1088,161.82564 l 16.1544,22.44636 15.2525,-21.19417 c 11.1101,-15.42696 18.6286,-31.42634 22.348,-47.57599 l -16.0986,-7.66339 a 3.1925716,2.8621441 0 0 1 0.5587,-5.26635 l 18.1418,-5.00875 c 2.0113,-33.34399 -12.2195,-66.98849 -41.248,-97.56335 z m 44.3289,99.73858 z"
         id="path15475"
         style="fill:#181828;stroke-width:0.755712" />
      <ellipse
         class="cls-6"
         cx="1625.7827"
         cy="-542.16229"
         rx="1.747933"
         ry="3.134048"
         id="ellipse15477"
         style="fill:#91dd4e;stroke-width:0.755712" />
      <path
         class="cls-6"
         d="m 1616.1093,-512.68929 c 0,4.72969 -2.1949,8.58643 -4.9006,8.58643 -2.7057,0 -4.8927,-3.84243 -4.8927,-8.58643 0,-4.74401 2.1949,-8.58644 4.8927,-8.58644 1.3329,0 1.9554,1.65289 2.8413,3.16267 0.886,1.50978 2.0593,3.02672 2.0593,5.42377 z"
         id="path15479"
         style="fill:#91dd4e;stroke-width:0.755712" />
      <path
         class="cls-6"
         d="m 1613.1003,-471.18104 c -0.6386,-1.5384 -2.0193,-2.14661 -3.1926,-2.86214 -1.1733,-0.71554 -2.147,-1.59565 -3.3043,-1.20926 a 2.7376302,2.4542886 0 0 0 -0.4151,0.16458 1.7239887,1.5455578 0 0 0 -1.2451,-0.5295 c -1.1653,0 -2.0991,1.18063 -2.0991,2.63317 a 3.1925716,2.8621441 0 0 0 1.2212,2.38274 9.0669036,8.1284894 0 0 0 0.5427,2.24678 c 1.2451,3.03387 4.1663,4.85849 6.5208,4.07855 2.3546,-0.77993 3.2166,-3.87105 1.9715,-6.90492 z"
         id="path15481"
         style="fill:#91dd4e;stroke-width:0.755712" />
      <ellipse
         class="cls-6"
         cx="1605.3822"
         cy="-479.87491"
         rx="1.7878401"
         ry="2.4399779"
         id="ellipse15483"
         style="fill:#91dd4e;stroke-width:0.755712" />
      <ellipse
         class="cls-6"
         cx="1615.4867"
         cy="-522.58514"
         rx="1.7878401"
         ry="2.4399779"
         id="ellipse15485"
         style="fill:#91dd4e;stroke-width:0.755712" />
      <ellipse
         class="cls-5"
         cx="1608.064"
         cy="-439.94797"
         rx="5.9461646"
         ry="2.7190368"
         id="ellipse15487"
         style="fill:#308732;stroke-width:0.755712" />
      <ellipse
         class="cls-5"
         cx="1614.2416"
         cy="-444.34134"
         id="circle15489"
         rx="1.8676543"
         ry="1.6743542"
         style="fill:#308732;stroke-width:0.755712" />
      <path
         class="cls-8"
         d="m 1543.135,-375.77862 h 159.469 v 36.3707 a 79.734478,71.48205 0 0 1 -79.7345,71.48205 v 0 a 79.734478,71.48205 0 0 1 -79.7345,-71.48205 z"
         id="path15491"
         style="fill:#dbdbdd;stroke-width:0.755712" />
      <path
         class="cls-9"
         d="m 1674.669,-374.10426 v 36.36354 a 81.195079,72.791481 0 0 1 -0.87,10.51838 l -0.064,-0.0644 c 0,0 -4.3898,28.81463 -36.994,39.16128 -18.3572,5.82447 -38.6061,3.29147 -55.1756,-5.87455 a 79.670627,71.424807 0 0 1 -37.9277,-60.8778 v 17.55925 a 79.734478,71.48205 0 0 0 79.7345,71.48205 v 0 a 82.775402,74.208243 0 0 0 82.5359,-71.90421 v -36.36354 z"
         id="path15493"
         style="fill:#bcbcc9;stroke-width:0.755712" />
      <path
         class="cls-10"
         d="m 1675.5629,-374.10426 v 36.36354 a 80.181438,71.88275 0 0 1 -0.87,10.52553 l -0.064,-0.0716 c 0,0 -4.3898,28.82179 -36.9939,39.16844 a 61.903965,55.496975 0 0 1 -31.4309,2.25394 60.164014,53.937107 0 0 0 9.5139,-2.25394 c 32.6041,-10.34665 36.9939,-39.16844 36.9939,-39.16844 l 0.064,0.0716 a 80.181438,71.88275 0 0 0 0.87,-10.52553 v -36.36354 z"
         id="path15495"
         style="opacity:0.5;fill:#bcbcc9;stroke-width:0.755712" />
      <ellipse
         class="cls-11"
         cx="1518.0985"
         cy="432.77686"
         rx="22.057407"
         ry="18.08736"
         transform="matrix(0.88808939,-0.45967079,0.54143963,0.84073963,0,0)"
         id="ellipse15497"
         style="fill:#e6e6ef;stroke-width:0.757404" />
      <path
         class="cls-7"
         d="m 1622.8695,-261.30001 a 83.006864,74.415748 0 0 1 -82.927,-74.35135 v -39.23284 h 165.8541 v 39.23284 a 83.006864,74.415748 0 0 1 -82.9271,74.35135 z m -76.5419,-107.8599 v 33.50855 a 76.541906,68.619906 0 1 0 153.0838,0 v -33.50855 z"
         id="path15499"
         style="fill:#181828;stroke-width:0.755712" />
      <rect
         class="cls-8"
         x="1526.9646"
         y="-386.2327"
         width="195.84831"
         height="26.338882"
         rx="14.685829"
         id="rect15501"
         style="fill:#dbdbdd;stroke-width:0.755712" />
      <path
         class="cls-10"
         d="m 1702.9871,-373.48175 a 14.68583,13.165863 0 0 1 -14.6858,13.17302 h -41.9664 a 14.693811,13.173018 0 0 0 0,-26.33888 h 41.9664 a 14.68583,13.165863 0 0 1 14.6858,13.16586 z"
         id="path15503"
         style="opacity:0.5;fill:#bcbcc9;stroke-width:0.755712" />
      <path
         class="cls-2"
         d="m 1595.174,-379.53518 h -62.4787 a 2.7935046,2.50438 0 0 1 0,-5.00876 h 62.4787 a 2.7935046,2.50438 0 0 1 0,5.00876 z"
         id="path15505"
         style="fill:#ffffff;stroke-width:0.755712" />
      <ellipse
         class="cls-2"
         cx="1556.8871"
         cy="-379.05582"
         id="circle15507"
         rx="1.3169358"
         ry="1.1806344"
         style="fill:#ffffff;stroke-width:0.755712" />
      <ellipse
         class="cls-2"
         cx="1561.7238"
         cy="-376.25815"
         id="circle15509"
         rx="1.7958215"
         ry="1.609956"
         style="fill:#ffffff;stroke-width:0.755712" />
      <path
         class="cls-9"
         d="m 1723.2679,-373.48175 a 14.68583,13.165863 0 0 1 -14.6858,13.17302 h -41.9664 a 14.693811,13.173018 0 0 0 0,-26.33888 h 41.9664 a 14.68583,13.165863 0 0 1 14.6858,13.16586 z"
         id="path15511"
         style="fill:#bcbcc9;stroke-width:0.755712" />
      <path
         class="cls-7"
         d="m 1707.5046,-357.03158 h -166.4687 a 17.886383,16.035162 0 1 1 0,-32.06316 h 166.4687 a 17.886383,16.035162 0 0 1 0,32.06316 z m -166.4687,-26.33888 a 11.501239,10.310874 0 1 0 0,20.6146 h 166.4687 a 11.501239,10.310874 0 0 0 0,-20.6146 z"
         id="path15513"
         style="fill:#181828;stroke-width:0.755712" />
      <path
         class="cls-7"
         d="m 1578.5726,-345.14652 h -35.4376 a 1.9953573,1.7888401 0 0 1 0,-3.57768 h 35.4376 a 1.9953573,1.7888401 0 0 1 0,3.57768 z"
         id="path15515"
         style="fill:#181828;stroke-width:0.755712" />
      <path
         class="cls-7"
         d="m 1600.4896,-345.14652 h -11.5012 a 1.9953573,1.7888401 0 0 1 0,-3.57768 h 11.5012 a 1.9953573,1.7888401 0 0 1 0,3.57768 z"
         id="path15517"
         style="fill:#181828;stroke-width:0.755712" />
      <ellipse
         class="cls-2"
         cx="1571.11"
         cy="-378.70523"
         id="circle15519"
         rx="4.1184173"
         ry="3.6921659"
         style="fill:#ffffff;stroke-width:0.755712" />
      <ellipse
         class="cls-2"
         cx="1579.5065"
         cy="-377.03806"
         id="circle15521"
         rx="2.0592086"
         ry="1.8460829"
         style="fill:#ffffff;stroke-width:0.755712" />
      <path
         class="cls-7"
         d="m 1686.3139,-550.07605 a 5.6588333,5.0731505 0 1 1 5.6668,-5.07315 5.6668148,5.0803059 0 0 1 -5.6668,5.07315 z m 0,-7.99969 a 3.2644045,2.9265424 0 1 0 3.2724,2.92654 3.2723859,2.9336977 0 0 0 -3.2724,-2.92654 z"
         id="path15523"
         style="fill:#181828;stroke-width:0.755712" />
      <path
         class="cls-7"
         d="m 1517.4827,-414.00255 a 5.6588333,5.0731505 0 1 1 5.6589,-5.07315 5.6668148,5.0803059 0 0 1 -5.6589,5.07315 z m 0,-7.9997 a 3.2644045,2.9265424 0 1 0 3.2644,2.92655 3.2644045,2.9265424 0 0 0 -3.2644,-2.92655 z"
         id="path15525"
         style="fill:#181828;stroke-width:0.755712" />
      <path
         class="cls-7"
         d="m 1743.4051,-404.57894 a 5.6588333,5.0731505 0 1 1 5.6588,-5.07315 5.6668148,5.0803059 0 0 1 -5.6588,5.07315 z m 0,-7.9997 a 3.2644045,2.9265424 0 1 0 3.2644,2.92655 3.2723859,2.9336977 0 0 0 -3.2644,-2.94801 z"
         id="path15527"
         style="fill:#181828;stroke-width:0.755712" />
    </g>
    <rect
       id="postit"
       style="opacity:0.5;fill:#f0b83e;fill-opacity:1;stroke-width:0.147938"
       width="14.537516"
       height="14.537516"
       x="116.27251"
       y="56.617996"
       ry="0.065698162" />
    <rect
       id="postit-2"
       style="opacity:0.5;fill:#f0b83e;fill-opacity:1;stroke-width:0.147938"
       width="14.537516"
       height="14.537516"
       x="136.22452"
       y="56.617996"
       ry="0.065698162" />
    <rect
       id="postit-8"
       style="opacity:0.5;fill:#f0b83e;fill-opacity:1;stroke-width:0.147938"
       width="14.537516"
       height="14.537516"
       x="182.98077"
       y="56.617996"
       ry="0.065698162" />
    <rect
       id="postit-4"
       style="opacity:0.5;fill:#f0b83e;fill-opacity:1;stroke-width:0.147938"
       width="14.537516"
       height="14.537516"
       x="116.27251"
       y="77.274826"
       ry="0.065698162" />
    <rect
       id="postit-27"
       style="opacity:0.5;fill:#f0b83e;fill-opacity:1;stroke-width:0.147938"
       width="14.537516"
       height="14.537516"
       x="182.98077"
       y="77.274826"
       ry="0.065698162" />
    <rect
       id="postit-1"
       style="opacity:0.5;fill:#f0b83e;fill-opacity:1;stroke-width:0.147938"
       width="14.537516"
       height="14.537516"
       x="116.27251"
       y="154.36272"
       ry="0.065698162" />
    <rect
       id="postit-9"
       style="opacity:0.5;fill:#f0b83e;fill-opacity:1;stroke-width:0.147938"
       width="14.537516"
       height="14.537516"
       x="136.22452"
       y="154.36272"
       ry="0.065698162" />
    <rect
       id="postit-42"
       style="opacity:0.5;fill:#f0b83e;fill-opacity:1;stroke-width:0.147938"
       width="14.537516"
       height="14.537516"
       x="116.27251"
       y="133.10124"
       ry="0.065698162" />
    <rect
       id="postit-27-9"
       style="opacity:0.5;fill:#f0b83e;fill-opacity:1;stroke-width:0.147938"
       width="14.537516"
       height="14.537516"
       x="151.54121"
       y="105.59113"
       ry="0.065698162" />
  </g>
</svg>
