<?xml version="1.0" encoding="UTF-8"?>
<svg id="svg1328" width="420mm" height="200mm" version="1.1" viewBox="0 0 420 200" xmlns="http://www.w3.org/2000/svg">
 <path id="path1326" class="cls-6" d="m379.93 165.48v11.181h27.154v-9.1969h8.9958v-11.176h-27.165v9.1943zm34.055-0.10318h-22.979v-7.0009h22.979zm-31.964 2.1934h22.979v7.0009h-22.979z" style="fill:#24bacc;opacity:.2;stroke-width:.26458"/>
 <g id="g12" transform="translate(6.994 -1.9235)" fill="#404e4d">
  <path id="rect833-7-8-0" d="m59.586 6.8605c-1.164 0-2.1012 0.93714-2.1012 2.1012v181.01c0 1.164 0.93715 2.1012 2.1012 2.1012h286.84c1.164 0 2.1012-0.93713 2.1012-2.1012v-181.01c0-1.164-0.93713-2.1012-2.1012-2.1012zm1.0346 1.0583h284.77c1.1507 0 2.0769 0.92615 2.0769 2.0769v178.94c0 1.1507-0.92615 2.0774-2.0769 2.0774h-284.77c-1.1507 0-2.0774-0.92666-2.0774-2.0774v-178.94c0-1.1507 0.92667-2.0769 2.0774-2.0769z" stroke-width=".15694"/>
 </g>
 <path id="path54" class="cls-6" d="m12.377 36.455v11.181h27.154v-9.1969h8.9958v-11.176h-27.165v9.1943zm34.055-0.10318h-22.979v-7.0009h22.979zm-31.964 2.1934h22.979v7.0009h-22.979z" style="fill:#24bacc;opacity:.2;stroke-width:.26458"/>
 <path id="path60" class="cls-6" d="m360.3 54.298v11.181h27.154v-9.1969h8.9958v-11.176h-27.165v9.1943zm34.055-0.10318h-22.979v-7.0009h22.979zm-31.964 2.1934h22.979v7.0009h-22.979z" style="fill:#24bacc;opacity:.2;stroke-width:.26458"/>
 <g id="table-with-coffee" transform="matrix(1.4132 0 0 1.2959 240.4 65.516)">
  <path id="path1541" class="cls-7" d="m62.612 81.126h-2.9405v-3.609h2.9405a2.7623 2.797 0 0 0 0-5.5939h-0.0891v-3.609h0.0891a6.3265 6.4059 0 0 1 0 12.812z" style="fill:#19a5af;stroke-width:.17933"/>
  <path id="path1543" class="cls-7" d="m42.859 62.901h19.737a0.81799 0.82826 0 0 1 0.81801 0.82825v20.661a3.9028 3.9518 0 0 1-3.9028 3.9536h-13.562a3.9028 3.9518 0 0 1-3.9028-3.9518v-20.665a0.81799 0.82826 0 0 1 0.81798-0.82825z" style="fill:#19a5af;stroke-width:.17933"/>
  <path id="path1545" class="cls-8" d="m63.414 81.056v3.2481c0 2.9305-2.3471 4.2243-5.2412 4.2243l-12.138-0.18047c-2.3078 0-3.8939-0.90222-3.8939-3.609 2.2045 0.22558 13.432 3.6054 21.273-3.6829z" style="fill:#eba42c;opacity:.4;stroke-width:.17933"/>
  <path id="path1547" class="cls-9" d="m63.414 63.728a0.81977 0.83006 0 0 0-0.81979-0.82645h-19.737a0.81799 0.82826 0 0 0-0.81799 0.82825v1.698h2.4184a1.415 1.4328 0 0 0-0.4295 0.99248c0 1.0033 1.178 1.8171 2.6322 1.8171s2.6322-0.8138 2.6322-1.8171a1.415 1.4328 0 0 0-0.4295-0.99248h14.551z" style="fill:#d38a20;opacity:.2;stroke-width:.17933"/>
  <ellipse id="ellipse1549" class="cls-9" transform="matrix(.93445 -.35609 .34839 .93735 0 0)" cx="21.109" cy="81.889" rx="1.222" ry=".84146" style="fill:#d38a20;opacity:.2;stroke-width:.1782"/>
  <path id="path1679" class="cls-38" d="m91.477 96.855h-81.528c-1.572 0-2.846-0.87158-2.846-5.9548h87.22c0 5.0814-1.274 5.9548-2.846 5.9548z" style="fill:#e7a56b;stroke-width:.10035"/>
  <path id="path1681" class="cls-39" d="m7.103 91.622h87.22a1.0603 3.4285 0 0 1-1.0603 3.4285h-85.1a1.0603 3.4285 0 0 1-1.0603-3.4285z" style="fill:#c8935f;opacity:.7;stroke-width:.10035"/>
  <rect id="rect1683" class="cls-38" x="5.4289" y="88.372" width="90.401" height="3.2481" rx=".50223" ry="1.624" style="fill:#e7a56b;stroke-width:.10035"/>
  <path id="path1685" class="cls-40" d="m95.869 90.73c-0.0687 0.50884-0.33483 0.88961-0.65236 0.88961h-89.174c-0.3683 0-0.55803-0.51611-0.55803-1.1459v-0.95456c0-0.54135 0.2232-0.99969 0.51954-1.117a0.19754 0.63879 0 0 0-0.0172 0.25624v0.95456c0 0.62979 0.30133 1.1459 0.66963 1.1459h89.062a1.236 3.9969 0 0 0 0.15013-0.0289z" style="fill:#c8935f;stroke-width:.10035"/>
  <path id="path1687" class="cls-40" d="m10.866 89.391a26.494 85.673 0 0 0 2.6624 0.41682c0.34152 0 0.6183-0.0161 0.80915-0.0236 0.19084-7e-3 0.29744 0 0.298 0.0307 0 0.0307-0.10436 0.0848-0.2952 0.14796-0.19084 0.0632-0.46765 0.12814-0.81026 0.16962a19.686 63.659 0 0 1-2.6786-0.2833l-0.75724-0.25445c-0.24498-0.092-0.47993-0.14974-0.7048-0.18044-0.44979-0.0794-0.85547-0.0812-1.1964-0.0505-0.68193 0.065-1.1027 0.22736-1.1055 0.15519 0-0.0289 0.10213-0.11008 0.29186-0.20393 0.18974-0.0938 0.46541-0.2057 0.8086-0.27609a11.658 37.697 0 0 1 1.207-0.0487c0.22711 0.0289 0.46595 0.0776 0.71093 0.1642z" style="fill:#c8935f;stroke-width:.10035"/>
  <path id="path1689" class="cls-40" d="m19.18 89.391a26.494 85.673 0 0 0 2.6624 0.41682c0.34149 0 0.6183-0.0161 0.80915-0.0236 0.19084-7e-3 0.29741 0 0.29797 0.0307 0 0.0307-0.10435 0.0848-0.2952 0.14796-0.19084 0.0632-0.46762 0.12814-0.81026 0.16962a19.686 63.659 0 0 1-2.6785-0.28329l-0.75727-0.25624c-0.24497-0.092-0.4799-0.14978-0.70479-0.18045-0.44977-0.0794-0.85545-0.0812-1.1964-0.0505-0.68191 0.065-1.1027 0.22738-1.1055 0.15521 0-0.0289 0.10213-0.11009 0.29184-0.20393 0.18973-0.0938 0.4654-0.2057 0.80859-0.27609a11.658 37.697 0 0 1 1.207-0.0487c0.22712 0.0289 0.46596 0.0776 0.71094 0.16421z" style="fill:#c8935f;stroke-width:.10035"/>
  <path id="path1691" class="cls-40" d="m48.477 89.391a26.494 85.673 0 0 0 2.6624 0.41682c0.3415 0 0.61831-0.0161 0.80915-0.0236 0.19085-7e-3 0.29742 0 0.29798 0.0307 0 0.0307-0.10435 0.0848-0.2952 0.14796-0.19084 0.0632-0.46762 0.12814-0.81026 0.16962a19.686 63.659 0 0 1-2.6786-0.28329l-0.75724-0.25624c-0.24498-0.092-0.4799-0.14978-0.7048-0.18045-0.44976-0.0794-0.85545-0.0812-1.1964-0.0505-0.68192 0.065-1.1027 0.22738-1.1055 0.15521 0-0.0289 0.1021-0.11009 0.29184-0.20393 0.18973-0.0938 0.4654-0.2057 0.80859-0.27609a11.658 37.697 0 0 1 1.207-0.0487c0.22712 0.0289 0.46596 0.0776 0.71093 0.16421z" style="fill:#c8935f;stroke-width:.10035"/>
  <path id="path1693" class="cls-40" d="m67.394 89.391a26.494 85.673 0 0 0 2.6624 0.41682c0.3415 0 0.61828-0.0161 0.80915-0.0236 0.19084-7e-3 0.29742 0 0.29797 0.0307 0 0.0307-0.10435 0.0848-0.29519 0.14796-0.19085 0.0632-0.46763 0.12814-0.81026 0.16962a19.686 63.659 0 0 1-2.6786-0.28329l-0.75723-0.25624c-0.24498-0.092-0.4799-0.14978-0.7048-0.18045-0.44977-0.0794-0.85548-0.0812-1.1964-0.0505-0.68191 0.065-1.1027 0.22738-1.1055 0.15521 0-0.0289 0.10211-0.11009 0.29184-0.20393 0.18973-0.0938 0.4654-0.2057 0.80859-0.27609a11.658 37.697 0 0 1 1.207-0.0487c0.22712 0.0289 0.46596 0.0776 0.71094 0.16421z" style="fill:#c8935f;stroke-width:.10035"/>
  <path id="path1695" class="cls-40" d="m72.809 89.98a15.919 51.477 0 0 0 1.5854 0.73986c0.20423 0.0632 0.36997 0.10464 0.48437 0.13533a0.7472 2.4162 0 0 1 0.17801 0.074 0.70256 2.2718 0 0 1-0.17912 0.0343c-0.11552 0-0.28181-0.0108-0.48773-0.0487a11.83 38.255 0 0 1-1.5971-0.66406l-0.44643-0.2923c-0.14454-0.10104-0.28406-0.18045-0.41796-0.2436-0.26731-0.12994-0.51004-0.20751-0.71486-0.25083-0.40901-0.0866-0.66349-0.0668-0.66405-0.11189a0.66964 2.1654 0 0 1 0.17857-0.0686c0.11496-0.0217 0.28236-0.0379 0.48829-0.0161a7.0044 22.65 0 0 1 0.72543 0.19307c0.13505 0.0596 0.27901 0.13173 0.42244 0.22918z" style="fill:#c8935f;stroke-width:.10035"/>
  <path id="path1697" class="cls-40" d="m53.78 89.98a15.919 51.477 0 0 0 1.5854 0.73986c0.20423 0.0632 0.36997 0.10464 0.48438 0.13533a0.7472 2.4162 0 0 1 0.17801 0.074 0.70256 2.2718 0 0 1-0.17915 0.0343c-0.11549 0-0.28181-0.0108-0.48771-0.0487a11.83 38.255 0 0 1-1.5971-0.66406l-0.44641-0.2923c-0.14454-0.10104-0.28405-0.18045-0.41796-0.2436-0.26731-0.12994-0.51006-0.20751-0.71485-0.25083-0.40905-0.0866-0.6635-0.0668-0.66405-0.11189a0.66964 2.1654 0 0 1 0.17856-0.0686c0.11497-0.0217 0.28237-0.0379 0.48829-0.0161a7.0044 22.65 0 0 1 0.72544 0.19307c0.13504 0.0596 0.279 0.13173 0.42243 0.22918z" style="fill:#c8935f;stroke-width:.10035"/>
  <path id="path1699" class="cls-40" d="m24.651 89.98a15.919 51.477 0 0 0 1.5854 0.73986c0.20423 0.0632 0.36996 0.10464 0.48437 0.13533a0.7472 2.4162 0 0 1 0.17801 0.074 0.70256 2.2718 0 0 1-0.17912 0.0343c-0.11552 0-0.28181-0.0108-0.48773-0.0487a11.83 38.255 0 0 1-1.5971-0.66406l-0.44643-0.2923c-0.14452-0.10104-0.28403-0.18045-0.41797-0.2436-0.26728-0.12994-0.51003-0.20751-0.71482-0.25083-0.40905-0.0866-0.66352-0.0668-0.66408-0.11189a0.66964 2.1654 0 0 1 0.17857-0.0686c0.11496-0.0217 0.28236-0.0379 0.48829-0.0161a7.0044 22.65 0 0 1 0.72543 0.19307c0.13505 0.0596 0.27903 0.13173 0.42244 0.22918z" style="fill:#c8935f;stroke-width:.10035"/>
  <path id="path1701" class="cls-40" d="m83.467 89.98a15.919 51.477 0 0 0 1.5854 0.73986c0.20424 0.0632 0.37 0.10464 0.48438 0.13533a0.7472 2.4162 0 0 1 0.17801 0.074 0.70256 2.2718 0 0 1-0.17912 0.0343c-0.11552 0-0.28181-0.0108-0.48771-0.0487a11.83 38.255 0 0 1-1.5971-0.66406l-0.44644-0.2923c-0.14451-0.10104-0.28403-0.18045-0.41796-0.2436-0.26728-0.12994-0.51004-0.20751-0.71482-0.25083-0.40905-0.0866-0.6635-0.0668-0.66405-0.11189a0.66964 2.1654 0 0 1 0.17856-0.0686c0.11494-0.0217 0.28237-0.0379 0.48826-0.0161a7.0044 22.65 0 0 1 0.72544 0.19307c0.13504 0.0596 0.27903 0.13173 0.42243 0.22918z" style="fill:#c8935f;stroke-width:.10035"/>
  <path id="path1703" class="cls-40" d="m84.751 89.98a15.919 51.477 0 0 0 1.5854 0.73986c0.20423 0.0632 0.36997 0.10464 0.48437 0.13533a0.7472 2.4162 0 0 1 0.17799 0.074 0.70256 2.2718 0 0 1-0.17913 0.0343c-0.11549 0-0.2818-0.0108-0.4877-0.0487a11.83 38.255 0 0 1-1.5971-0.66406l-0.4464-0.2923c-0.14454-0.10104-0.28406-0.18045-0.41796-0.2436-0.26731-0.12994-0.51007-0.20751-0.71486-0.25083-0.40904-0.0866-0.66349-0.0668-0.66405-0.11189a0.66964 2.1654 0 0 1 0.17857-0.0686c0.11496-0.0217 0.28236-0.0379 0.48826-0.0161a7.0044 22.65 0 0 1 0.72546 0.19307c0.13505 0.0596 0.27901 0.13173 0.42244 0.22918z" style="fill:#c8935f;stroke-width:.10035"/>
  <path id="path1705" class="cls-40" d="m77.327 89.391a26.494 85.673 0 0 0 2.6624 0.41682c0.34152 0 0.61831-0.0161 0.80915-0.0236 0.19084-7e-3 0.29742 0 0.29797 0.0307 0 0.0307-0.10435 0.0848-0.29519 0.14796-0.19085 0.0632-0.46763 0.12814-0.81026 0.16962a19.686 63.659 0 0 1-2.6785-0.28329l-0.75726-0.25624c-0.24498-0.092-0.4799-0.14978-0.7048-0.18045-0.44976-0.0794-0.85545-0.0812-1.1964-0.0505-0.68191 0.065-1.1027 0.22738-1.1054 0.15521 0-0.0289 0.10212-0.11009 0.29186-0.20393 0.18973-0.0938 0.46537-0.2057 0.80856-0.27609a11.658 37.697 0 0 1 1.207-0.0487c0.22712 0.0289 0.46596 0.0776 0.71094 0.16421z" style="fill:#c8935f;stroke-width:.10035"/>
  <path id="path1707" class="cls-40" d="m77.327 89.391a26.494 85.673 0 0 0 2.6624 0.41682c0.34152 0 0.61831-0.0161 0.80915-0.0236 0.19084-7e-3 0.29742 0 0.29797 0.0307 0 0.0307-0.10435 0.0848-0.29519 0.14796-0.19085 0.0632-0.46763 0.12814-0.81026 0.16962a19.686 63.659 0 0 1-2.6785-0.28329l-0.75726-0.25624c-0.24498-0.092-0.4799-0.14978-0.7048-0.18045-0.44976-0.0794-0.85545-0.0812-1.1964-0.0505-0.68191 0.065-1.1027 0.22738-1.1054 0.15521 0-0.0289 0.10212-0.11009 0.29186-0.20393 0.1897-0.0938 0.46537-0.2057 0.80856-0.27609a11.658 37.697 0 0 1 1.207-0.0487c0.22712 0.0289 0.46596 0.0776 0.71094 0.16421z" style="fill:#c8935f;stroke-width:.10035"/>
  <path id="path1709" class="cls-40" d="m90.943 89.391a26.494 85.673 0 0 0 2.6624 0.41682c0.3415 0 0.61828-0.0161 0.80912-0.0236 0.19087-7e-3 0.29745 0 0.298 0.0307 0 0.0307-0.10435 0.0848-0.29519 0.14796-0.19085 0.0632-0.46763 0.12814-0.81026 0.16962a19.686 63.659 0 0 1-2.6786-0.28329l-0.75723-0.25624c-0.24498-0.092-0.47993-0.14978-0.7048-0.18045-0.44977-0.0794-0.85548-0.0812-1.1964-0.0505-0.68191 0.065-1.1027 0.22738-1.1055 0.15521 0-0.0289 0.10211-0.11009 0.29184-0.20393 0.18973-0.0938 0.4654-0.2057 0.80859-0.27609a11.658 37.697 0 0 1 1.207-0.0487c0.22712 0.0289 0.46596 0.0776 0.71094 0.16421z" style="fill:#c8935f;stroke-width:.10035"/>
  <path id="path1711" class="cls-40" d="m57.796 89.391a26.494 85.673 0 0 0 2.6624 0.41682c0.34153 0 0.61831-0.0161 0.80915-0.0236 0.19085-7e-3 0.29742 0 0.29797 0.0307 0 0.0307-0.10435 0.0848-0.29519 0.14796-0.19084 0.0632-0.46763 0.12814-0.81026 0.16962a19.686 63.659 0 0 1-2.6785-0.28329l-0.75726-0.25624c-0.24498-0.092-0.4799-0.14978-0.7048-0.18045-0.44976-0.0794-0.85545-0.0812-1.1964-0.0505-0.68191 0.065-1.1027 0.22738-1.1054 0.15521 0-0.0289 0.10213-0.11009 0.29183-0.20393 0.18974-0.0938 0.4654-0.2057 0.8086-0.27609a11.658 37.697 0 0 1 1.207-0.0487c0.22711 0.0289 0.46595 0.0776 0.71093 0.16421z" style="fill:#c8935f;stroke-width:.10035"/>
  <path id="path1713" class="cls-40" d="m29.225 89.391a26.494 85.673 0 0 0 2.6624 0.41682c0.34152 0 0.6183-0.0161 0.80915-0.0236 0.19084-7e-3 0.29744 0 0.298 0.0307 0 0.0307-0.10435 0.0848-0.2952 0.14796-0.19084 0.0632-0.46765 0.12814-0.81026 0.16962a19.686 63.659 0 0 1-2.6786-0.28329l-0.75726-0.25624c-0.24495-0.092-0.4799-0.14978-0.70477-0.18045-0.4498-0.0794-0.85548-0.0812-1.1964-0.0505-0.68191 0.065-1.1026 0.22738-1.1055 0.15521 0-0.0289 0.10213-0.11009 0.29187-0.20393 0.18973-0.0938 0.4654-0.2057 0.80859-0.27609a11.658 37.697 0 0 1 1.207-0.0487c0.22712 0.0289 0.46593 0.0776 0.71091 0.16421z" style="fill:#c8935f;stroke-width:.10035"/>
  <g id="g1723" class="cls-41" transform="matrix(.17821 0 0 .18045 8.7029 -37.609)" style="opacity:.2">
   <path id="path1715" class="cls-42" d="m238 506.61c2.38-5.66 4.21-11 4.37-16a32.72 32.72 0 0 0-2.48-13.08c-1.41-3.69-2.86-6.64-3.75-8.75s-1.29-3.36-1-3.54 1.25 0.71 2.69 2.52a53.15 53.15 0 0 1 5.34 8.3 38.9 38.9 0 0 1 2.65 6.48 28.82 28.82 0 0 1 1.24 8.15 34.06 34.06 0 0 1-1.23 9 70.86 70.86 0 0 1-3.12 8.85c-1.2 2.91-2.43 5.67-3.49 8.33-0.53 1.33-1 2.63-1.44 3.91l-0.55 1.85-0.43 1.85a29.28 29.28 0 0 0 0.28 13.17 19.4 19.4 0 0 0 2 4.58c0.42 0.59 0.81 1.17 1.22 1.65s0.8 0.93 1.21 1.27 0.76 0.66 1.08 0.95 0.63 0.45 0.86 0.65c0.46 0.38 0.7 0.67 0.64 0.84s-0.41 0.2-1 0.11a9 9 0 0 1-1.17-0.26c-0.43-0.17-0.93-0.39-1.5-0.66a14.39 14.39 0 0 1-1.74-1.12 18.14 18.14 0 0 1-1.81-1.69 19 19 0 0 1-3.14-5.12 29.61 29.61 0 0 1-1.51-15.16c0.11-0.71 0.26-1.43 0.4-2.16s0.37-1.45 0.56-2.19q0.64-2.13 1.42-4.25c1.05-2.83 2.26-5.64 3.4-8.48z"/>
   <path id="path1717" class="cls-42" d="m254.09 522.29c0.93-3.72 2.09-7 2.92-10a48.16 48.16 0 0 0 1.62-7.9c0.51-4.51-0.29-7.37 0.41-7.67 0.3-0.13 1 0.43 1.64 1.73a16 16 0 0 1 1.56 6 32.75 32.75 0 0 1-0.65 9c-0.64 3.28-1.67 6.68-2.54 10.15a37.11 37.11 0 0 0-1.35 9.55 19.57 19.57 0 0 0 1.59 7.37c1.74 4 4.4 5.48 4.07 6.19-0.07 0.16-0.31 0.23-0.72 0.21a5 5 0 0 1-1.68-0.44 11.73 11.73 0 0 1-4.8-4.16 19.1 19.1 0 0 1-3.16-8.86 32.64 32.64 0 0 1 1.09-11.17z"/>
   <ellipse id="ellipse1719" class="cls-42" cx="224.5" cy="533.49" rx="2.55" ry=".5"/>
   <path id="path1721" class="cls-42" d="m223.25 493.63a82.08 82.08 0 0 0 0.4-13.7 47.42 47.42 0 0 0-1.9-10.86c-1.84-6-4.43-9.22-3.81-9.76 0.24-0.22 1.21 0.3 2.6 1.66a23.64 23.64 0 0 1 4.59 6.8 39.14 39.14 0 0 1 3.21 11.71 65.11 65.11 0 0 1 0 14.69c-0.56 5.12-1.42 9.87-2.17 14.15s-1.39 8.09-1.78 11.3c-0.84 6.42-0.79 10.48-1.53 10.58s-2-4-2.07-10.78a92.38 92.38 0 0 1 0.73-11.77c0.48-4.38 1.2-9.11 1.73-14.02z"/>
  </g>
 </g>
</svg>
