<?xml version="1.0" encoding="UTF-8" standalone="no"?>
<svg
   xmlns:dc="http://purl.org/dc/elements/1.1/"
   xmlns:cc="http://creativecommons.org/ns#"
   xmlns:rdf="http://www.w3.org/1999/02/22-rdf-syntax-ns#"
   xmlns:svg="http://www.w3.org/2000/svg"
   xmlns="http://www.w3.org/2000/svg"
   xmlns:sodipodi="http://sodipodi.sourceforge.net/DTD/sodipodi-0.dtd"
   xmlns:inkscape="http://www.inkscape.org/namespaces/inkscape"
   id="svg2584"
   width="420mm"
   height="200mm"
   version="1.1"
   viewBox="0 0 420 200"
   sodipodi:docname="MarketingPlan.svg"
   inkscape:version="1.0.1 (3bc2e813f5, 2020-09-07)">
  <metadata
     id="metadata183">
    <rdf:RDF>
      <cc:Work
         rdf:about="">
        <dc:format>image/svg+xml</dc:format>
        <dc:type
           rdf:resource="http://purl.org/dc/dcmitype/StillImage" />
        <dc:title></dc:title>
      </cc:Work>
    </rdf:RDF>
  </metadata>
  <defs
     id="defs181">
    <inkscape:path-effect
       effect="bspline"
       id="path-effect1349"
       is_visible="true"
       lpeversion="1"
       weight="33.333333"
       steps="2"
       helper_size="0"
       apply_no_weight="true"
       apply_with_weight="true"
       only_selected="false" />
    <clipPath
       clipPathUnits="userSpaceOnUse"
       id="clipPath1424">
      <g
         inkscape:label="Clip"
         id="use1426">
        <rect
           style="fill:none;fill-opacity:1;stroke:#404e4d;stroke-width:1.5875;stroke-miterlimit:4;stroke-dasharray:none;stroke-opacity:1"
           id="rect1428"
           width="18.138195"
           height="12.898273"
           x="112.05374"
           y="85.047981"
           rx="0.32641646"
           ry="2.5424712" />
      </g>
    </clipPath>
  </defs>
  <sodipodi:namedview
     pagecolor="#ffffff"
     bordercolor="#666666"
     borderopacity="1"
     objecttolerance="10"
     gridtolerance="10"
     guidetolerance="10"
     inkscape:pageopacity="0"
     inkscape:pageshadow="2"
     inkscape:window-width="1719"
     inkscape:window-height="1191"
     id="namedview179"
     showgrid="false"
     inkscape:zoom="0.65641865"
     inkscape:cx="844.66169"
     inkscape:cy="229.37211"
     inkscape:window-x="1405"
     inkscape:window-y="38"
     inkscape:window-maximized="0"
     inkscape:current-layer="svg2584"
     inkscape:document-rotation="0" />
  <g
     fill="#404e4d"
     id="g12"
     transform="translate(6.9939968)">
    <path
       id="rect833-7-8-0"
       d="m 59.586,6.8605 c -1.164,0 -2.1012,0.93714 -2.1012,2.1012 v 181.01 c 0,1.164 0.93715,2.1012 2.1012,2.1012 h 286.84 c 1.164,0 2.1012,-0.93713 2.1012,-2.1012 V 8.9617 c 0,-1.164 -0.93713,-2.1012 -2.1012,-2.1012 z m 1.0346,1.0583 h 284.77 c 1.1507,0 2.0769,0.92615 2.0769,2.0769 v 178.94 c 0,1.1507 -0.92615,2.0774 -2.0769,2.0774 h -284.77 c -1.1507,0 -2.0774,-0.92666 -2.0774,-2.0774 V 9.9957 c 0,-1.1507 0.92667,-2.0769 2.0774,-2.0769 z"
       stroke-width="0.15694" />
  </g>
  <path
     id="path1537-3"
     class="cls-6"
     d="m 10.543139,86.874928 v 11.181 h 27.154 v -9.1969 h 8.9958 v -11.176 h -27.165 v 9.1943 z m 34.055,-0.10318 h -22.979 v -7.0009 h 22.979 z m -31.964,2.1934 h 22.979 v 7.0009 h -22.979 z"
     fill="#24bacc"
     opacity="0.2"
     stroke-width="0.26458" />
  <path
     id="path1537-5"
     class="cls-6"
     d="m 373.94109,51.324581 v 11.181 h 27.154 v -9.1969 h 8.99581 v -11.176 h -27.16501 v 9.1943 z m 34.055,-0.10318 h -22.979 v -7.0009 h 22.979 z m -31.964,2.1934 h 22.979 v 7.0009 h -22.979 z"
     fill="#24bacc"
     opacity="0.2"
     stroke-width="0.26458"
     style="opacity:0.3" />
  <g
     id="g1484"
     transform="translate(2.4184261,-38.694817)">
    <rect
       style="fill:#ebefee;fill-opacity:1;stroke:#404e4d;stroke-width:0.26702;stroke-miterlimit:4;stroke-dasharray:none;stroke-opacity:1"
       id="rect1496-0-83-1"
       width="9.9103174"
       height="10.218486"
       x="273.56693"
       y="90.015511"
       rx="0.032597423"
       ry="10.218486" />
    <rect
       style="fill:#ebefee;fill-opacity:1;stroke:#404e4d;stroke-width:0.26702;stroke-miterlimit:4;stroke-dasharray:none;stroke-opacity:1"
       id="rect1496-0-83-7"
       width="9.9103174"
       height="10.218486"
       x="288.48682"
       y="90.015511"
       rx="0.032597423"
       ry="10.218486" />
    <rect
       style="fill:#ebefee;fill-opacity:1;stroke:#404e4d;stroke-width:0.26702;stroke-miterlimit:4;stroke-dasharray:none;stroke-opacity:1"
       id="rect1496-0-83-2"
       width="9.9103174"
       height="10.218486"
       x="303.4068"
       y="90.015511"
       rx="0.032597423"
       ry="10.218486" />
    <rect
       style="fill:#f0b83e;fill-opacity:1;stroke:#404e4d;stroke-width:0.26702;stroke-miterlimit:4;stroke-dasharray:none;stroke-opacity:1"
       id="rect1496-0-83-21"
       width="9.9103174"
       height="10.218486"
       x="318.32672"
       y="90.015511"
       rx="0.032597423"
       ry="10.218486" />
    <rect
       style="fill:#ebefee;fill-opacity:1;stroke:#404e4d;stroke-width:0.26702;stroke-miterlimit:4;stroke-dasharray:none;stroke-opacity:1"
       id="rect1496-0-83-6"
       width="9.9103174"
       height="10.218486"
       x="228.80711"
       y="105.23145"
       rx="0.032597423"
       ry="10.218486" />
    <rect
       style="fill:#9bc53d;fill-opacity:1;stroke:#9bc53d;stroke-width:0.26702;stroke-miterlimit:4;stroke-dasharray:none;stroke-opacity:1"
       id="rect1496-0-83-9-5"
       width="9.9103174"
       height="10.218486"
       x="243.72705"
       y="105.23145"
       rx="0.032597423"
       ry="10.218486" />
    <rect
       style="fill:#5bc0eb;fill-opacity:1;stroke:#404e4d;stroke-width:0.26702;stroke-miterlimit:4;stroke-dasharray:none;stroke-opacity:1"
       id="rect1496-0-83-8-3"
       width="9.9103174"
       height="10.218486"
       x="258.64697"
       y="105.23145"
       rx="0.032597423"
       ry="10.218486" />
    <rect
       style="fill:#ebefee;fill-opacity:1;stroke:#404e4d;stroke-width:0.26702;stroke-miterlimit:4;stroke-dasharray:none;stroke-opacity:1"
       id="rect1496-0-83-1-5"
       width="9.9103174"
       height="10.218486"
       x="273.56693"
       y="105.23145"
       rx="0.032597423"
       ry="10.218486" />
    <rect
       style="fill:#5bc0eb;fill-opacity:1;stroke:#404e4d;stroke-width:0.26702;stroke-miterlimit:4;stroke-dasharray:none;stroke-opacity:1"
       id="rect1496-0-83-7-5"
       width="9.9103174"
       height="10.218486"
       x="288.48682"
       y="105.23145"
       rx="0.032597423"
       ry="10.218486" />
    <rect
       style="fill:#9bc53d;fill-opacity:1;stroke:#404e4d;stroke-width:0.26702;stroke-miterlimit:4;stroke-dasharray:none;stroke-opacity:1"
       id="rect1496-0-83-2-5"
       width="9.9103174"
       height="10.218486"
       x="303.4068"
       y="105.23145"
       rx="0.032597423"
       ry="10.218486" />
    <rect
       style="fill:#f0b83e;fill-opacity:1;stroke:#404e4d;stroke-width:0.26702;stroke-miterlimit:4;stroke-dasharray:none;stroke-opacity:1"
       id="rect1496-0-83-21-2"
       width="9.9103174"
       height="10.218486"
       x="318.32672"
       y="105.23145"
       rx="0.032597423"
       ry="10.218486" />
    <rect
       style="fill:#ebefee;fill-opacity:1;stroke:#404e4d;stroke-width:0.26702;stroke-miterlimit:4;stroke-dasharray:none;stroke-opacity:1"
       id="rect1496-0-83-3"
       width="9.9103174"
       height="10.218486"
       x="228.80711"
       y="120.44737"
       rx="0.032597423"
       ry="10.218486" />
    <rect
       style="fill:#ebefee;fill-opacity:1;stroke:#404e4d;stroke-width:0.26702;stroke-miterlimit:4;stroke-dasharray:none;stroke-opacity:1"
       id="rect1496-0-83-9-8"
       width="9.9103174"
       height="10.218486"
       x="243.72705"
       y="120.44737"
       rx="0.032597423"
       ry="10.218486" />
    <rect
       style="fill:#9bc53d;fill-opacity:1;stroke:#9bc53d;stroke-width:0.26702;stroke-miterlimit:4;stroke-dasharray:none;stroke-opacity:1"
       id="rect1496-0-83-8-1"
       width="9.9103174"
       height="10.218486"
       x="258.64697"
       y="120.44737"
       rx="0.032597423"
       ry="10.218486" />
    <rect
       style="fill:#ebefee;fill-opacity:1;stroke:#404e4d;stroke-width:0.26702;stroke-miterlimit:4;stroke-dasharray:none;stroke-opacity:1"
       id="rect1496-0-83-1-3"
       width="9.9103174"
       height="10.218486"
       x="273.56693"
       y="120.44737"
       rx="0.032597423"
       ry="10.218486" />
    <rect
       style="fill:#9bc53d;fill-opacity:1;stroke:#404e4d;stroke-width:0.26702;stroke-miterlimit:4;stroke-dasharray:none;stroke-opacity:1"
       id="rect1496-0-83-7-6"
       width="9.9103174"
       height="10.218486"
       x="288.48682"
       y="120.44737"
       rx="0.032597423"
       ry="10.218486" />
    <rect
       style="fill:#ebefee;fill-opacity:1;stroke:#404e4d;stroke-width:0.26702;stroke-miterlimit:4;stroke-dasharray:none;stroke-opacity:1"
       id="rect1496-0-83-2-7"
       width="9.9103174"
       height="10.218486"
       x="303.4068"
       y="120.44737"
       rx="0.032597423"
       ry="10.218486" />
    <rect
       style="fill:#f0b83e;fill-opacity:1;stroke:#404e4d;stroke-width:0.26702;stroke-miterlimit:4;stroke-dasharray:none;stroke-opacity:1"
       id="rect1496-0-83-21-5"
       width="9.9103174"
       height="10.218486"
       x="318.32672"
       y="120.44737"
       rx="0.032597423"
       ry="10.218486" />
    <rect
       style="fill:#ebefee;fill-opacity:1;stroke:#404e4d;stroke-width:0.26702;stroke-miterlimit:4;stroke-dasharray:none;stroke-opacity:1"
       id="rect1496-0-83-39"
       width="9.9103174"
       height="10.218486"
       x="228.80711"
       y="135.6633"
       rx="0.032597423"
       ry="10.218486" />
    <rect
       style="fill:#9bc53d;fill-opacity:1;stroke:#404e4d;stroke-width:0.26702;stroke-miterlimit:4;stroke-dasharray:none;stroke-opacity:1"
       id="rect1496-0-83-9-2"
       width="9.9103174"
       height="10.218486"
       x="243.72705"
       y="135.6633"
       rx="0.032597423"
       ry="10.218486" />
    <rect
       style="fill:#5bc0eb;fill-opacity:1;stroke:#404e4d;stroke-width:0.26702;stroke-miterlimit:4;stroke-dasharray:none;stroke-opacity:1"
       id="rect1496-0-83-8-0"
       width="9.9103174"
       height="10.218486"
       x="258.64697"
       y="135.6633"
       rx="0.032597423"
       ry="10.218486" />
    <rect
       style="fill:#ebefee;fill-opacity:1;stroke:#404e4d;stroke-width:0.26702;stroke-miterlimit:4;stroke-dasharray:none;stroke-opacity:1"
       id="rect1496-0-83-1-1"
       width="9.9103174"
       height="10.218486"
       x="273.56693"
       y="135.6633"
       rx="0.032597423"
       ry="10.218486" />
    <rect
       style="fill:#5bc0eb;fill-opacity:1;stroke:#404e4d;stroke-width:0.26702;stroke-miterlimit:4;stroke-dasharray:none;stroke-opacity:1"
       id="rect1496-0-83-7-67"
       width="9.9103174"
       height="10.218486"
       x="288.48682"
       y="135.6633"
       rx="0.032597423"
       ry="10.218486" />
    <rect
       style="fill:#ebefee;fill-opacity:1;stroke:#404e4d;stroke-width:0.26702;stroke-miterlimit:4;stroke-dasharray:none;stroke-opacity:1"
       id="rect1496-0-83-2-6"
       width="9.9103174"
       height="10.218486"
       x="303.4068"
       y="135.6633"
       rx="0.032597423"
       ry="10.218486" />
    <rect
       style="fill:#f0b83e;fill-opacity:1;stroke:#404e4d;stroke-width:0.26702;stroke-miterlimit:4;stroke-dasharray:none;stroke-opacity:1"
       id="rect1496-0-83-21-4"
       width="9.9103174"
       height="10.218486"
       x="318.32672"
       y="135.6633"
       rx="0.032597423"
       ry="10.218486" />
    <rect
       style="fill:#ebefee;fill-opacity:1;stroke:#404e4d;stroke-width:0.26702;stroke-miterlimit:4;stroke-dasharray:none;stroke-opacity:1"
       id="rect1496-0-83-5"
       width="9.9103174"
       height="10.218486"
       x="228.80711"
       y="150.87924"
       rx="0.032597423"
       ry="10.218486" />
    <rect
       style="fill:#ebefee;fill-opacity:1;stroke:#404e4d;stroke-width:0.26702;stroke-miterlimit:4;stroke-dasharray:none;stroke-opacity:1"
       id="rect1496-0-83-9-3"
       width="9.9103174"
       height="10.218486"
       x="243.72705"
       y="150.87924"
       rx="0.032597423"
       ry="10.218486" />
    <rect
       style="fill:#9bc53d;fill-opacity:1;stroke:#404e4d;stroke-width:0.26702;stroke-miterlimit:4;stroke-dasharray:none;stroke-opacity:1"
       id="rect1496-0-83-8-4"
       width="9.9103174"
       height="10.218486"
       x="258.64697"
       y="150.87924"
       rx="0.032597423"
       ry="10.218486" />
    <rect
       style="fill:#c3423f;fill-opacity:1;stroke:#404e4d;stroke-width:0.26702;stroke-miterlimit:4;stroke-dasharray:none;stroke-opacity:1"
       id="rect1496-0-83-1-7"
       width="9.9103174"
       height="10.218486"
       x="273.56693"
       y="150.87924"
       rx="0.032597423"
       ry="10.218486" />
    <rect
       style="fill:#c3423f;fill-opacity:1;stroke:#404e4d;stroke-width:0.26702;stroke-miterlimit:4;stroke-dasharray:none;stroke-opacity:1"
       id="rect1496-0-83-7-64"
       width="9.9103174"
       height="10.218486"
       x="288.48682"
       y="150.87924"
       rx="0.032597423"
       ry="10.218486" />
    <rect
       style="fill:none;stroke:#101414;stroke-width:0.546043;stroke-miterlimit:4;stroke-dasharray:none;stroke-opacity:1"
       id="rect1311"
       width="113.66602"
       height="103.43513"
       x="221.68906"
       y="63.436272"
       rx="0.32641646"
       ry="2.707232" />
    <rect
       style="fill:#ebefee;fill-opacity:1;stroke:none;stroke-width:0.421476;stroke-miterlimit:4;stroke-dasharray:none;stroke-opacity:1"
       id="rect1496-0-83-1-0"
       width="99.237946"
       height="2.5424721"
       x="228.90309"
       y="82.627022"
       rx="0.32641754"
       ry="2.5424721" />
    <rect
       style="fill:#ebefee;fill-opacity:1;stroke:none;stroke-width:0.576595;stroke-miterlimit:4;stroke-dasharray:none;stroke-opacity:1"
       id="rect1496-0-83-1-0-0"
       width="51.229496"
       height="9.2174215"
       x="252.90732"
       y="68.212738"
       rx="0.16850618"
       ry="9.2174215" />
    <path
       style="fill:none;stroke:#404e4d;stroke-width:1.05833;stroke-linecap:round;stroke-linejoin:miter;stroke-miterlimit:4;stroke-dasharray:none;stroke-opacity:1"
       d="m 233.42807,62.660492 c -0.15801,-1.894747 0.77272,-2.968955 1.78095,-3.016123 1.46803,0.03281 2.10906,1.483881 2.1313,2.960269 -0.11439,1.455545 -0.38789,2.472802 -1.95612,2.978888 v 0"
       id="path1432"
       sodipodi:nodetypes="ccccc" />
    <path
       style="fill:none;stroke:#404e4d;stroke-width:1.05833;stroke-linecap:round;stroke-linejoin:miter;stroke-miterlimit:4;stroke-dasharray:none;stroke-opacity:1"
       d="m 319.12108,62.607309 c -0.15801,-1.894747 0.77272,-2.968955 1.78095,-3.016123 1.46803,0.03281 2.10906,1.483881 2.1313,2.960269 -0.11439,1.455545 -0.38789,2.472802 -1.95612,2.978888 v 0"
       id="path1432-8"
       sodipodi:nodetypes="ccccc" />
  </g>
  <style
     type="text/css"
     id="style1486">
	.st0{fill:none;stroke:#000000;stroke-width:2;stroke-linecap:round;stroke-linejoin:round;stroke-miterlimit:10;}
</style>
  <rect
     style="fill:#c3cecd;fill-opacity:1;stroke:#404e4d;stroke-width:0.673287;stroke-linecap:round;stroke-miterlimit:4;stroke-dasharray:none;stroke-opacity:1"
     id="rect1633"
     width="86.113075"
     height="7.9961133"
     x="101.57755"
     y="40.497768"
     rx="0.37292197"
     ry="3.6026769" />
  <style
     type="text/css"
     id="style1504">
	.st0{fill:none;stroke:#000000;stroke-width:2;stroke-linecap:round;stroke-linejoin:round;stroke-miterlimit:10;}
</style>
  <style
     type="text/css"
     id="style1525">
	.st0{fill:none;stroke:#000000;stroke-width:2;stroke-linecap:round;stroke-linejoin:round;stroke-miterlimit:10;}
</style>
  <style
     type="text/css"
     id="style1543">
	.st0{fill:none;stroke:#000000;stroke-width:2;stroke-linecap:round;stroke-linejoin:round;stroke-miterlimit:10;}
</style>
  <style
     type="text/css"
     id="style1579">
	.st0{fill:none;stroke:#000000;stroke-width:2;stroke-linecap:round;stroke-linejoin:round;stroke-miterlimit:10;}
</style>
  <style
     type="text/css"
     id="style1597">
	.st0{fill:none;stroke:#000000;stroke-width:2;stroke-linecap:round;stroke-linejoin:round;stroke-miterlimit:10;}
</style>
  <style
     type="text/css"
     id="style1615">
	.st0{fill:none;stroke:#000000;stroke-width:2;stroke-linecap:round;stroke-linejoin:round;stroke-miterlimit:10;}
</style>
  <rect
     id="postit-9-9"
     style="opacity:1;fill:#f0de97;fill-opacity:1;stroke-width:0.262788"
     width="25.823503"
     height="25.823503"
     x="155.16885"
     y="151.94429"
     ry="0.11670198" />
  <g
     id="table-with-coffee"
     transform="matrix(0.84273766,0,0,0.84273766,323.56608,112.22678)">
    <path
       class="cls-7"
       d="m 62.612033,81.126421 h -2.9405 v -3.60897 h 2.9405 a 2.7622825,2.7969514 0 0 0 0,-5.5939 h -0.0891 v -3.60897 h 0.0891 a 6.3265182,6.405921 0 0 1 0,12.81184 z"
       id="path1541"
       style="fill:#19a5af;stroke-width:0.179327" />
    <path
       class="cls-7"
       d="m 42.859033,62.901121 h 19.73694 a 0.81799208,0.82825852 0 0 1 0.81801,0.82825 v 20.66137 a 3.9028381,3.9518217 0 0 1 -3.90284,3.95361 h -13.56194 a 3.9028381,3.9518217 0 0 1 -3.90281,-3.95181 v -20.66497 a 0.81799208,0.82825852 0 0 1 0.81798,-0.82825 z"
       id="path1543"
       style="fill:#19a5af;stroke-width:0.179327" />
    <path
       class="cls-8"
       d="m 63.413983,81.056041 v 3.24807 c 0,2.93048 -2.34707,4.2243 -5.24121,4.2243 l -12.13803,-0.18047 c -2.30782,0 -3.89392,-0.90222 -3.89392,-3.60896 2.20448,0.22558 13.43183,3.60537 21.27316,-3.68294 z"
       id="path1545"
       style="opacity:0.4;fill:#eba42c;stroke-width:0.179327" />
    <path
       class="cls-9"
       d="m 63.413983,63.727571 a 0.8197742,0.830063 0 0 0 -0.81979,-0.82645 h -19.73696 a 0.81799208,0.82825852 0 0 0 -0.81799,0.82825 v 1.69802 h 2.41835 a 1.4150015,1.432761 0 0 0 -0.4295,0.99248 c 0,1.0033 1.17798,1.8171 2.63218,1.8171 1.4542,0 2.63221,-0.8138 2.63221,-1.8171 a 1.4150015,1.432761 0 0 0 -0.4295,-0.99248 h 14.551 z"
       id="path1547"
       style="opacity:0.2;fill:#d38a20;stroke-width:0.179327" />
    <ellipse
       class="cls-9"
       cx="21.108593"
       cy="81.889313"
       rx="1.2220294"
       ry="0.84145886"
       transform="matrix(0.93445195,-0.35608926,0.34839298,0.93734856,0,0)"
       id="ellipse1549"
       style="opacity:0.2;fill:#d38a20;stroke-width:0.178196" />
    <path
       class="cls-38"
       d="M 91.477433,96.854761 H 9.9489629 c -1.57197,0 -2.84596,-0.87158 -2.84596,-5.95481 H 94.323403 c 0,5.08144 -1.274,5.95481 -2.84597,5.95481 z"
       id="path1679"
       style="fill:#e7a56b;stroke-width:0.100347" />
    <path
       class="cls-39"
       d="M 7.1030029,91.621751 H 94.323403 v 0 a 1.0602606,3.4285211 0 0 1 -1.06027,3.42852 H 8.1632629 a 1.0602606,3.4285211 0 0 1 -1.06026,-3.42852 z"
       id="path1681"
       style="opacity:0.7;fill:#c8935f;stroke-width:0.100347" />
    <rect
       class="cls-38"
       y="88.371811"
       width="90.401176"
       height="3.2480726"
       rx="0.50222874"
       ry="1.6240363"
       id="rect1683"
       x="5.4289203"
       style="fill:#e7a56b;stroke-width:0.100347" />
    <path
       class="cls-40"
       d="m 95.868593,90.730341 c -0.0687,0.50884 -0.33483,0.88961 -0.65236,0.88961 H 6.0427329 c -0.3683,0 -0.55803,-0.51611 -0.55803,-1.14586 v -0.95456 c 0,-0.54135 0.2232,-0.99969 0.51954,-1.11698 a 0.1975433,0.63878762 0 0 0 -0.0172,0.25624 v 0.95456 c 0,0.62979 0.30133,1.14586 0.66963,1.14586 H 95.718573 a 1.2360407,3.9969339 0 0 0 0.15013,-0.0289 z"
       id="path1685"
       style="fill:#c8935f;stroke-width:0.100347" />
    <path
       class="cls-40"
       d="m 10.865803,89.391421 a 26.49424,85.673332 0 0 0 2.66237,0.41682 c 0.34152,0 0.6183,-0.0161 0.80915,-0.0236 0.19084,-0.007 0.29744,0 0.298,0.0307 0,0.0307 -0.10436,0.0848 -0.2952,0.14796 -0.19084,0.0632 -0.46765,0.12814 -0.81026,0.16962 a 19.68625,63.658615 0 0 1 -2.67856,-0.2833 l -0.75724,-0.25445 c -0.2449801,-0.092 -0.4799301,-0.14974 -0.7048001,-0.18044 -0.44979,-0.0794 -0.85547,-0.0812 -1.19642,-0.0505 -0.68193,0.065 -1.10267,0.22736 -1.10548,0.15519 0,-0.0289 0.10213,-0.11008 0.29186,-0.20393 0.18974,-0.0938 0.46541,-0.2057 0.8086,-0.27609 a 11.657845,37.697492 0 0 1 1.20703,-0.0487 c 0.22711,0.0289 0.46595,0.0776 0.7109301,0.1642 z"
       id="path1687"
       style="fill:#c8935f;stroke-width:0.100347" />
    <path
       class="cls-40"
       d="m 19.180493,89.391421 a 26.49424,85.673332 0 0 0 2.66237,0.41682 c 0.34149,0 0.6183,-0.0161 0.80915,-0.0236 0.19084,-0.007 0.29741,0 0.29797,0.0307 0,0.0307 -0.10435,0.0848 -0.2952,0.14796 -0.19084,0.0632 -0.46762,0.12814 -0.81026,0.16962 a 19.68625,63.658615 0 0 1 -2.67853,-0.28329 l -0.75727,-0.25624 c -0.24497,-0.092 -0.4799,-0.14978 -0.70479,-0.18045 -0.44977,-0.0794 -0.85545,-0.0812 -1.19642,-0.0505 -0.68191,0.065 -1.10268,0.22738 -1.10546,0.15521 0,-0.0289 0.10213,-0.11009 0.29184,-0.20393 0.18973,-0.0938 0.4654,-0.2057 0.80859,-0.27609 a 11.657845,37.697492 0 0 1 1.20703,-0.0487 c 0.22712,0.0289 0.46596,0.0776 0.71094,0.16421 z"
       id="path1689"
       style="fill:#c8935f;stroke-width:0.100347" />
    <path
       class="cls-40"
       d="m 48.477163,89.391421 a 26.49424,85.673332 0 0 0 2.66237,0.41682 c 0.3415,0 0.61831,-0.0161 0.80915,-0.0236 0.19085,-0.007 0.29742,0 0.29798,0.0307 0,0.0307 -0.10435,0.0848 -0.2952,0.14796 -0.19084,0.0632 -0.46762,0.12814 -0.81026,0.16962 a 19.68625,63.658615 0 0 1 -2.67856,-0.28329 l -0.75724,-0.25624 c -0.24498,-0.092 -0.4799,-0.14978 -0.7048,-0.18045 -0.44976,-0.0794 -0.85545,-0.0812 -1.19641,-0.0505 -0.68192,0.065 -1.10268,0.22738 -1.10546,0.15521 0,-0.0289 0.1021,-0.11009 0.29184,-0.20393 0.18973,-0.0938 0.4654,-0.2057 0.80859,-0.27609 a 11.657845,37.697492 0 0 1 1.20703,-0.0487 c 0.22712,0.0289 0.46596,0.0776 0.71093,0.16421 z"
       id="path1691"
       style="fill:#c8935f;stroke-width:0.100347" />
    <path
       class="cls-40"
       d="m 67.394453,89.391421 a 26.49424,85.673332 0 0 0 2.66237,0.41682 c 0.3415,0 0.61828,-0.0161 0.80915,-0.0236 0.19084,-0.007 0.29742,0 0.29797,0.0307 0,0.0307 -0.10435,0.0848 -0.29519,0.14796 -0.19085,0.0632 -0.46763,0.12814 -0.81026,0.16962 a 19.68625,63.658615 0 0 1 -2.67857,-0.28329 l -0.75723,-0.25624 c -0.24498,-0.092 -0.4799,-0.14978 -0.7048,-0.18045 -0.44977,-0.0794 -0.85548,-0.0812 -1.19642,-0.0505 -0.68191,0.065 -1.10268,0.22738 -1.10546,0.15521 0,-0.0289 0.10211,-0.11009 0.29184,-0.20393 0.18973,-0.0938 0.4654,-0.2057 0.80859,-0.27609 a 11.657845,37.697492 0 0 1 1.20703,-0.0487 c 0.22712,0.0289 0.46596,0.0776 0.71094,0.16421 z"
       id="path1693"
       style="fill:#c8935f;stroke-width:0.100347" />
    <path
       class="cls-40"
       d="m 72.809023,89.979661 a 15.918977,51.47654 0 0 0 1.58538,0.73986 c 0.20423,0.0632 0.36997,0.10464 0.48437,0.13533 a 0.74720474,2.4162052 0 0 1 0.17801,0.074 0.70256217,2.2718464 0 0 1 -0.17912,0.0343 c -0.11552,0 -0.28181,-0.0108 -0.48773,-0.0487 a 11.830277,38.255078 0 0 1 -1.59708,-0.66406 l -0.44643,-0.2923 c -0.14454,-0.10104 -0.28406,-0.18045 -0.41796,-0.2436 -0.26731,-0.12994 -0.51004,-0.20751 -0.71486,-0.25083 -0.40901,-0.0866 -0.66349,-0.0668 -0.66405,-0.11189 a 0.6696383,2.1653818 0 0 1 0.17857,-0.0686 c 0.11496,-0.0217 0.28236,-0.0379 0.48829,-0.0161 a 7.0044167,22.649893 0 0 1 0.72543,0.19307 c 0.13505,0.0596 0.27901,0.13173 0.42244,0.22918 z"
       id="path1695"
       style="fill:#c8935f;stroke-width:0.100347" />
    <path
       class="cls-40"
       d="m 53.780133,89.979661 a 15.918977,51.47654 0 0 0 1.58538,0.73986 c 0.20423,0.0632 0.36997,0.10464 0.48438,0.13533 a 0.74720474,2.4162052 0 0 1 0.17801,0.074 0.70256217,2.2718464 0 0 1 -0.17915,0.0343 c -0.11549,0 -0.28181,-0.0108 -0.48771,-0.0487 a 11.830277,38.255078 0 0 1 -1.5971,-0.66406 l -0.44641,-0.2923 c -0.14454,-0.10104 -0.28405,-0.18045 -0.41796,-0.2436 -0.26731,-0.12994 -0.51006,-0.20751 -0.71485,-0.25083 -0.40905,-0.0866 -0.6635,-0.0668 -0.66405,-0.11189 a 0.6696383,2.1653818 0 0 1 0.17856,-0.0686 c 0.11497,-0.0217 0.28237,-0.0379 0.48829,-0.0161 a 7.0044167,22.649893 0 0 1 0.72544,0.19307 c 0.13504,0.0596 0.279,0.13173 0.42243,0.22918 z"
       id="path1697"
       style="fill:#c8935f;stroke-width:0.100347" />
    <path
       class="cls-40"
       d="m 24.650883,89.979661 a 15.918977,51.47654 0 0 0 1.58536,0.73986 c 0.20423,0.0632 0.36996,0.10464 0.48437,0.13533 a 0.74720474,2.4162052 0 0 1 0.17801,0.074 0.70256217,2.2718464 0 0 1 -0.17912,0.0343 c -0.11552,0 -0.28181,-0.0108 -0.48773,-0.0487 a 11.830277,38.255078 0 0 1 -1.59708,-0.66406 l -0.44643,-0.2923 c -0.14452,-0.10104 -0.28403,-0.18045 -0.41797,-0.2436 -0.26728,-0.12994 -0.51003,-0.20751 -0.71482,-0.25083 -0.40905,-0.0866 -0.66352,-0.0668 -0.66408,-0.11189 a 0.6696383,2.1653818 0 0 1 0.17857,-0.0686 c 0.11496,-0.0217 0.28236,-0.0379 0.48829,-0.0161 a 7.0044167,22.649893 0 0 1 0.72543,0.19307 c 0.13505,0.0596 0.27903,0.13173 0.42244,0.22918 z"
       id="path1699"
       style="fill:#c8935f;stroke-width:0.100347" />
    <path
       class="cls-40"
       d="m 83.467443,89.979661 a 15.918977,51.47654 0 0 0 1.58535,0.73986 c 0.20424,0.0632 0.37,0.10464 0.48438,0.13533 a 0.74720474,2.4162052 0 0 1 0.17801,0.074 0.70256217,2.2718464 0 0 1 -0.17912,0.0343 c -0.11552,0 -0.28181,-0.0108 -0.48771,-0.0487 a 11.830277,38.255078 0 0 1 -1.5971,-0.66406 l -0.44644,-0.2923 c -0.14451,-0.10104 -0.28403,-0.18045 -0.41796,-0.2436 -0.26728,-0.12994 -0.51004,-0.20751 -0.71482,-0.25083 -0.40905,-0.0866 -0.6635,-0.0668 -0.66405,-0.11189 a 0.6696383,2.1653818 0 0 1 0.17856,-0.0686 c 0.11494,-0.0217 0.28237,-0.0379 0.48826,-0.0161 a 7.0044167,22.649893 0 0 1 0.72544,0.19307 c 0.13504,0.0596 0.27903,0.13173 0.42243,0.22918 z"
       id="path1701"
       style="fill:#c8935f;stroke-width:0.100347" />
    <path
       class="cls-40"
       d="m 84.750903,89.979661 a 15.918977,51.47654 0 0 0 1.58539,0.73986 c 0.20423,0.0632 0.36997,0.10464 0.48437,0.13533 a 0.74720474,2.4162052 0 0 1 0.17799,0.074 0.70256217,2.2718464 0 0 1 -0.17913,0.0343 c -0.11549,0 -0.2818,-0.0108 -0.4877,-0.0487 a 11.830277,38.255078 0 0 1 -1.59711,-0.66406 l -0.4464,-0.2923 c -0.14454,-0.10104 -0.28406,-0.18045 -0.41796,-0.2436 -0.26731,-0.12994 -0.51007,-0.20751 -0.71486,-0.25083 -0.40904,-0.0866 -0.66349,-0.0668 -0.66405,-0.11189 a 0.6696383,2.1653818 0 0 1 0.17857,-0.0686 c 0.11496,-0.0217 0.28236,-0.0379 0.48826,-0.0161 a 7.0044167,22.649893 0 0 1 0.72546,0.19307 c 0.13505,0.0596 0.27901,0.13173 0.42244,0.22918 z"
       id="path1703"
       style="fill:#c8935f;stroke-width:0.100347" />
    <path
       class="cls-40"
       d="m 77.327413,89.391421 a 26.49424,85.673332 0 0 0 2.66237,0.41682 c 0.34152,0 0.61831,-0.0161 0.80915,-0.0236 0.19084,-0.007 0.29742,0 0.29797,0.0307 0,0.0307 -0.10435,0.0848 -0.29519,0.14796 -0.19085,0.0632 -0.46763,0.12814 -0.81026,0.16962 a 19.68625,63.658615 0 0 1 -2.67854,-0.28329 l -0.75726,-0.25624 c -0.24498,-0.092 -0.4799,-0.14978 -0.7048,-0.18045 -0.44976,-0.0794 -0.85545,-0.0812 -1.19642,-0.0505 -0.68191,0.065 -1.10268,0.22738 -1.10545,0.15521 0,-0.0289 0.10212,-0.11009 0.29186,-0.20393 0.18973,-0.0938 0.46537,-0.2057 0.80856,-0.27609 a 11.657845,37.697492 0 0 1 1.20703,-0.0487 c 0.22712,0.0289 0.46596,0.0776 0.71094,0.16421 z"
       id="path1705"
       style="fill:#c8935f;stroke-width:0.100347" />
    <path
       class="cls-40"
       d="m 77.327413,89.391421 a 26.49424,85.673332 0 0 0 2.66237,0.41682 c 0.34152,0 0.61831,-0.0161 0.80915,-0.0236 0.19084,-0.007 0.29742,0 0.29797,0.0307 0,0.0307 -0.10435,0.0848 -0.29519,0.14796 -0.19085,0.0632 -0.46763,0.12814 -0.81026,0.16962 a 19.68625,63.658615 0 0 1 -2.67854,-0.28329 l -0.75726,-0.25624 c -0.24498,-0.092 -0.4799,-0.14978 -0.7048,-0.18045 -0.44976,-0.0794 -0.85545,-0.0812 -1.19642,-0.0505 -0.68191,0.065 -1.10268,0.22738 -1.10545,0.15521 0,-0.0289 0.10212,-0.11009 0.29186,-0.20393 0.1897,-0.0938 0.46537,-0.2057 0.80856,-0.27609 a 11.657845,37.697492 0 0 1 1.20703,-0.0487 c 0.22712,0.0289 0.46596,0.0776 0.71094,0.16421 z"
       id="path1707"
       style="fill:#c8935f;stroke-width:0.100347" />
    <path
       class="cls-40"
       d="m 90.943403,89.391421 a 26.49424,85.673332 0 0 0 2.66237,0.41682 c 0.3415,0 0.61828,-0.0161 0.80912,-0.0236 0.19087,-0.007 0.29745,0 0.298,0.0307 0,0.0307 -0.10435,0.0848 -0.29519,0.14796 -0.19085,0.0632 -0.46763,0.12814 -0.81026,0.16962 a 19.68625,63.658615 0 0 1 -2.67857,-0.28329 l -0.75723,-0.25624 c -0.24498,-0.092 -0.47993,-0.14978 -0.7048,-0.18045 -0.44977,-0.0794 -0.85548,-0.0812 -1.19642,-0.0505 -0.68191,0.065 -1.10268,0.22738 -1.10546,0.15521 0,-0.0289 0.10211,-0.11009 0.29184,-0.20393 0.18973,-0.0938 0.4654,-0.2057 0.80859,-0.27609 a 11.657845,37.697492 0 0 1 1.20703,-0.0487 c 0.22712,0.0289 0.46596,0.0776 0.71094,0.16421 z"
       id="path1709"
       style="fill:#c8935f;stroke-width:0.100347" />
    <path
       class="cls-40"
       d="m 57.796293,89.391421 a 26.49424,85.673332 0 0 0 2.66237,0.41682 c 0.34153,0 0.61831,-0.0161 0.80915,-0.0236 0.19085,-0.007 0.29742,0 0.29797,0.0307 0,0.0307 -0.10435,0.0848 -0.29519,0.14796 -0.19084,0.0632 -0.46763,0.12814 -0.81026,0.16962 a 19.68625,63.658615 0 0 1 -2.67854,-0.28329 l -0.75726,-0.25624 c -0.24498,-0.092 -0.4799,-0.14978 -0.7048,-0.18045 -0.44976,-0.0794 -0.85545,-0.0812 -1.19642,-0.0505 -0.68191,0.065 -1.10267,0.22738 -1.10545,0.15521 0,-0.0289 0.10213,-0.11009 0.29183,-0.20393 0.18974,-0.0938 0.4654,-0.2057 0.8086,-0.27609 a 11.657845,37.697492 0 0 1 1.20703,-0.0487 c 0.22711,0.0289 0.46595,0.0776 0.71093,0.16421 z"
       id="path1711"
       style="fill:#c8935f;stroke-width:0.100347" />
    <path
       class="cls-40"
       d="m 29.225053,89.391421 a 26.49424,85.673332 0 0 0 2.66237,0.41682 c 0.34152,0 0.6183,-0.0161 0.80915,-0.0236 0.19084,-0.007 0.29744,0 0.298,0.0307 0,0.0307 -0.10435,0.0848 -0.2952,0.14796 -0.19084,0.0632 -0.46765,0.12814 -0.81026,0.16962 a 19.68625,63.658615 0 0 1 -2.67856,-0.28329 l -0.75726,-0.25624 c -0.24495,-0.092 -0.4799,-0.14978 -0.70477,-0.18045 -0.4498,-0.0794 -0.85548,-0.0812 -1.19645,-0.0505 -0.68191,0.065 -1.10265,0.22738 -1.10546,0.15521 0,-0.0289 0.10213,-0.11009 0.29187,-0.20393 0.18973,-0.0938 0.4654,-0.2057 0.80859,-0.27609 a 11.657845,37.697492 0 0 1 1.20703,-0.0487 c 0.22712,0.0289 0.46593,0.0776 0.71091,0.16421 z"
       id="path1713"
       style="fill:#c8935f;stroke-width:0.100347" />
    <g
       class="cls-41"
       id="g1723"
       transform="matrix(0.17821178,0,0,0.18044848,8.7029429,-37.608709)"
       style="opacity:0.2">
      <path
         class="cls-42"
         d="m 238,506.61 c 2.38,-5.66 4.21,-11 4.37,-16 a 32.72,32.72 0 0 0 -2.48,-13.08 c -1.41,-3.69 -2.86,-6.64 -3.75,-8.75 -0.89,-2.11 -1.29,-3.36 -1,-3.54 0.29,-0.18 1.25,0.71 2.69,2.52 a 53.15,53.15 0 0 1 5.34,8.3 38.9,38.9 0 0 1 2.65,6.48 28.82,28.82 0 0 1 1.24,8.15 34.06,34.06 0 0 1 -1.23,9 70.86,70.86 0 0 1 -3.12,8.85 c -1.2,2.91 -2.43,5.67 -3.49,8.33 -0.53,1.33 -1,2.63 -1.44,3.91 l -0.55,1.85 -0.43,1.85 a 29.28,29.28 0 0 0 0.28,13.17 19.4,19.4 0 0 0 2,4.58 c 0.42,0.59 0.81,1.17 1.22,1.65 0.41,0.48 0.8,0.93 1.21,1.27 0.41,0.34 0.76,0.66 1.08,0.95 0.32,0.29 0.63,0.45 0.86,0.65 0.46,0.38 0.7,0.67 0.64,0.84 -0.06,0.17 -0.41,0.2 -1,0.11 a 9,9 0 0 1 -1.17,-0.26 c -0.43,-0.17 -0.93,-0.39 -1.5,-0.66 a 14.39,14.39 0 0 1 -1.74,-1.12 18.14,18.14 0 0 1 -1.81,-1.69 19,19 0 0 1 -3.14,-5.12 29.61,29.61 0 0 1 -1.51,-15.16 c 0.11,-0.71 0.26,-1.43 0.4,-2.16 0.14,-0.73 0.37,-1.45 0.56,-2.19 q 0.64,-2.13 1.42,-4.25 c 1.05,-2.83 2.26,-5.64 3.4,-8.48 z"
         id="path1715" />
      <path
         class="cls-42"
         d="m 254.09,522.29 c 0.93,-3.72 2.09,-7 2.92,-10 a 48.16,48.16 0 0 0 1.62,-7.9 c 0.51,-4.51 -0.29,-7.37 0.41,-7.67 0.3,-0.13 1,0.43 1.64,1.73 a 16,16 0 0 1 1.56,6 32.75,32.75 0 0 1 -0.65,9 c -0.64,3.28 -1.67,6.68 -2.54,10.15 a 37.11,37.11 0 0 0 -1.35,9.55 19.57,19.57 0 0 0 1.59,7.37 c 1.74,4 4.4,5.48 4.07,6.19 -0.07,0.16 -0.31,0.23 -0.72,0.21 a 5,5 0 0 1 -1.68,-0.44 11.73,11.73 0 0 1 -4.8,-4.16 19.1,19.1 0 0 1 -3.16,-8.86 32.64,32.64 0 0 1 1.09,-11.17 z"
         id="path1717" />
      <ellipse
         class="cls-42"
         cx="224.5"
         cy="533.48999"
         rx="2.55"
         ry="0.5"
         id="ellipse1719" />
      <path
         class="cls-42"
         d="m 223.25,493.63 a 82.08,82.08 0 0 0 0.4,-13.7 47.42,47.42 0 0 0 -1.9,-10.86 c -1.84,-6 -4.43,-9.22 -3.81,-9.76 0.24,-0.22 1.21,0.3 2.6,1.66 a 23.64,23.64 0 0 1 4.59,6.8 39.14,39.14 0 0 1 3.21,11.71 65.11,65.11 0 0 1 0,14.69 c -0.56,5.12 -1.42,9.87 -2.17,14.15 -0.75,4.28 -1.39,8.09 -1.78,11.3 -0.84,6.42 -0.79,10.48 -1.53,10.58 -0.74,0.1 -2,-4 -2.07,-10.78 a 92.38,92.38 0 0 1 0.73,-11.77 c 0.48,-4.38 1.2,-9.11 1.73,-14.02 z"
         id="path1721" />
    </g>
  </g>
  <rect
     style="fill:#c3cecd;fill-opacity:1;stroke:#404e4d;stroke-width:0.587349;stroke-linecap:round;stroke-miterlimit:4;stroke-dasharray:none;stroke-opacity:1"
     id="rect1633-4"
     width="64.83625"
     height="8.0820522"
     x="101.53458"
     y="63.416718"
     rx="0.28078038"
     ry="3.6413968" />
  <rect
     style="fill:#c3cecd;fill-opacity:1;stroke:#404e4d;stroke-width:0.488879;stroke-linecap:round;stroke-miterlimit:4;stroke-dasharray:none;stroke-opacity:1"
     id="rect1633-1"
     width="44.378098"
     height="8.180522"
     x="101.48534"
     y="86.329391"
     rx="0.19218415"
     ry="3.6857629" />
  <rect
     style="fill:#c3cecd;fill-opacity:1;stroke:#404e4d;stroke-width:0.330924;stroke-linecap:round;stroke-miterlimit:4;stroke-dasharray:none;stroke-opacity:1"
     id="rect1633-26"
     width="19.948723"
     height="8.3384781"
     x="101.40636"
     y="109.21232"
     rx="0.0863901"
     ry="3.7569304" />
  <g
     id="character-confidant"
     transform="matrix(0.86403053,0,0,0.86403053,-305.20479,60.762805)">
    <g
       id="g7187"
       transform="matrix(1.0169927,0,0,1.0169927,-6.2594165,0.03812672)">
      <circle
         class="cls-16"
         cx="427.74387"
         cy="22.369223"
         r="21.356373"
         id="circle204"
         style="fill:#3a3a3a;stroke-width:0.188194" />
      <circle
         class="cls-23"
         cx="390.14062"
         cy="71.187012"
         r="21.356373"
         id="circle206"
         style="fill:#323233;stroke-width:0.188194" />
      <circle
         class="cls-24"
         cx="456.74286"
         cy="64.694275"
         r="9.5546608"
         id="circle208"
         style="fill:#a05a2c;fill-opacity:1;stroke-width:0.188194" />
      <circle
         class="cls-19"
         cx="454.78564"
         cy="64.694275"
         r="9.5546608"
         id="circle210"
         style="fill:#a05a2c;fill-opacity:1;stroke-width:0.188194" />
      <path
         class="cls-7"
         d="m 456.9141,74.484187 a 10.397775,10.397775 0 0 1 -1.12917,-0.0621 10.119247,10.119247 0 1 1 11.17879,-8.935501 v 0 a 10.136184,10.136184 0 0 1 -10.04962,8.997603 z m -0.0132,-19.109322 a 8.9994862,8.9994862 0 1 0 1.00308,0.05645 9.0013682,9.0013682 0 0 0 -1.00308,-0.05645 z"
         id="path212"
         style="fill:#181828;stroke-width:0.188194" />
      <circle
         class="cls-25"
         cx="457.73087"
         cy="65.023621"
         r="5.0982032"
         id="circle214"
         style="opacity:0.61;fill:#66381b;fill-opacity:1;stroke-width:0.188194" />
      <path
         class="cls-7"
         d="m 459.49426,70.091719 a 0.56458508,0.56458508 0 0 1 -0.14115,-1.112235 3.8015396,3.8015396 0 0 0 0.14115,-7.318905 0.56458508,0.56458508 0 0 1 0.32747,-1.080239 4.9307097,4.9307097 0 0 1 -0.18821,9.492557 0.54388362,0.54388362 0 0 1 -0.13926,0.01885 z"
         id="path216"
         style="fill:#181828;stroke-width:0.188194" />
      <circle
         class="cls-26"
         cx="404.17056"
         cy="101.96067"
         r="20.338236"
         id="circle220"
         style="fill:#474747;stroke-width:0.188194" />
      <circle
         class="cls-26"
         cx="409.44754"
         cy="34.133293"
         r="24.107784"
         id="circle218"
         style="fill:#474747;stroke-width:0.188194" />
      <circle
         class="cls-26"
         cx="389.62686"
         cy="88.871704"
         r="19.128143"
         id="circle222"
         style="fill:#474747;stroke-width:0.188194" />
      <circle
         class="cls-26"
         cx="401.10675"
         cy="57.232349"
         r="24.107784"
         id="circle224"
         style="fill:#474747;stroke-width:0.188194" />
      <circle
         class="cls-2"
         cx="398.46823"
         cy="57.232349"
         r="24.107784"
         id="circle226"
         style="fill:#ffffff;stroke-width:0.188194" />
      <ellipse
         class="cls-26"
         cx="400.77737"
         cy="58.156387"
         rx="24.107784"
         ry="28.332764"
         id="ellipse228"
         style="fill:#474747;stroke-width:0.188194" />
      <rect
         style="opacity:1;fill:#a05a2c;fill-opacity:1;stroke-width:0.513528"
         id="rect7023"
         width="56.885433"
         height="55.5625"
         x="398.78702"
         y="42.735447"
         ry="19.945509" />
      <path
         class="cls-7"
         d="m 372.58015,82.074095 -1.39076,-0.564585 a 20.001368,20.001368 0 0 1 7.58614,-9.074766 24.841744,24.841744 0 0 1 -5.23747,-14.97656 l 1.50556,-0.01506 a 23.347475,23.347475 0 0 0 5.43319,14.701799 l 0.56458,0.683149 -0.76784,0.449784 a 18.492043,18.492043 0 0 0 -7.6934,8.796239 z"
         id="path230"
         style="fill:#181828;stroke-width:0.188194" />
      <path
         class="cls-30"
         d="m 456.29683,23.759983 -56.84431,0.376389 0.56458,51.772454 a 22.647389,22.647389 0 0 0 21.47305,22.451667 l -2.25833,0.02824 c -12.50556,0.09032 -20.64688,-9.974347 -20.73722,-22.479905 l -0.37639,-51.772454 58.17109,-0.421556 z"
         id="path242"
         style="opacity:0.75;fill:#c87137;stroke-width:0.188194" />
      <path
         class="cls-16"
         d="m 424.45799,103.68829 -3.19932,0.0226 a 22.645507,22.645507 0 0 1 -22.7716,-21.239724 c 0.20137,-0.06025 0.40462,-0.114806 0.60975,-0.167494 a 22.649271,22.649271 0 0 0 22.15433,17.229253 l 3.1278,-0.02262 a 20.195207,20.195207 0 0 1 0.079,4.177925 z"
         id="path246"
         style="fill:#3a3a3a;stroke-width:0.188194" />
      <path
         class="cls-29"
         d="M 455.67245,74.485449 A 22.643626,22.643626 0 0 1 433.19256,97.29281 l -12.88195,0.0941 q -1.12918,0 -2.21507,-0.0922 h 0.14492 a 22.643626,22.643626 0 0 0 22.4799,-22.809239 l -0.37639,-51.663295 14.95209,-0.10915 z"
         id="path240"
         style="opacity:0.2;fill:#66381b;fill-opacity:1;stroke-width:0.188194" />
      <path
         class="cls-31"
         d="m 456.11051,23.545441 0.37639,51.772454 a 22.641743,22.641743 0 0 1 -22.48178,22.805468 l -12.88195,0.09411 c -0.22395,0 -0.44603,0 -0.66997,0 11.53447,-1.12917 29.83268,0 29.83268,-22.701969 l -0.37639,-51.772455 z"
         id="path244"
         style="opacity:0.38;fill:#66381b;fill-opacity:1;stroke-width:0.188194" />
      <circle
         class="cls-26"
         cx="453.14456"
         cy="28.860071"
         r="30.003931"
         id="circle250"
         style="fill:#474747;stroke-width:0.188194" />
      <circle
         class="cls-26"
         cx="409.27255"
         cy="36.882824"
         r="21.356373"
         id="circle248"
         style="fill:#474747;stroke-width:0.188194" />
      <path
         class="cls-32"
         d="M 482.96218,31.694285 A 30.011461,30.011461 0 0 1 435.89461,52.91892 c 23.56013,-16.749357 22.24653,-40.945592 19.09614,-54.4993976 0.49307,0.030112 0.98614,0.073396 1.48298,0.1279723 a 30.002051,30.002051 0 0 1 26.48845,33.1467903 z"
         id="path252"
         style="opacity:0.3;fill:#3a3a3a;stroke-width:0.188194" />
      <path
         class="cls-16"
         d="M 482.96218,31.199332 A 30.024634,30.024634 0 0 1 444.33327,56.55673 c 37.68228,-9.549016 35.15671,-35.380665 30.75295,-49.1508951 a 29.936183,29.936183 0 0 1 7.87596,23.7934971 z"
         id="path254"
         style="fill:#3a3a3a;stroke-width:0.188194" />
      <path
         class="cls-7"
         d="M 420.84465,99.809593 A 23.424635,23.424635 0 0 1 397.45012,76.582565 l -0.15809,-21.830626 a 0.75278009,0.75278009 0 0 1 1.14235,-0.651155 20.375875,20.375875 0 0 0 8.33328,2.822926 20.605474,20.605474 0 0 0 20.88965,-11.621043 0.75278009,0.75278009 0 0 1 1.29666,-0.109151 29.301965,29.301965 0 0 0 27.20359,12.309837 0.75278009,0.75278009 0 0 1 0.58153,0.188196 0.75278009,0.75278009 0 0 1 0.25217,0.564584 l 0.12986,17.908638 v 0 a 23.394523,23.394523 0 0 1 -23.22326,23.550725 l -12.88196,0.09409 z m -22.03764,-43.768518 0.14867,20.530196 a 21.919074,21.919074 0 0 0 21.88897,21.73276 h 0.16184 l 12.88007,-0.0941 A 21.892727,21.892727 0 0 0 455.61932,76.161002 L 455.49699,59.074774 A 30.818818,30.818818 0 0 1 428.45526,47.052876 22.137381,22.137381 0 0 1 398.80701,56.04107 Z"
         id="path256"
         style="fill:#181828;stroke-width:0.188194" />
      <circle
         class="cls-38"
         cx="459.24582"
         cy="75.244492"
         r="3.0431137"
         id="circle290"
         style="fill:#e8e2dd;stroke-width:0.188194" />
      <path
         class="cls-39"
         d="m 460.65166,72.547662 a 3.0412317,3.0412317 0 0 1 -4.10265,4.102653 3.0412317,3.0412317 0 1 0 4.10265,-4.102653 z"
         id="path292"
         style="opacity:0.3;fill:#c6bdb6;stroke-width:0.188194" />
      <path
         class="cls-42"
         d="m 422.55157,100.75621 c 0,0 0.75279,20.11618 -19.94867,15.73123 0.007,0 16.45766,0.87887 19.94867,-15.73123 z"
         id="path316"
         style="fill:#303030;stroke-width:0.188194" />
      <path
         class="cls-7"
         d="m 459.08211,78.758098 a 3.5136012,3.5136012 0 1 1 3.51172,-3.513601 3.5173651,3.5173651 0 0 1 -3.51172,3.513601 z m 0,-6.084347 a 2.5726261,2.5726261 0 1 0 2.57075,2.570746 2.574508,2.574508 0 0 0 -2.57075,-2.570746 z"
         id="path320"
         style="fill:#181828;stroke-width:0.188194" />
      <ellipse
         class="cls-2"
         cx="400.04343"
         cy="61.481796"
         rx="0.82429421"
         ry="1.4302821"
         id="ellipse324"
         style="fill:#c87137;fill-opacity:1;stroke-width:0.188194" />
      <circle
         class="cls-2"
         cx="400.9769"
         cy="63.82671"
         r="0.32934129"
         id="circle326"
         style="fill:#c87137;fill-opacity:1;stroke-width:0.188194" />
      <circle
         class="cls-2"
         cx="402.31494"
         cy="60.949203"
         r="0.42155686"
         id="circle328"
         style="fill:#c87137;fill-opacity:1;stroke-width:0.188194" />
      <circle
         class="cls-2"
         cx="399.987"
         cy="58.696507"
         r="0.84311372"
         id="circle330"
         style="fill:#c87137;fill-opacity:1;stroke-width:0.188194" />
      <circle
         class="cls-2"
         cx="400.42737"
         cy="69.873405"
         r="1.0256629"
         id="circle332"
         style="fill:#c87137;fill-opacity:1;stroke-width:0.188194" />
      <circle
         class="cls-2"
         cx="400.59299"
         cy="65.861092"
         r="0.53070998"
         id="circle334"
         style="fill:#c87137;fill-opacity:1;stroke-width:0.188194" />
      <circle
         class="cls-2"
         cx="402.20578"
         cy="64.395042"
         r="0.23900768"
         id="circle336"
         style="fill:#c87137;fill-opacity:1;stroke-width:0.188194" />
      <circle
         class="cls-2"
         cx="401.61862"
         cy="62.268456"
         r="0.23900768"
         id="circle338"
         style="fill:#c87137;fill-opacity:1;stroke-width:0.188194" />
      <circle
         class="cls-16"
         cx="408.62891"
         cy="100.75433"
         r="2.4183061"
         id="circle342"
         style="fill:#3a3a3a;stroke-width:0.188194" />
      <circle
         class="cls-16"
         cx="411.99951"
         cy="103.49069"
         r="0.57775873"
         id="circle344"
         style="fill:#3a3a3a;stroke-width:0.188194" />
      <circle
         class="cls-16"
         cx="406.94266"
         cy="105.91087"
         r="1.0162532"
         id="circle346"
         style="fill:#3a3a3a;stroke-width:0.188194" />
      <circle
         class="cls-16"
         cx="403.01126"
         cy="102.41986"
         r="0.54952949"
         id="circle350"
         style="fill:#3a3a3a;stroke-width:0.188194" />
      <circle
         class="cls-16"
         cx="405.48416"
         cy="102.7492"
         r="0.60410607"
         id="circle352"
         style="fill:#3a3a3a;stroke-width:0.188194" />
      <circle
         class="cls-16"
         cx="415.95721"
         cy="104.59164"
         r="0.57775873"
         id="circle356"
         style="fill:#3a3a3a;stroke-width:0.188194" />
      <circle
         class="cls-16"
         cx="412.19144"
         cy="106.10283"
         r="0.76971775"
         id="circle358"
         style="fill:#3a3a3a;stroke-width:0.188194" />
      <circle
         class="cls-16"
         cx="414.39142"
         cy="108.30095"
         r="0.49495295"
         id="circle360"
         style="fill:#3a3a3a;stroke-width:0.188194" />
      <circle
         class="cls-16"
         cx="416.31482"
         cy="106.92713"
         r="0.44037631"
         id="circle362"
         style="fill:#3a3a3a;stroke-width:0.188194" />
      <circle
         class="cls-16"
         cx="418.5957"
         cy="105.19574"
         r="0.7414884"
         id="circle364"
         style="fill:#3a3a3a;stroke-width:0.188194" />
      <circle
         class="cls-16"
         cx="414.08844"
         cy="102.00771"
         r="0.7414884"
         id="circle366"
         style="fill:#3a3a3a;stroke-width:0.188194" />
      <circle
         class="cls-16"
         cx="413.84192"
         cy="104.61797"
         r="0.66056454"
         id="circle368"
         style="fill:#3a3a3a;stroke-width:0.188194" />
      <circle
         class="cls-16"
         cx="409.88229"
         cy="105.05834"
         r="0.27476475"
         id="circle370"
         style="fill:#3a3a3a;stroke-width:0.188194" />
      <circle
         class="cls-2"
         cx="401.08792"
         cy="59.428593"
         r="0.18254918"
         id="circle340"
         style="fill:#c87137;fill-opacity:1;stroke-width:0.188194" />
      <circle
         class="cls-16"
         cx="402.90213"
         cy="98.736885"
         r="1.1536356"
         id="circle348"
         style="fill:#3a3a3a;stroke-width:0.188194" />
      <path
         class="cls-2"
         d="m 431.76184,9.2746116 a 0.75278009,0.75278009 0 0 1 -0.56459,-1.2402049 c 0.1355,-0.1599659 3.41762,-3.9784431 9.33636,-6.7242081 5.45766,-2.5368703 14.27836,-4.5712573 25.24636,0.1336177 a 0.75278009,0.75278009 0 1 1 -0.59281,1.3832333 c -8.38032,-3.59264227 -16.43508,-3.65098297 -23.96288,-0.1712568 -5.64584,2.6027366 -8.84516,6.3233525 -8.88092,6.3609916 a 0.75278009,0.75278009 0 0 1 -0.58152,0.2578272 z"
         id="path372"
         style="fill:#ffffff;stroke-width:0.188194" />
      <circle
         class="cls-16"
         cx="406.52866"
         cy="98.021744"
         r="1.1536356"
         id="circle354"
         style="fill:#3a3a3a;stroke-width:0.188194" />
      <path
         class="cls-2"
         d="m 387.89357,26.976235 a 0.76407179,0.76407179 0 0 1 -0.27099,-0.04893 0.75278009,0.75278009 0 0 1 -0.43285,-0.972968 c 0.0508,-0.129854 1.25902,-3.23319 4.10829,-6.695979 2.63473,-3.199315 7.22858,-7.318904 14.14662,-8.72472 a 0.75293176,0.75293176 0 0 1 0.30112,1.475449 c -12.42087,2.527463 -17.10505,14.36493 -17.15021,14.491021 a 0.75278009,0.75278009 0 0 1 -0.70198,0.476133 z"
         id="path374"
         style="fill:#ffffff;stroke-width:0.188194" />
      <circle
         class="cls-2"
         cx="390.20276"
         cy="25.124399"
         r="1.5394355"
         id="circle376"
         style="fill:#ffffff;stroke-width:0.188194" />
      <circle
         class="cls-2"
         cx="403.50626"
         cy="12.53603"
         r="0.68314797"
         id="circle378"
         style="fill:#ffffff;stroke-width:0.188194" />
      <circle
         class="cls-2"
         cx="401.3627"
         cy="15.261095"
         r="0.68314797"
         id="circle380"
         style="fill:#ffffff;stroke-width:0.188194" />
      <circle
         class="cls-2"
         cx="403.82239"
         cy="14.446211"
         r="0.28793839"
         id="circle382"
         style="fill:#ffffff;stroke-width:0.188194" />
      <circle
         class="cls-2"
         cx="405.22446"
         cy="12.961353"
         r="0.31616762"
         id="circle384"
         style="fill:#ffffff;stroke-width:0.188194" />
      <circle
         class="cls-2"
         cx="406.32349"
         cy="13.510881"
         r="0.39897344"
         id="circle386"
         style="fill:#ffffff;stroke-width:0.188194" />
      <circle
         class="cls-2"
         cx="406.92764"
         cy="14.747323"
         r="0.12420873"
         id="circle388"
         style="fill:#ffffff;stroke-width:0.188194" />
      <circle
         class="cls-2"
         cx="406.63968"
         cy="15.750403"
         r="0.24653547"
         id="circle390"
         style="fill:#ffffff;stroke-width:0.188194" />
      <circle
         class="cls-2"
         cx="403.53256"
         cy="16.576578"
         r="0.10915311"
         id="circle392"
         style="fill:#ffffff;stroke-width:0.188194" />
      <circle
         class="cls-2"
         cx="405.01743"
         cy="15.366486"
         r="0.24653547"
         id="circle394"
         style="fill:#ffffff;stroke-width:0.188194" />
      <circle
         class="cls-2"
         cx="401.45865"
         cy="13.153312"
         r="0.64550894"
         id="circle396"
         style="fill:#ffffff;stroke-width:0.188194" />
      <circle
         class="cls-2"
         cx="398.73737"
         cy="16.177605"
         r="0.23336184"
         id="circle398"
         style="fill:#ffffff;stroke-width:0.188194" />
      <circle
         class="cls-2"
         cx="401.63745"
         cy="17.538254"
         r="0.35757053"
         id="circle400"
         style="fill:#ffffff;stroke-width:0.188194" />
      <path
         class="cls-7"
         d="M 428.46466,83.233374 A 0.56458508,0.56458508 0 0 1 427.90008,82.66879 V 70.136885 a 0.56458687,0.56458687 0 1 1 1.12917,0 V 82.66879 a 0.56458508,0.56458508 0 0 1 -0.56459,0.564584 z"
         id="path406"
         style="fill:#181828;stroke-width:0.188194" />
      <ellipse
         class="cls-2"
         cx="402.00482"
         cy="131.35077"
         rx="6.1012821"
         ry="9.6073561"
         transform="rotate(-8.27)"
         id="ellipse408"
         style="fill:#ffffff;stroke-width:0.188194" />
      <path
         class="cls-43"
         d="m 411.00393,73.2421 c 0.76218,5.250644 4.08571,9.112407 7.42052,8.62686 2.77023,-0.402738 4.67853,-3.677333 4.80838,-7.785627 -0.75277,0.856284 0.21079,5.579978 -4.71804,6.073051 -3.35364,0.336873 -6.77502,-2.679893 -6.61506,-9.597947 0.0885,-3.763898 1.02378,-5.305215 1.05014,-6.142684 -1.6486,1.889479 -2.47101,5.216765 -1.94594,8.826347 z"
         id="path410"
         style="fill:#e4d8ee;stroke-width:0.188194" />
      <path
         class="cls-7"
         d="m 411.48947,73.13483 a 14.312231,14.312231 0 0 0 0.75277,2.924548 11.43473,11.43473 0 0 0 1.38513,2.651668 7.3866549,7.3866549 0 0 0 2.09272,2.032507 4.6653547,4.6653547 0 0 0 1.29855,0.555174 3.519247,3.519247 0 0 0 2.66672,-0.38768 4.6728826,4.6728826 0 0 0 1.08589,-0.901452 7.3847728,7.3847728 0 0 0 1.4284,-2.542515 11.414028,11.414028 0 0 0 0.56458,-2.937727 14.203079,14.203079 0 0 0 -0.1185,-3.011118 q -0.11298,-0.752784 -0.29546,-1.482979 l -0.17503,-0.735842 a 7.4807519,7.4807519 0 0 0 -0.23336,-0.720786 c -0.0866,-0.235244 -0.18819,-0.468606 -0.28606,-0.698203 l -0.3124,-0.688794 a 8.320102,8.320102 0 0 0 -2.87374,-3.3574 4.7895634,4.7895634 0 0 0 -1.31736,-0.564584 3.7789561,3.7789561 0 0 0 -1.4077,-0.07528 3.8391786,3.8391786 0 0 0 -1.32866,0.474253 4.770744,4.770744 0 0 0 -1.1047,0.922155 7.4656969,7.4656969 0 0 0 -1.44534,2.565099 14.679212,14.679212 0 0 0 -0.37639,5.978956 z m -0.92027,0.133616 a 14.344225,14.344225 0 0 1 -0.12609,-3.214369 12.11976,12.11976 0 0 1 0.22583,-1.599657 11.841231,11.841231 0 0 1 0.47237,-1.548846 8.1695457,8.1695457 0 0 1 1.60342,-2.822925 5.5592812,5.5592812 0 0 1 1.28913,-1.065184 4.5336182,4.5336182 0 0 1 1.59966,-0.564586 4.6070143,4.6070143 0 0 1 1.69376,0.08469 5.523524,5.523524 0 0 1 1.53943,0.653036 8.2429422,8.2429422 0 0 1 2.34303,2.258341 c 0.31617,0.438494 0.58341,0.905218 0.86193,1.366295 0.0696,0.116679 0.12798,0.237126 0.18821,0.355689 0.0603,0.118564 0.11286,0.244654 0.16937,0.365098 0.10914,0.246536 0.21266,0.494953 0.30298,0.75278 0.0903,0.257827 0.18821,0.504364 0.2729,0.752779 l 0.13549,0.376392 c 0.0414,0.127969 0.0734,0.257829 0.11106,0.387681 0.13174,0.521304 0.23525,1.046363 0.31428,1.577076 a 15.292729,15.292729 0 0 1 0.1261,3.214368 12.358767,12.358767 0 0 1 -0.62105,3.174851 8.3257483,8.3257483 0 0 1 -1.61659,2.864329 5.6552606,5.6552606 0 0 1 -1.30796,1.08024 4.4602221,4.4602221 0 0 1 -3.35928,0.487425 5.6571425,5.6571425 0 0 1 -1.5639,-0.666214 8.31822,8.31822 0 0 1 -2.36748,-2.286565 12.370059,12.370059 0 0 1 -1.50557,-2.868092 15.243797,15.243797 0 0 1 -0.78666,-3.114632 z"
         id="path412"
         style="fill:#181828;stroke-width:0.188194" />
      <circle
         class="cls-7"
         cx="417.38937"
         cy="74.474777"
         r="4.021728"
         id="circle414"
         style="fill:#181828;stroke-width:0.188194" />
      <circle
         class="cls-2"
         cx="419.80392"
         cy="71.666901"
         r="1.6410607"
         id="circle416"
         style="fill:#ffffff;stroke-width:0.188194" />
      <path
         class="cls-7"
         d="m 408.80956,65.441417 c 0,0 -2.95842,0.701967 -4.30589,-2.646023 0,0 0.1355,2.350556 2.72319,3.837298"
         id="path418"
         style="fill:#181828;stroke-width:0.188194" />
      <path
         class="cls-7"
         d="m 410.03284,64.090176 c 0,0 -2.61403,0.619162 -3.81283,-2.341145 0,0 0.12045,2.070144 2.40701,3.38751"
         id="path420"
         style="fill:#181828;stroke-width:0.188194" />
      <path
         class="cls-7"
         d="m 425.16184,65.356729 c 0,0 -10.23405,-3.17485 -19.29751,2.811634 0,0 6.92556,-11.500599 19.29751,-2.811634 z"
         id="path422"
         style="fill:#181828;stroke-width:0.188194" />
      <ellipse
         class="cls-2"
         cx="-8.0640068"
         cy="446.23331"
         rx="9.6073561"
         ry="6.1012821"
         transform="rotate(-81.73)"
         id="ellipse424"
         style="fill:#ffffff;stroke-width:0.188194" />
      <path
         class="cls-43"
         d="m 446.14559,73.2421 c -0.76407,5.250644 -4.08571,9.112407 -7.42241,8.62686 -2.76836,-0.402738 -4.67666,-3.677333 -4.80651,-7.785627 0.75278,0.856284 -0.21266,5.579978 4.71617,6.073051 3.35363,0.336873 6.77502,-2.679893 6.61694,-9.597947 -0.0885,-3.763898 -1.02566,-5.305215 -1.05013,-6.142684 1.64858,1.889479 2.46912,5.216765 1.94594,8.826347 z"
         id="path426"
         style="fill:#e4d8ee;stroke-width:0.188194" />
      <path
         class="cls-7"
         d="m 446.57467,73.266568 a 15.128999,15.128999 0 0 1 -0.7923,3.114625 12.35124,12.35124 0 0 1 -1.50556,2.866214 8.064157,8.064157 0 0 1 -2.36938,2.25834 5.6458508,5.6458508 0 0 1 -1.55825,0.653034 4.9043624,4.9043624 0 0 1 -1.71447,0.08657 4.4771596,4.4771596 0 0 1 -1.63164,-0.547649 5.5818645,5.5818645 0 0 1 -1.30419,-1.082119 8.2523518,8.2523518 0 0 1 -1.61283,-2.860566 12.345594,12.345594 0 0 1 -0.62104,-3.171087 15.332249,15.332249 0 0 1 0.92215,-6.325235 c 0.0451,-0.126091 0.0941,-0.25218 0.14679,-0.37639 a 3.7770742,3.7770742 0 0 1 0.16184,-0.376389 l 0.3764,-0.713259 a 13.235756,13.235756 0 0 1 0.8657,-1.364415 8.3050462,8.3050462 0 0 1 2.3449,-2.25834 5.6458508,5.6458508 0 0 1 1.53568,-0.6568 4.5674933,4.5674933 0 0 1 1.69375,-0.09222 5.0812657,5.0812657 0 0 1 1.61283,0.540119 5.1753633,5.1753633 0 0 1 1.30231,1.065185 8.2598794,8.2598794 0 0 1 1.60532,2.845508 12.420871,12.420871 0 0 1 0.61915,3.161679 c 0.0338,0.536355 0.0451,1.070824 0.0301,1.607186 a 13.826688,13.826688 0 0 1 -0.10722,1.626004 z m -0.90146,-0.12986 c 0.0753,-0.500597 0.13551,-1.001195 0.17126,-1.505555 a 10.97177,10.97177 0 0 0 0,-1.505563 11.50248,11.50248 0 0 0 -0.57587,-2.950897 7.42053,7.42053 0 0 0 -1.4397,-2.561335 5.29769,5.29769 0 0 0 -1.09341,-0.920274 3.3724549,3.3724549 0 0 0 -1.31736,-0.494951 3.8278868,3.8278868 0 0 0 -1.40959,0.06775 4.6898201,4.6898201 0 0 0 -1.31736,0.564585 7.3979466,7.3979466 0 0 0 -2.11156,2.070146 9.2535492,9.2535492 0 0 0 -0.75277,1.302308 5.9526086,5.9526086 0 0 0 -0.29358,0.694441 c -0.0903,0.235243 -0.1882,0.462959 -0.27854,0.700084 a 14.457142,14.457142 0 0 0 -0.86193,5.946965 11.430966,11.430966 0 0 0 0.57588,2.94149 7.3923004,7.3923004 0 0 0 1.43028,2.546276 4.7763898,4.7763898 0 0 0 1.08777,0.903337 3.9652692,3.9652692 0 0 0 1.29666,0.487425 3.5474763,3.5474763 0 0 0 1.38513,-0.0734 4.6822922,4.6822922 0 0 0 1.3023,-0.564584 6.1878525,6.1878525 0 0 0 1.12918,-0.914625 9.0333613,9.0333613 0 0 0 0.95603,-1.129171 11.504362,11.504362 0 0 0 1.38699,-2.65543 14.357398,14.357398 0 0 0 0.73019,-2.949022 z"
         id="path428"
         style="fill:#181828;stroke-width:0.188194" />
      <ellipse
         class="cls-2"
         cx="123.41617"
         cy="446.84787"
         rx="0.90710008"
         ry="0.54952949"
         transform="rotate(-65.33)"
         id="ellipse318"
         style="fill:#ffffff;stroke-width:0.188194" />
      <circle
         class="cls-7"
         cx="439.75827"
         cy="74.474777"
         r="4.021728"
         id="circle430"
         style="fill:#181828;stroke-width:0.188194" />
      <circle
         class="cls-2"
         cx="437.34369"
         cy="71.666901"
         r="1.6410607"
         id="circle432"
         style="fill:#ffffff;stroke-width:0.188194" />
      <path
         class="cls-7"
         d="m 431.98767,65.356729 c 0,0 10.23217,-3.17485 19.29563,2.811634 0,0 -6.92556,-11.500599 -19.29563,-2.811634 z"
         id="path438"
         style="fill:#181828;stroke-width:0.188194" />
      <path
         class="cls-44"
         d="m 435.1343,89.037309 -4.08196,0.17502 -2.34491,0.227719 h -0.29358 l -2.34492,-0.227719 -4.08382,-0.17502 c 1.86124,0 4.25697,-3.026176 5.09256,-2.809752 a 9.8990582,9.8990582 0 0 1 1.48297,0.549527 9.7390923,9.7390923 0 0 1 1.48298,-0.549527 c 0.82993,-0.218308 3.2313,2.809752 5.09068,2.809752 z"
         id="path440"
         style="fill:#ee544d;stroke-width:0.188194" />
      <path
         class="cls-44"
         d="m 434.58287,89.195394 c 0,0 -1.63164,4.746277 -5.93378,4.746277 h -0.17878 c -4.30026,0 -5.93191,-4.746277 -5.93191,-4.746277 z"
         id="path442"
         style="fill:#ee544d;stroke-width:0.188194" />
      <path
         class="cls-45"
         d="m 434.58287,88.907457 c 0,0 -1.62976,4.748162 -5.93378,4.748162 h -0.1769 c -4.30403,0 -5.93567,-4.748162 -5.93567,-4.748162 h 0.41214 c 0.71703,1.379466 2.4296,3.827883 5.52353,3.827883 h 0.1769 c 3.09204,0 4.80462,-2.446532 5.52352,-3.827883 z"
         id="path444"
         style="fill:#dc3131;stroke-width:0.188194" />
      <path
         class="cls-7"
         d="m 428.70743,90.317038 h -0.29358 a 0.37639006,0.37639006 0 0 1 -0.12044,-0.0207 l -2.2941,-0.773475 -4.02926,-0.175027 a 0.37646534,0.37646534 0 0 1 0.0151,-0.752778 c 0.91839,0 2.10026,-0.931567 3.05064,-1.680582 0.95039,-0.749015 1.59025,-1.25526 2.136,-1.114112 a 9.7409743,9.7409743 0 0 1 1.38889,0.500597 9.7861411,9.7861411 0 0 1 1.387,-0.500597 c 0.54577,-0.143033 1.21386,0.376385 2.1379,1.114112 0.92403,0.737726 2.13037,1.680582 3.04876,1.680582 a 0.37648532,0.37648532 0 0 1 0.0169,0.752778 l -4.02926,0.175027 -2.2941,0.773475 a 0.37639006,0.37639006 0 0 1 -0.12045,0.0207 z m -0.23336,-0.752784 h 0.17126 l 2.28658,-0.7716 a 0.32369544,0.32369544 0 0 1 0.10349,-0.01885 l 2.19624,-0.09597 a 17.396748,17.396748 0 0 1 -1.61283,-1.172459 c -0.50248,-0.39709 -1.26091,-0.995548 -1.48487,-0.976733 a 9.6374669,9.6374669 0 0 0 -1.41521,0.525065 0.37639006,0.37639006 0 0 1 -0.31617,0 9.6431132,9.6431132 0 0 0 -1.42276,-0.526943 h -0.0108 c -0.22772,0 -0.97297,0.587168 -1.46604,0.978611 a 18.015909,18.015909 0 0 1 -1.61283,1.172459 l 2.19624,0.09597 a 0.33498714,0.33498714 0 0 1 0.10349,0.01885 z"
         id="path446"
         style="fill:#181828;stroke-width:0.188194" />
      <path
         class="cls-7"
         d="m 428.64909,94.255961 h -0.17878 c -1.88195,0 -3.56254,-0.869465 -4.87426,-2.514291 a 9.2761325,9.2761325 0 0 1 -1.41523,-2.486052 0.37702633,0.37702633 0 0 1 0.71326,-0.244654 c 0.0151,0.04517 1.59966,4.492212 5.57623,4.492212 h 0.17878 c 3.98786,0 5.56305,-4.447045 5.5781,-4.492212 a 0.37639006,0.37639006 0 1 1 0.71138,0.244654 9.2215561,9.2215561 0 0 1 -1.41522,2.486052 c -1.31173,1.644826 -2.99607,2.514291 -4.87426,2.514291 z"
         id="path448"
         style="fill:#181828;stroke-width:0.188194" />
      <path
         class="cls-7"
         d="m 404.75021,118.73449 a 16.256286,16.256286 0 0 1 -3.34047,-0.33875 16.068092,16.068092 0 0 1 -10.23028,-6.97639 0.56458508,0.56458508 0 1 1 0.94097,-0.61917 15.055603,15.055603 0 0 0 20.83695,4.35107 0.56458508,0.56458508 0 1 1 0.61728,0.94098 16.069973,16.069973 0 0 1 -8.82445,2.64226 z"
         id="path458"
         style="fill:#181828;stroke-width:0.188194" />
      <path
         class="cls-7"
         d="m 376.38733,95.471694 a 0.56458508,0.56458508 0 0 1 -0.42345,-0.188192 16.273224,16.273224 0 0 1 -3.26329,-15.676645 0.56569101,0.56569101 0 0 1 1.07648,0.348161 15.132763,15.132763 0 0 0 3.03559,14.581353 0.56458508,0.56458508 0 0 1 -0.42533,0.940971 z"
         id="path460"
         style="fill:#181828;stroke-width:0.188194" />
      <path
         class="cls-7"
         d="m 383.30538,100.00156 a 0.56458508,0.56458508 0 0 1 -0.17502,-0.02824 16.184773,16.184773 0 0 1 -3.55124,-1.639178 0.56458508,0.56458508 0 1 1 0.59282,-0.959798 15.070658,15.070658 0 0 0 3.30659,1.524383 0.56458508,0.56458508 0 0 1 -0.17315,1.102823 z"
         id="path462"
         style="fill:#181828;stroke-width:0.188194" />
      <path
         class="cls-7"
         d="m 388.90607,62.082136 a 0.56458508,0.56458508 0 0 1 -0.16938,-1.102823 v 0 c 0.0263,0 2.66107,-0.863815 5.2544,-3.475962 3.42515,-3.449615 5.2356,-8.410436 5.2356,-14.346108 a 0.56458508,0.56458508 0 0 1 1.12916,0 c 0,7.917366 -3.04876,12.627888 -5.60633,15.18734 -2.78905,2.787168 -5.5574,3.675448 -5.67408,3.711205 a 0.53070997,0.53070997 0 0 1 -0.16937,0.02634 z"
         id="path464"
         style="fill:#181828;stroke-width:0.188194" />
      <circle
         class="cls-7"
         cx="386.51785"
         cy="62.562031"
         r="0.9353292"
         id="circle466"
         style="fill:#181828;stroke-width:0.188194" />
      <path
         class="cls-7"
         d="m 457.15311,55.615755 a 0.56686704,0.56686704 0 0 1 -0.10158,-1.12917 25.912574,25.912574 0 0 0 4.94766,-1.454749 0.56458508,0.56458508 0 1 1 0.41967,1.046365 26.972111,26.972111 0 0 1 -5.16407,1.518734 0.46484171,0.46484171 0 0 1 -0.1017,0.01883 z"
         id="path468"
         style="fill:#181828;stroke-width:0.188194" />
      <circle
         class="cls-7"
         cx="465.39795"
         cy="52.211308"
         r="0.9353292"
         id="circle470"
         style="fill:#181828;stroke-width:0.188194" />
      <path
         class="cls-7"
         d="m 469.03575,12.180343 a 0.47048757,0.47048757 0 0 1 -0.33312,-0.80171 l 2.96785,-2.9678362 a 0.47048757,0.47048757 0 0 1 0.6662,0.6643283 l -2.96783,2.9678359 a 0.46860561,0.46860561 0 0 1 -0.3331,0.137382 z"
         id="path482"
         style="fill:#181828;stroke-width:0.188194" />
      <path
         class="cls-7"
         d="m 469.03575,15.26486 a 0.47048757,0.47048757 0 0 1 -0.33312,-0.801711 l 2.96785,-2.967836 a 0.47048757,0.47048757 0 0 1 0.6662,0.664329 l -2.96783,2.967835 a 0.46860561,0.46860561 0 0 1 -0.3331,0.137383 z"
         id="path484"
         style="fill:#181828;stroke-width:0.188194" />
      <path
         class="cls-46"
         d="m 394.71376,33.924397 c -0.68126,-0.844997 -0.75277,-2.017452 -0.71513,-3.103337 0.0866,-2.258341 0.59281,-4.573139 1.98921,-6.342172 1.39641,-1.769034 3.83354,-2.832335 5.97895,-2.12284 a 2.9000854,2.9000854 0 0 1 1.17246,0.688794 3.1221555,3.1221555 0 0 1 0.6568,1.115996 c 0.85065,2.303507 0,5.12455 -1.97604,6.586826 -0.98049,0.718905 -2.19812,1.12917 -3.01111,2.040034 -0.51943,0.581523 -0.85818,1.349359 -1.52439,1.753977 -0.94098,0.564586 -2.53499,-0.08845 -2.88879,-1.12917"
         id="path488"
         style="fill:#6d6d6d;stroke-width:0.188194" />
      <g
         class="cls-47"
         id="g492"
         style="opacity:0.5"
         transform="matrix(0.18819502,0,0,0.18819502,267.52027,-2.2372778)">
        <path
           class="cls-46"
           d="m 608,322.28 c -4.83,-3.16 -7.13,-9 -8.69,-14.52 -3.24,-11.53 -4.48,-24.1 -0.31,-35.32 4.17,-11.22 14.79,-20.6 26.76,-20.5 a 15.41,15.41 0 0 1 7.06,1.56 16.63,16.63 0 0 1 5.14,4.57 c 8.07,10.26 8.4,25.9 0.76,36.49 -3.78,5.25 -9.26,9.33 -11.88,15.24 -1.68,3.78 -2.13,8.22 -4.84,11.36 -3.83,4.43 -13,3.69 -16.45,-1"
           id="path490" />
      </g>
      <path
         class="cls-46"
         d="m 377.31513,90.574866 c -0.9071,-0.594701 -1.33995,-1.693755 -1.63353,-2.732592 -0.61163,-2.169892 -0.84499,-4.535502 -0.0583,-6.647053 0.78666,-2.111546 2.78153,-3.876813 5.03611,-3.858 a 2.8982033,2.8982033 0 0 1 1.32676,0.293585 3.1485029,3.1485029 0 0 1 0.96733,0.858169 c 1.51873,1.930884 1.58083,4.876137 0.14302,6.869125 -0.71137,0.986137 -1.74268,1.755857 -2.23575,2.868092 -0.31617,0.711374 -0.40085,1.54696 -0.91086,2.13789 -0.72079,0.833709 -2.44654,0.694446 -3.09582,-0.188192"
         id="path494"
         style="fill:#6d6d6d;stroke-width:0.188194" />
      <ellipse
         class="cls-2"
         cx="404.7709"
         cy="20.067595"
         rx="0.82429421"
         ry="1.2646705"
         id="ellipse496"
         style="fill:#ffffff;stroke-width:0.188194" />
      <path
         class="cls-46"
         d="m 409.51906,26.605492 a 1.9816936,1.9816936 0 0 1 -1.02378,0.980496 2.1623608,2.1623608 0 0 1 -2.51616,-0.814884 2.6102649,2.6102649 0 0 1 -0.35758,-1.001198 3.6999142,3.6999142 0 0 1 0.1882,-1.684345 1.7219845,1.7219845 0 0 1 0.63987,-0.850643 v 0 a 1.7276303,1.7276303 0 0 1 2.46723,0.508128 l 0.45543,0.743369 a 2.2150555,2.2150555 0 0 1 0.14679,2.119077 z"
         id="path498"
         style="fill:#6d6d6d;stroke-width:0.188194" />
      <path
         class="cls-46"
         d="m 382.70504,88.331577 a 4.9984599,4.9984599 0 0 0 1.24397,-1.524377 c 0.17126,-0.327462 0.38768,-0.726432 0.75278,-0.724554 a 0.72078698,0.72078698 0 0 1 0.3971,0.148674 c 0.72454,0.500597 0.91274,1.57896 0.52129,2.367495 -0.39144,0.788541 -1.25526,1.277844 -2.13225,1.364414 -0.35381,0.03386 -0.75279,-0.0094 -0.9899,-0.280411 a 1.059538,1.059538 0 0 1 -0.20514,-0.673739 c 0,-0.444136 0.23712,-0.989907 0.67938,-0.972965"
         id="path500"
         style="fill:#6d6d6d;stroke-width:0.188194" />
      <ellipse
         class="cls-48"
         cx="389.66449"
         cy="44.610107"
         rx="0.92780143"
         ry="1.7709153"
         id="ellipse502"
         style="opacity:0.5;fill:#6d6d6d;stroke-width:0.188194" />
      <ellipse
         class="cls-46"
         cx="385.54681"
         cy="84.313614"
         rx="0.40273738"
         ry="0.76971775"
         id="ellipse504"
         style="fill:#6d6d6d;stroke-width:0.188194" />
      <path
         class="cls-7"
         d="m 404.07835,122.70916 a 21.098544,21.098544 0 0 1 -20.25354,-15.12711 19.895978,19.895978 0 0 1 -12.81044,-26.347304 22.109151,22.109151 0 0 1 2.48229,-24.67237 25.05064,25.05064 0 0 1 0.15432,-2.764585 24.762702,24.762702 0 0 1 10.91531,-17.921812 24.901966,24.901966 0 0 1 8.95056,-21.266038 24.717535,24.717535 0 0 1 17.34969,-5.6458507 22.139262,22.139262 0 0 1 25.46467,-6.265013 30.758596,30.758596 0 1 1 21.33192,56.2270277 h -0.11298 -0.94097 v -1.505561 h 0.88074 A 29.279382,29.279382 0 0 0 482.10401,31.750743 C 483.89563,15.733465 472.31034,1.2368017 456.27989,-0.54352317 A 29.254917,29.254917 0 0 0 436.82052,4.1764079 l -0.34251,0.2277161 -0.3764,-0.16373 a 20.629939,20.629939 0 0 0 -24.31667,5.988367 l -0.24842,0.308639 -0.39709,-0.03011 a 23.368176,23.368176 0 0 0 -25.02995,25.677328 l 0.0471,0.461079 -0.38956,0.248417 a 23.275961,23.275961 0 0 0 -10.61232,17.073053 23.855601,23.855601 0 0 0 -0.14492,2.864328 v 0.284174 l -0.18819,0.214541 a 20.609238,20.609238 0 0 0 -2.31856,23.488624 l 0.17878,0.31993 -0.13926,0.33875 a 18.38289,18.38289 0 0 0 12.09153,24.770236 l 0.41402,0.11286 0.11286,0.41403 a 19.587338,19.587338 0 0 0 38.37297,-2.98478 38.271341,38.271341 0 0 0 0.0903,-4.622071 l 1.50557,-0.08468 a 39.404274,39.404274 0 0 1 -0.0978,4.874251 21.12301,21.12301 0 0 1 -20.95363,18.75176 z"
         id="path508"
         style="fill:#181828;stroke-width:0.188194" />
      <path
         class="cls-7"
         d="m 448.33805,65.441417 c 0,0 2.95844,0.701967 4.30591,-2.646023 0,0 -0.1355,2.350556 -2.72318,3.837298"
         id="path434"
         style="fill:#181828;stroke-width:0.188194" />
      <path
         class="cls-7"
         d="m 447.11667,64.090176 c 0,0 2.61403,0.619162 3.80343,-2.337381 0,0 -0.12045,2.070144 -2.40514,3.38751"
         id="path436"
         style="fill:#181828;stroke-width:0.188194" />
      <path
         class="cls-7"
         d="M 425.82616,16.860754 A 0.75278009,0.75278009 0 0 1 425.31428,16.661267 23.147988,23.147988 0 0 0 412.039,10.588213 c -0.2804,-0.032 -0.53824,-0.05645 -0.78666,-0.07528 a 0.7549653,0.7549653 0 1 1 0.11479,-1.5055587 c 0.26724,0.018814 0.54012,0.045168 0.83934,0.079039 a 24.638492,24.638492 0 0 1 13.36185,5.7869977 30.730366,30.730366 0 0 1 10.51822,-11.9466202 0.75278009,0.75278009 0 1 1 0.83559,1.251497 29.213514,29.213514 0 0 0 -10.41848,12.2326772 0.75278009,0.75278009 0 0 1 -0.53635,0.427203 0.80735666,0.80735666 0 0 1 -0.14115,0.02258 z"
         id="path506"
         style="fill:#181828;stroke-width:0.188194" />
      <ellipse
         class="cls-16"
         cx="316.51685"
         cy="349.52304"
         rx="1.511206"
         ry="0.87887079"
         transform="rotate(-42.91)"
         id="ellipse510"
         style="fill:#3a3a3a;stroke-width:0.188194" />
      <ellipse
         class="cls-26"
         cx="310.26917"
         cy="353.12241"
         rx="1.511206"
         ry="0.87887079"
         transform="rotate(-42.91)"
         id="ellipse512"
         style="fill:#474747;stroke-width:0.188194" />
      <ellipse
         class="cls-16"
         cx="374.44595"
         cy="271.51797"
         rx="2.4314799"
         ry="1.4152266"
         transform="rotate(-30)"
         id="ellipse514"
         style="fill:#3a3a3a;stroke-width:0.188194" />
      <circle
         class="cls-16"
         cx="470.62973"
         cy="37.932953"
         r="0.49495295"
         id="circle516"
         style="fill:#3a3a3a;stroke-width:0.188194" />
      <circle
         class="cls-26"
         cx="466.6438"
         cy="50.826191"
         r="0.85252351"
         id="circle518"
         style="fill:#474747;stroke-width:0.188194" />
      <ellipse
         class="cls-2"
         cx="301.49268"
         cy="314.00977"
         rx="1.210094"
         ry="0.87887079"
         transform="rotate(-45)"
         id="ellipse520"
         style="fill:#ffffff;stroke-width:0.188194" />
      <ellipse
         class="cls-49"
         cx="297.4039"
         cy="317.06158"
         rx="2.6798971"
         ry="1.9478186"
         transform="rotate(-45)"
         id="ellipse522"
         style="opacity:0.2;fill:#ffffff;stroke-width:0.188194" />
      <ellipse
         class="cls-49"
         cx="308.75357"
         cy="321.26007"
         rx="6.5360131"
         ry="4.7538061"
         transform="rotate(-45)"
         id="ellipse524"
         style="opacity:0.2;fill:#ffffff;stroke-width:0.188194" />
      <path
         class="cls-7"
         d="m 441.48211,52.913273 a 0.56458508,0.56458508 0 0 1 -0.22207,-0.04517 27.015395,27.015395 0 0 1 -4.72557,-2.578272 0.56458508,0.56458508 0 1 1 0.64173,-0.927802 25.822239,25.822239 0 0 0 4.52798,2.467237 0.56458508,0.56458508 0 0 1 -0.22207,1.084003 z"
         id="path526"
         style="fill:#181828;stroke-width:0.188194" />
      <circle
         class="cls-7"
         cx="444.69272"
         cy="53.64724"
         r="0.9353292"
         id="circle528"
         style="fill:#181828;stroke-width:0.188194" />
      <path
         class="cls-7"
         d="m 372.80033,66.890519 a 0.53823778,0.53823778 0 0 1 -0.13173,-0.01694 0.56458508,0.56458508 0 0 1 -0.41779,-0.679385 27.128313,27.128313 0 0 1 1.74832,-5.092557 0.56494478,0.56494478 0 1 1 1.02379,0.478016 25.88058,25.88058 0 0 0 -1.67306,4.874251 0.56458508,0.56458508 0 0 1 -0.54953,0.436612 z"
         id="path530"
         style="fill:#181828;stroke-width:0.188194" />
      <circle
         class="cls-7"
         cx="372.06073"
         cy="69.709679"
         r="0.9353292"
         id="circle532"
         style="fill:#181828;stroke-width:0.188194" />
      <path
         class="cls-7"
         d="m 475.44002,44.412504 a 0.56458508,0.56458508 0 0 1 -0.31992,-0.09974 0.56458508,0.56458508 0 0 1 -0.14492,-0.786657 25.876816,25.876816 0 0 0 2.46912,-4.51668 0.56490038,0.56490038 0 0 1 1.03884,0.444141 27.120785,27.120785 0 0 1 -2.57827,4.723695 0.56458508,0.56458508 0 0 1 -0.46485,0.235243 z"
         id="path534"
         style="fill:#181828;stroke-width:0.188194" />
      <circle
         class="cls-7"
         cx="479.26227"
         cy="36.009602"
         r="0.9353292"
         id="circle536"
         style="fill:#181828;stroke-width:0.188194" />
      <ellipse
         class="cls-16"
         cx="452.80017"
         cy="25.491377"
         rx="0.84311372"
         ry="1.3926432"
         id="ellipse538"
         style="fill:#3a3a3a;stroke-width:0.188194" />
      <circle
         class="cls-16"
         cx="451.59003"
         cy="28.20327"
         r="0.58716846"
         id="circle540"
         style="fill:#3a3a3a;stroke-width:0.188194" />
      <ellipse
         class="cls-26"
         cx="479.59158"
         cy="29.375723"
         rx="0.84311372"
         ry="1.3926432"
         id="ellipse542"
         style="fill:#474747;stroke-width:0.188194" />
      <circle
         class="cls-26"
         cx="478.38153"
         cy="32.087616"
         r="0.58716846"
         id="circle544"
         style="fill:#474747;stroke-width:0.188194" />
      <path
         class="cls-1"
         d="m 424.49469,104.11776 h 8.85381 a 9.3004293,9.3004293 0 0 1 9.30043,9.30044 v 38.79382 H 415.19425 V 113.4182 a 9.3004293,9.3004293 0 0 1 9.30044,-9.30044 z"
         id="path8"
         style="fill:#ffffff;stroke-width:0.413535" />
      <path
         class="cls-2"
         d="m 442.8433,111.10239 v 41.9243 c 0,0 -5.59101,0.64926 -5.30981,0 3.22145,-7.44365 2.48123,-48.06116 2.48123,-48.06116 a 7.9936549,7.9936549 0 0 1 2.82858,6.13686 z"
         id="path10"
         style="fill:#dbcec8;stroke-width:0.413535" />
      <line
         class="cls-1"
         x1="452.04446"
         y1="147.70047"
         x2="445.12598"
         y2="147.70047"
         id="line12"
         style="fill:#ffffff;stroke-width:0.413535" />
      <path
         class="cls-1"
         d="m 442.73164,109.31179 v 0 c 4.72258,0 7.1914,3.82934 7.1914,8.55192 v 26.50355 h -7.53049 z"
         id="path14"
         style="fill:#ffffff;stroke-width:0.413535" />
      <rect
         class="cls-2"
         x="442.75644"
         y="109.45657"
         width="2.1379824"
         height="35.456593"
         id="rect16"
         style="fill:#dbcec8;stroke-width:0.413535" />
      <path
         class="cls-3"
         d="m 442.64893,144.70221 v 7.13764 h 0.16542 c 3.72183,0 6.75305,-3.19664 6.75305,-7.13764 z"
         id="path18"
         style="fill:#a05a2c;fill-opacity:1;stroke-width:0.413535" />
      <path
         class="cls-4"
         d="m 444.66699,145.07439 v 6.95569 a 6.5710904,6.5710904 0 0 1 -1.51767,0.18194 h -0.16543 v -7.13763 z"
         id="path20"
         style="opacity:0.25;fill:#66381b;fill-opacity:1;stroke-width:0.413535" />
      <rect
         class="cls-5"
         x="448.94711"
         y="122.4664"
         width="1.2406087"
         height="1.4473766"
         id="rect22"
         style="fill:#3e3127;stroke-width:0.413535" />
      <rect
         class="cls-5"
         x="448.94711"
         y="126.13863"
         width="1.2406087"
         height="3.1180632"
         id="rect24"
         style="fill:#3e3127;stroke-width:0.413535" />
      <rect
         class="cls-5"
         x="448.94711"
         y="131.48573"
         width="1.2406087"
         height="1.4473766"
         id="rect26"
         style="fill:#3e3127;stroke-width:0.413535" />
      <path
         class="cls-5"
         d="m 441.7681,153.85377 h -3.69702 v -1.65414 h 3.69702 a 0.16127913,0.16127913 0 0 0 0.16128,-0.16129 V 110.7633 a 4.9086749,4.9086749 0 0 0 -4.90454,-4.90455 h -2.01391 v -1.65414 h 2.01391 a 6.566955,6.566955 0 0 1 6.55868,6.55869 v 41.27504 a 1.8195594,1.8195594 0 0 1 -1.81542,1.81543 z"
         id="path28"
         style="fill:#3e3127;stroke-width:0.413535" />
      <path
         class="cls-5"
         d="m 442.92187,152.7827 h -0.16542 v -1.65413 h 0.16542 c 3.26694,0 5.92184,-2.83273 5.92184,-6.31058 v -11.20682 h 1.65414 v 11.21923 c 0,4.39177 -3.37859,7.9523 -7.57598,7.9523 z"
         id="path30"
         style="fill:#3e3127;stroke-width:0.413535" />
      <path
         class="cls-5"
         d="m 450.49785,121.63517 h -1.65414 v -5.04101 c 0,-3.48197 -2.6549,-6.31057 -5.92184,-6.31057 h -0.16542 v -1.65413 h 0.16542 c 4.17671,0 7.57598,3.57295 7.57598,7.9647 z"
         id="path32"
         style="fill:#3e3127;stroke-width:0.413535" />
      <rect
         class="cls-5"
         x="442.75644"
         y="144.00343"
         width="6.9143248"
         height="1.6541448"
         id="rect34"
         style="fill:#3e3127;stroke-width:0.413535" />
      <line
         class="cls-1"
         x1="405.52164"
         y1="147.70047"
         x2="412.44012"
         y2="147.70047"
         id="line36"
         style="fill:#ffffff;stroke-width:0.413535" />
      <path
         class="cls-1"
         d="m 409.37037,111.52712 6.82051,-2.20706 v 35.0472 0 c -4.71826,-10e-6 -8.13659,-4.30939 -8.14343,-9.02764 v -15.875"
         id="path38"
         style="fill:#ffffff;stroke-width:0.413535"
         sodipodi:nodetypes="cccscc" />
      <rect
         class="cls-2"
         x="-414.80554"
         y="-144.90909"
         width="2.1379824"
         height="35.456593"
         transform="scale(-1)"
         id="rect40"
         style="fill:#dbcec8;stroke-width:0.413535" />
      <path
         class="cls-3"
         d="m 414.91719,144.70221 v 7.13764 h -0.16955 c -3.72183,0 -6.75304,-3.19664 -6.75304,-7.13764 z"
         id="path42"
         style="fill:#a05a2c;fill-opacity:1;stroke-width:0.413535" />
      <path
         class="cls-4"
         d="m 412.895,145.07439 v 6.95569 a 6.5793611,6.5793611 0 0 0 1.52182,0.18194 h 0.16541 v -7.13763 z"
         id="path44"
         style="opacity:0.25;fill:#66381b;fill-opacity:1;stroke-width:0.413535" />
      <rect
         class="cls-5"
         x="407.37842"
         y="122.4664"
         width="1.2406087"
         height="1.4473766"
         id="rect46"
         style="fill:#3e3127;stroke-width:0.413535" />
      <rect
         class="cls-5"
         x="407.37842"
         y="126.13863"
         width="1.2406087"
         height="3.1180632"
         id="rect48"
         style="fill:#3e3127;stroke-width:0.413535" />
      <rect
         class="cls-5"
         x="407.37842"
         y="131.48573"
         width="1.2406087"
         height="1.4473766"
         id="rect50"
         style="fill:#3e3127;stroke-width:0.413535" />
      <path
         class="cls-5"
         d="m 438.07108,153.85377 h -22.27305 a 1.8195594,1.8195594 0 0 1 -1.81541,-1.81543 V 110.7633 a 6.566955,6.566955 0 0 1 6.55867,-6.55869 h 14.47376 v 1.65414 h -14.47376 a 4.9086749,4.9086749 0 0 0 -4.90454,4.90455 v 41.27504 a 0.16127913,0.16127913 0 0 0 0.16128,0.16129 h 22.27305 z"
         id="path52"
         style="fill:#3e3127;stroke-width:0.413535" />
      <path
         class="cls-5"
         d="m 414.80968,152.7827 h -0.16541 c -4.17673,0 -7.58013,-3.57294 -7.58013,-7.96471 v -11.20682 h 1.65414 v 11.21923 c 0,3.47784 2.65905,6.31057 5.92599,6.31057 h 0.16541 z"
         id="path54"
         style="fill:#3e3127;stroke-width:0.413535" />
      <path
         class="cls-5"
         d="m 408.71828,121.63517 h -1.65414 v -5.04101 c 0,-4.39175 3.4034,-7.9647 7.58013,-7.9647 h 0.16541 v 1.65413 h -0.16541 c -3.26694,0 -5.92599,2.8286 -5.92599,6.31057 z"
         id="path56"
         style="fill:#3e3127;stroke-width:0.413535" />
      <rect
         class="cls-5"
         x="407.89117"
         y="144.00343"
         width="6.9143248"
         height="1.6541448"
         id="rect58"
         style="fill:#3e3127;stroke-width:0.413535" />
      <path
         class="cls-6"
         d="m 408.11453,142.82474 a 0.4135362,0.4135362 0 0 1 -0.28534,-0.1158 0.4135362,0.4135362 0 0 1 0,-0.58723 l 4.13949,-4.26769 a 0.4135362,0.4135362 0 0 1 0.58722,0 0.4135362,0.4135362 0 0 1 0,0.5831 l -4.14363,4.26354 a 0.4135362,0.4135362 0 0 1 -0.29774,0.12411 z"
         id="path60"
         style="fill:#3c3127;stroke-width:0.413535" />
      <path
         class="cls-6"
         d="m 409.81002,138.9003 a 0.4135362,0.4135362 0 0 1 -0.29774,-0.69888 l 2.48122,-2.5722 a 0.4135362,0.4135362 0 0 1 0.59549,0.57069 l -2.48122,2.57633 a 0.4135362,0.4135362 0 0 1 -0.29775,0.1241 z"
         id="path62"
         style="fill:#3c3127;stroke-width:0.413535" />
      <path
         class="cls-2"
         d="m 417.04278,134.81043 a 0.78985417,0.78985417 0 0 1 0.0909,0.41352 c 0,0.0909 0,0.18198 0,0.26881 a 1.9312142,1.9312142 0 0 1 0,0.21504 3.6680662,3.6680662 0 0 0 0,0.60375 c 0.0331,0.37633 0,2.29927 0,2.48123 0,0.2936 0,1.18271 0,1.33158 0,0.1488 0,0.89324 0,1.09589 a 2.3199381,2.3199381 0 0 1 0,0.23985 c 0,0.34735 0.062,0.69059 0.0496,1.03383 0,0.21089 0,0.41353 0,0.63683 0,0.0537 0,0.10339 0,0.15304 -0.0289,0.54999 0,1.09587 0,1.65414 0,0.11159 0,0.2233 0,0.33496 a 1.8650482,1.8650482 0 0 0 0,0.21503 10.751942,10.751942 0 0 1 0,1.15378 0.5996275,0.5996275 0 0 0 0,0.14879 c 0.0331,0.28534 0,0.56655 0,0.85188 0,0.0909 0,0.18196 0,0.27294 0,0.0909 0,0.14068 0,0.21089 0,0.3143 0,0.62858 0,0.94287 a 0.31428752,0.31428752 0 0 0 0,0.062 5.7233411,5.7233411 0 0 1 -0.0289,0.99662 2.4812172,2.4812172 0 0 0 0,0.60791 0.4135362,0.4135362 0 0 1 0,0.11988 c -0.0249,0.19849 0,0.41353 -0.029,0.60376 0,0 0,0.0206 0,0.0289 0,0.008 -0.12816,0.0661 -0.15714,0.0661 a 1.4308354,1.4308354 0 0 1 -0.35977,-0.16955 0.48383737,0.48383737 0 0 1 0,-0.0826 0.4135362,0.4135362 0 0 0 -0.0826,-0.23985 0.23571563,0.23571563 0 0 1 -0.0289,-0.14474 c 0.0373,-0.41353 0,-0.82707 0.0249,-1.21165 0,-0.17368 0,-0.34738 0,-0.51694 v -2.6094 a 4.2346107,4.2346107 0 0 1 0,-0.45488 c 0,-0.14067 0,-0.28122 0,-0.41353 0,-0.24401 0,-0.48799 0,-0.73197 v -2.76656 a 0.26879854,0.26879854 0 0 0 0,-0.0578 c -0.0495,-0.3515 -0.0289,-1.42255 -0.0289,-1.49699 0,-0.31428 0,-0.62443 0,-0.94287 0,-0.31841 0,-0.62443 0,-0.93871 0,-0.3143 0,-0.54587 0,-0.82708 v -0.1241 c 0,-0.44247 0.0373,-2.26618 0.0331,-2.48121 a 0.26466317,0.26466317 0 0 1 0.0373,-0.14068 c 0,-0.0414 0.0288,-0.0909 0.0497,-0.13238 0.0206,-0.0414 0.0579,-0.062 0.0744,-0.10328 a 1.2406086,1.2406086 0 0 0 0.0331,-0.14473 0.06616579,0.06616579 0 0 1 0.087,-0.0578 c 0.0661,0.0206 0.19849,0.0331 0.23572,0.0455 z"
         id="path64"
         style="fill:#dbcec8;stroke-width:0.413535" />
      <circle
         class="cls-2"
         cx="438.53009"
         cy="146.4185"
         r="3.2628007"
         id="circle66"
         style="fill:#dbcec8;stroke-width:0.413535" />
      <circle
         class="cls-2"
         cx="435.01093"
         cy="140.873"
         r="1.2612854"
         id="circle68"
         style="fill:#dbcec8;stroke-width:0.413535" />
      <path
         id="rect70-4"
         style="fill:#a05a2c;fill-opacity:1;stroke-width:0.413536"
         d="m 422.5675,99.885443 v 7.861537 c 0,2.9737 2.39392,5.36763 5.36762,5.36763 2.97371,0 5.36763,-2.39393 5.36763,-5.36763 v -7.861537 z" />
      <path
         class="cls-4"
         d="m 433.53046,99.812863 v 5.744007 c -5.08649,-1.31918 -8.48576,-3.18009 -10.75195,-5.18574 v -0.19849 z"
         id="path72"
         style="opacity:0.45;fill:#66381b;fill-opacity:1;stroke-width:0.413535" />
      <path
         id="path74-1"
         style="fill:#3e3127;stroke-width:0.413536"
         d="m 421.6368,99.885443 v 7.857397 a 6.2030432,6.2030432 0 0 0 6.20323,6.20272 6.2030432,6.2030432 0 0 0 6.20324,-6.20685 v -7.853267 h -1.65415 v 7.873937 a 4.549075,4.549075 0 0 1 -9.09815,0 v -7.873937 z" />
    </g>
  </g>
  <rect
     id="postit-9-9-4"
     style="opacity:1;fill:#f0de97;fill-opacity:1;stroke-width:0.262788"
     width="25.823503"
     height="25.823503"
     x="188.62378"
     y="151.94429"
     ry="0.11670198" />
  <rect
     id="postit-9-9-6"
     style="opacity:1;fill:#f0de97;fill-opacity:1;stroke-width:0.262788"
     width="25.823503"
     height="25.823503"
     x="222.07866"
     y="151.13815"
     ry="0.11670198" />
  <rect
     id="postit-9-9-7"
     style="opacity:1;fill:#f0de97;fill-opacity:1;stroke-width:0.262788"
     width="25.823503"
     height="25.823503"
     x="254.7274"
     y="151.13815"
     ry="0.11670198" />
</svg>
